<?xml version="1.0" encoding="UTF-8"?>
<svg version="1.1" xmlns="http://www.w3.org/2000/svg" width="1024" height="1024">
<path d="M0 0 C337.92 0 675.84 0 1024 0 C1024 337.92 1024 675.84 1024 1024 C686.08 1024 348.16 1024 0 1024 C0 686.08 0 348.16 0 0 Z " fill="#FAFBFB" transform="translate(0,0)"/>
<path d="M0 0 C1.5663793 -0.00446219 3.13275636 -0.00977942 4.69913018 -0.01586872 C8.96937184 -0.02994186 13.23954035 -0.03171406 17.50980186 -0.03127182 C22.12902175 -0.03292956 26.74821232 -0.04601386 31.36741638 -0.0574646 C41.45257961 -0.08024083 51.5377217 -0.08822737 61.62290716 -0.09329104 C67.93073811 -0.09655693 74.23856301 -0.10308478 80.54639053 -0.11029243 C98.04157501 -0.1298494 115.53675389 -0.14625868 133.03195 -0.14916897 C134.14986738 -0.14935654 135.26778477 -0.14954411 136.41957844 -0.14973736 C138.68546462 -0.15010359 140.9513508 -0.15046729 143.21723698 -0.15082847 C144.34188941 -0.15101128 145.46654185 -0.1511941 146.62527466 -0.15138245 C148.31433401 -0.15165327 148.31433401 -0.15165327 150.03751577 -0.15192956 C168.26650882 -0.15546811 186.4953835 -0.18247464 204.72433554 -0.21988034 C223.47968027 -0.25805537 242.23496643 -0.27732712 260.99035084 -0.27762848 C271.50467258 -0.27821101 282.01885312 -0.28657045 292.53313828 -0.31562614 C301.48916752 -0.34026347 310.44500407 -0.34734026 319.40105812 -0.33237862 C323.96098888 -0.32525969 328.52054012 -0.32584731 333.08042717 -0.34878922 C371.1773548 -0.52886433 401.0107101 5.20723129 429.62722778 32.33665466 C443.41049137 46.45087232 452.00116551 64.11045313 456.12722778 83.27415466 C456.2952181 84.01128494 456.46320842 84.74841522 456.63628936 85.50788277 C458.31985458 93.61022253 458.40798202 101.58142477 458.38119507 109.81512451 C458.38350311 111.36969164 458.38668194 112.92425768 458.39064956 114.47882146 C458.39895924 118.72536338 458.39488974 122.97181482 458.38867712 127.21835697 C458.38413779 131.80811909 458.3911438 136.39786604 458.39663696 140.98762512 C458.40551746 149.96984177 458.40361475 158.95202494 458.39781168 167.93424288 C458.39328907 175.23792524 458.39268489 182.54159824 458.39485931 189.8452816 C458.39516578 190.88606028 458.39547225 191.92683896 458.395788 192.99915638 C458.39642747 195.11372827 458.3970759 197.22830016 458.39773318 199.34287205 C458.40343276 219.15968704 458.39688486 238.97648351 458.38613245 258.79329547 C458.37720123 275.7790306 458.37874617 292.76473839 458.38796997 309.75047302 C458.39868599 329.49327503 458.40287932 349.23606081 458.39674544 368.97886533 C458.39610837 371.08643702 458.39547963 373.19400873 458.39485931 375.30158043 C458.39455076 376.33843517 458.39424221 377.3752899 458.39392431 378.44356448 C458.39220107 385.73280991 458.39510455 393.022045 458.39981842 400.31128883 C458.40544223 409.20280294 458.40387949 418.09428175 458.39325693 426.98579184 C458.38801977 431.51814379 458.3859099 436.05043702 458.39255524 440.58278847 C458.39855777 444.73978974 458.39516931 448.8966784 458.38460013 453.05366959 C458.38238417 454.54954118 458.3834613 456.04542247 458.38835171 457.5412877 C458.42523105 469.7694035 457.56124853 481.88636583 454.00222778 493.64915466 C453.79194946 494.35048523 453.58167114 495.0518158 453.36502075 495.7743988 C444.62666799 523.38821109 424.7841012 544.55092621 399.43972778 557.89915466 C383.02865189 565.89798136 366.47993873 568.58484083 348.32087708 568.53485107 C346.74966003 568.5378771 345.17844445 568.54176883 343.60723144 568.54644364 C339.3192775 568.55667431 335.03140763 568.55455448 330.74344695 568.55026305 C326.10732677 568.54778681 321.47122637 568.5568211 316.83511353 568.56430054 C307.76380056 568.57702474 298.69251722 568.57884407 289.62119683 568.57650027 C282.24460591 568.57471438 274.86802395 568.57647256 267.4914341 568.58072472 C265.91425023 568.5816175 265.91425023 568.5816175 264.30520407 568.58252832 C262.16889144 568.58374012 260.03257882 568.58495426 257.8962662 568.5861707 C237.87912331 568.59703748 217.86199728 568.59488784 197.84485344 568.58878585 C179.55222542 568.58361762 161.25965066 568.5948712 142.96703317 568.61388407 C124.16203944 568.63327891 105.35707089 568.64151557 86.5520671 568.63776082 C76.00337426 568.63585125 65.45472675 568.63831246 54.9060421 568.65247536 C45.92563721 568.66441112 36.94530556 568.66576946 27.96489962 568.65368519 C23.38783308 568.64781188 18.81090034 568.64665403 14.23384285 568.65868759 C10.03484183 568.66959842 5.8360855 568.66638182 1.63709567 568.65242591 C0.12710335 568.6497932 -1.38290846 568.65210007 -2.89288155 568.66016177 C-28.23750869 568.78596428 -52.70943209 561.18298418 -71.87277222 544.27415466 C-72.6913269 543.58708435 -73.50988159 542.90001404 -74.35324097 542.19212341 C-88.2094131 530.26937065 -98.01813909 515.90166772 -104.24777222 498.77415466 C-104.47432495 498.15967468 -104.70087769 497.5451947 -104.93429565 496.91209412 C-109.23406817 484.20513481 -110.31850227 471.25855537 -110.25372314 457.94882202 C-110.25718977 456.37002652 -110.26196101 454.79123344 -110.26790488 453.21244532 C-110.2803066 448.92208545 -110.27429453 444.63192848 -110.26494622 440.34156835 C-110.25811121 435.69597088 -110.26865882 431.05040641 -110.27688599 426.40481567 C-110.29017803 417.32333958 -110.28736595 408.24193815 -110.27864806 399.16045921 C-110.27185444 391.77585661 -110.27096203 384.39127483 -110.27421951 377.00667 C-110.27467921 375.95298069 -110.27513891 374.89929138 -110.27561254 373.81367208 C-110.27657178 371.67268859 -110.27754442 369.53170511 -110.27853031 367.39072163 C-110.28707083 347.34732124 -110.2772709 327.30396212 -110.26112922 307.26056851 C-110.24772531 290.0853077 -110.25005734 272.91010773 -110.2638855 255.73484802 C-110.27996162 235.75833704 -110.28624904 215.78186215 -110.27704871 195.80534559 C-110.27609312 193.67283826 -110.27515001 191.54033091 -110.27421951 189.40782356 C-110.27375669 188.35876393 -110.27329386 187.30970429 -110.27281701 186.22885497 C-110.27023336 178.8578624 -110.27458456 171.48689285 -110.28165817 164.11590385 C-110.29009589 155.12644139 -110.28774533 146.13705746 -110.27181594 137.14760392 C-110.26396403 132.56646273 -110.26078876 127.98545219 -110.2707634 123.40431213 C-110.27977495 119.20176424 -110.27467243 114.99946676 -110.25883074 110.79694123 C-110.25551007 109.28572498 -110.25711492 107.77448709 -110.2644581 106.26328503 C-110.3952146 77.09103238 -99.43368876 50.8993231 -79.12277222 30.08665466 C-57.43795199 8.71580384 -30.08110724 -0.05464251 0 0 Z " fill="#263C4B" transform="translate(337.8727722167969,227.72584533691406)"/>
<path d="M0 0 C1.06276661 -0.00170885 2.12553322 -0.0034177 3.22050488 -0.00517833 C6.78119663 -0.00847225 10.34169988 0.00252904 13.90237427 0.01345825 C16.45495092 0.01402239 19.0075279 0.01370576 21.56010437 0.01257324 C27.05541252 0.01211782 32.55065998 0.01779022 38.04595566 0.02904892 C45.99117665 0.04531638 53.93637469 0.0505132 61.88161053 0.0530249 C74.77282215 0.05740005 87.66400843 0.07070426 100.5552063 0.08963013 C113.07636387 0.10799359 125.59751454 0.12214781 138.11868286 0.13064575 C138.89073838 0.1311712 139.66279389 0.13169665 140.45824502 0.13223802 C144.33149563 0.13484813 148.20474628 0.13737553 152.07799697 0.13986182 C184.20062683 0.16058871 216.32322554 0.19580933 248.4458313 0.24050903 C246.64556906 4.10182157 244.16489539 6.92027718 241.2583313 9.99050903 C240.2550362 11.06668823 239.252431 12.14351101 238.2505188 13.22097778 C237.76550903 13.74095337 237.28049927 14.26092896 236.78079224 14.79666138 C235.11208652 16.60147586 233.49180009 18.4444195 231.8833313 20.30300903 C229.1178271 23.49295512 226.29107358 26.62143892 223.4458313 29.74050903 C219.99254976 33.52713901 216.58484079 37.34527223 213.22317505 41.21316528 C211.15223643 43.57540076 209.05070282 45.90846756 206.9458313 48.24050903 C203.68560875 51.85318807 200.46439565 55.49539895 197.27005005 59.16629028 C194.40319928 62.42602853 191.47994646 65.63461687 188.55911255 68.84597778 C187.09243469 70.50785122 185.68789327 72.22582847 184.3364563 73.98269653 C182.4458313 76.24050903 182.4458313 76.24050903 179.8833313 77.17800903 C176.44244809 78.6778812 176.09807665 80.92401655 174.4458313 84.24050903 C172.4302063 86.73269653 172.4302063 86.73269653 170.1958313 89.11550903 C168.99700317 90.41101685 168.99700317 90.41101685 167.7739563 91.73269653 C167.00567505 92.56027466 166.2373938 93.38785278 165.4458313 94.24050903 C164.27314505 95.56855115 163.10595942 96.90148266 161.9458313 98.24050903 C157.83666847 102.95879482 153.64074638 107.59851684 149.4458313 112.24050903 C146.21171103 111.62652097 144.16183863 110.53242033 141.5317688 108.57254028 C140.7796814 108.01590698 140.02759399 107.45927368 139.25271606 106.88577271 C138.45019409 106.28096069 137.64767212 105.67614868 136.8208313 105.05300903 C135.98414917 104.42950562 135.14746704 103.8060022 134.28543091 103.16360474 C126.96816384 97.68818753 119.75647132 92.07903701 112.55911255 86.44754028 C99.52582055 74.56364363 99.52582055 74.56364363 83.84036255 69.56863403 C77.41751592 71.37080307 72.9454786 77.59738257 68.5552063 82.36209106 C59.32848166 92.36002844 49.7661246 102.00344693 40.13723755 111.61160278 C39.44895308 112.29845846 38.7606686 112.98531414 38.05152702 113.69298363 C33.04065896 118.69153963 28.02490162 123.68517687 23.0083313 128.67800903 C17.93809342 133.72457113 12.86956443 138.77282772 7.80515862 143.825243 C5.79016875 145.83376129 3.77219489 147.83924809 1.7540741 149.84461975 C0.53212158 151.06294392 -0.6896931 152.28140635 -1.91134644 153.50003052 C-2.47171097 154.05522873 -3.0320755 154.61042694 -3.60942078 155.18244934 C-7.79110045 159.35190746 -7.79110045 159.35190746 -8.8041687 165.05300903 C-8.7625117 168.87156733 -7.96215695 171.18421626 -5.5541687 174.24050903 C-1.96578912 176.03469882 1.5454306 175.93425553 5.4458313 175.24050903 C7.47083077 173.95442756 7.47083077 173.95442756 9.27493286 172.17774963 C9.96510498 171.53945662 10.6552771 170.9011636 11.36636353 170.24352837 C12.39570007 169.2520338 12.39570007 169.2520338 13.4458313 168.24050903 C14.37897156 167.34456874 14.37897156 167.34456874 15.33096313 166.43052864 C17.25647669 164.55200321 19.15827026 162.65202613 21.0552063 160.74465942 C22.12497459 159.67511017 22.12497459 159.67511017 23.21635437 158.58395386 C25.54522832 156.25438985 27.87055192 153.92131677 30.1958313 151.58816528 C31.82085625 149.96127293 33.44610385 148.33460295 35.07156372 146.70814514 C39.32832213 142.44758696 43.58206758 138.18403314 47.83517456 133.91983032 C52.18403262 129.56070329 56.53575838 125.20444115 60.88723755 120.84793091 C69.40956436 112.31491161 77.92870822 103.77872215 86.4458313 95.24050903 C90.03991096 96.62147265 92.81636988 98.07280454 95.8598938 100.44363403 C96.6937561 101.08727905 97.52761841 101.73092407 98.38674927 102.39407349 C99.27249634 103.08589722 100.15824341 103.77772095 101.0708313 104.49050903 C102.96049346 105.94878879 104.85113898 107.40579509 106.7427063 108.86160278 C107.69596802 109.59620728 108.64922974 110.33081177 109.63137817 111.087677 C114.59454973 114.88410715 119.62559206 118.58708956 124.67385864 122.26931763 C128.39541717 124.98441199 132.08753509 127.72241195 135.7192688 130.55691528 C136.39232056 131.07407104 137.06537231 131.59122681 137.75881958 132.12405396 C139.00469911 133.08335293 140.24101035 134.05527878 141.46487427 135.04251099 C144.39187608 137.27404223 146.38084496 138.23192859 150.0552063 138.71707153 C155.95642252 137.88763792 158.75579714 135.2609754 162.2583313 130.61550903 C166.10782936 125.63897162 170.06467346 120.76369942 174.4458313 116.24050903 C174.7758313 116.24050903 175.1058313 116.24050903 175.4458313 116.24050903 C175.4458313 128.78050903 175.4458313 141.32050903 175.4458313 154.24050903 C160.2658313 154.24050903 145.0858313 154.24050903 129.4458313 154.24050903 C129.4458313 183.28050903 129.4458313 212.32050903 129.4458313 242.24050903 C144.6258313 242.24050903 159.8058313 242.24050903 175.4458313 242.24050903 C175.4458313 247.52050903 175.4458313 252.80050903 175.4458313 258.24050903 C151.07187364 258.33312898 126.69795842 258.40449985 102.32386017 258.44775772 C91.00638333 258.46837751 79.68901789 258.4964871 68.37161255 258.54226685 C58.50665255 258.5821523 48.64177322 258.60794608 38.77673483 258.61686301 C33.55389003 258.62207483 28.33127603 258.6343126 23.10850525 258.66342926 C18.19030576 258.69062522 13.27243167 258.69894552 8.35416412 258.69293976 C6.55144227 258.69403812 4.74870927 258.70196704 2.94605255 258.71733093 C0.47866395 258.73732471 -1.98750692 258.73241467 -4.45492554 258.7215271 C-5.16312109 258.73317847 -5.87131663 258.74482983 -6.60097265 258.75683427 C-12.80297061 258.68320067 -17.84275916 256.52576383 -22.54244995 252.56472778 C-22.97944214 252.0246106 -23.41643433 251.48449341 -23.8666687 250.92800903 C-24.54149292 250.12943481 -24.54149292 250.12943481 -25.22994995 249.31472778 C-29.14848127 243.1768513 -29.99404543 238.1772572 -29.94857788 231.03804016 C-29.95466898 230.13256622 -29.96076009 229.22709228 -29.96703577 228.29417974 C-29.98363589 225.27119647 -29.97889416 222.2486358 -29.97409058 219.22561646 C-29.98143267 217.05364038 -29.99001931 214.8816682 -29.99975586 212.70970154 C-30.02196682 206.81703598 -30.0249027 200.92451028 -30.02300835 195.03180861 C-30.02288861 190.10895209 -30.03145396 185.18612516 -30.03978586 180.26327688 C-30.05901884 168.64653664 -30.06190428 157.02986825 -30.05514526 145.41311646 C-30.04850591 133.43822432 -30.0713649 121.46374301 -30.108459 109.48889655 C-30.13917169 99.19991889 -30.15051426 88.91104026 -30.14662218 78.62201768 C-30.14455615 72.48036659 -30.15001165 66.33895524 -30.17451477 60.19734764 C-30.19680468 54.41961669 -30.19488486 48.64238603 -30.17458725 42.86465263 C-30.17118112 40.74833028 -30.17624908 38.63197411 -30.19057083 36.51569748 C-30.32433181 15.27908425 -30.32433181 15.27908425 -24.5541687 8.24050903 C-17.07976568 1.17516185 -10.01475004 -0.0589155 0 0 Z " fill="#FCFCFC" transform="translate(350.5541687011719,393.7594909667969)"/>
<path d="M0 0 C13.53 0 27.06 0 41 0 C41.66 2.64 42.32 5.28 43 8 C53.41342925 8.02312359 63.82685244 8.04091517 74.24030209 8.05181217 C79.07516827 8.05704097 83.91001694 8.06413854 88.74487305 8.07543945 C93.4067712 8.08626847 98.06865246 8.09227686 102.73056221 8.09487724 C104.51324288 8.09673147 106.29592259 8.10035203 108.07859612 8.10573006 C110.5666596 8.11294069 113.05465243 8.11399093 115.54272461 8.11352539 C116.28718842 8.11712067 117.03165222 8.12071594 117.79867554 8.12442017 C121.18567883 8.41980997 121.18567883 8.41980997 124 7 C124.33 4.69 124.66 2.38 125 0 C138.53 0 152.06 0 166 0 C166 69.3 166 138.6 166 210 C111.22 210 56.44 210 0 210 C0 140.7 0 71.4 0 0 Z " fill="#FBFCFC" transform="translate(538,481)"/>
<path d="M0 0 C-0.3393698 12.52274567 -1.79122215 24.80210821 -3.62792969 37.18798828 C-5.43591894 48.56671485 -5.43591894 48.56671485 -5 60 C-3.41394834 61.98072329 -1.90448455 63.2061746 0.1796875 64.640625 C4.50049737 67.86732422 6.20006281 72.811289 7 78 C7.08345812 79.84004979 7.11783906 81.68272176 7.11352539 83.5246582 C7.11344986 84.60540115 7.11337433 85.6861441 7.11329651 86.79963684 C7.10813522 87.9550145 7.10297394 89.11039215 7.09765625 90.30078125 C7.09553383 92.08804878 7.09553383 92.08804878 7.09336853 93.91142273 C7.08777728 97.71180751 7.07522632 101.51213307 7.0625 105.3125 C7.05748387 107.89127519 7.05292116 110.4700513 7.04882812 113.04882812 C7.03781071 119.36590557 7.02108122 125.68294855 7 132 C8.73286255 131.97643433 8.73286255 131.97643433 10.50073242 131.95239258 C14.79639687 131.89799631 19.092031 131.86361467 23.38793945 131.83520508 C25.24541345 131.82014054 27.10285201 131.79968491 28.96020508 131.77368164 C31.63371539 131.73719541 34.30675444 131.7202503 36.98046875 131.70703125 C38.2213752 131.68380547 38.2213752 131.68380547 39.48735046 131.66011047 C45.13456254 131.65847084 48.43977452 132.51661246 52.60892677 136.56063938 C54.66703534 140.16970099 54.41327998 143.71774352 54.38095093 147.76145935 C54.3856309 148.65564719 54.39031087 149.54983503 54.39513266 150.47111946 C54.40711857 153.47365341 54.39761129 156.47573397 54.38818359 159.47827148 C54.39224772 161.62835965 54.3975887 163.77844573 54.40411377 165.92852783 C54.41781283 171.7735335 54.41247777 177.61838065 54.40297651 183.46338916 C54.39539238 189.57496751 54.40242215 195.68653209 54.40713501 201.79811096 C54.4125966 212.06343019 54.40539076 222.32868473 54.39111328 232.59399414 C54.37479038 244.46714511 54.3800711 256.34014151 54.3965925 268.21328872 C54.41020101 278.40021318 54.41212999 288.58709107 54.40427649 298.77402169 C54.39959594 304.86127478 54.39898557 310.94845521 54.40888596 317.03570366 C54.41754391 322.75911579 54.41155497 328.48232844 54.39420319 334.20571899 C54.39023192 336.30800609 54.39138329 338.41030994 54.39799118 340.51259041 C54.40617143 343.37914025 54.39592744 346.24504821 54.38095093 349.11155701 C54.38764309 349.946382 54.39433526 350.78120699 54.40123022 351.64132971 C54.35447328 356.24547014 53.99709479 359.27190007 51 363 C47.274006 365.483996 45.368996 365.25597268 40.91531372 365.26742554 C40.18940596 365.27195665 39.46349819 365.27648776 38.71559322 365.28115618 C36.27663986 365.2938437 33.83790855 365.29217703 31.39892578 365.29052734 C29.65292065 365.29650989 27.90691817 365.3033148 26.16091919 365.31088257 C21.41296456 365.32857782 16.66508198 365.33323943 11.91709757 365.33451414 C7.95579733 365.33641144 3.99451394 365.34376703 0.03322017 365.35085833 C-9.31168349 365.36715334 -18.65654861 365.37202628 -28.00146484 365.37060547 C-37.64622555 365.36940378 -47.29076256 365.39050844 -56.93546665 365.4220928 C-65.211556 365.44823099 -73.48757219 365.4589738 -81.76370251 365.45769465 C-86.70860534 365.45718428 -91.65330946 365.46290846 -96.59817123 365.48405075 C-101.24886759 365.50339176 -105.89917485 365.50358605 -110.5498848 365.48901749 C-112.25710365 365.48692312 -113.96434659 365.49166755 -115.67152405 365.5037384 C-118.00192426 365.51914897 -120.33097579 365.5099119 -122.66134644 365.49447632 C-124.61753812 365.49611062 -124.61753812 365.49611062 -126.61324883 365.49777794 C-130.57805162 364.91503913 -132.22466347 363.84493791 -135 361 C-136.05946564 357.82160309 -136.12064296 355.58154652 -136.11352539 352.2434082 C-136.11344986 351.06241043 -136.11337433 349.88141266 -136.11329651 348.66462708 C-136.10813522 347.38955795 -136.10297394 346.11448883 -136.09765625 344.80078125 C-136.09553383 342.84279854 -136.09553383 342.84279854 -136.09336853 340.84526062 C-136.0895538 337.37810344 -136.07973244 333.91098826 -136.06866455 330.44384766 C-136.05842798 326.90462828 -136.05381129 323.3654019 -136.04882812 319.82617188 C-136.03864014 312.8840775 -136.01906588 305.94209844 -136 299 C-151.18 299 -166.36 299 -182 299 C-182 269.96 -182 240.92 -182 211 C-166.82 211 -151.64 211 -136 211 C-136.33 198.79 -136.66 186.58 -137 174 C-142.02694403 179.74507889 -146.8911162 185.51808157 -151.66796875 191.4609375 C-154.87138458 194.94874368 -156.56398006 195.77638619 -161.2109375 196.5 C-166.53542153 195.79738767 -169.48270809 193.27472325 -173.625 190 C-174.44476318 189.37424072 -175.26452637 188.74848145 -176.10913086 188.10375977 C-178.75077663 186.08350141 -181.37492525 184.0417248 -184 182 C-186.63724957 179.9782875 -189.27946916 177.96322424 -191.92260742 175.94921875 C-193.67820244 174.61137514 -195.43228129 173.27153954 -197.18481445 171.9296875 C-205.6669667 165.44776613 -214.30871046 159.19745188 -223 153 C-225.99661403 154.34521381 -228.07921252 155.83249697 -230.39077759 158.15699768 C-231.04127579 158.80619171 -231.69177399 159.45538574 -232.36198425 160.12425232 C-233.06446793 160.83549759 -233.7669516 161.54674286 -234.49072266 162.27954102 C-235.23911911 163.02925171 -235.98751556 163.7789624 -236.7585907 164.5513916 C-239.23170774 167.03100089 -241.69777817 169.51750251 -244.1640625 172.00390625 C-245.87940487 173.72551795 -247.59526269 175.44661621 -249.31161499 177.16722107 C-253.82945004 181.69836477 -258.34168614 186.23504004 -262.85235596 190.77331543 C-270.07867395 198.04274286 -277.31171839 205.30546249 -284.54798508 212.56498528 C-287.07975399 215.1070094 -289.60810059 217.65240184 -292.13613892 220.19813538 C-293.68000037 221.74882197 -295.22397024 223.29940064 -296.76806641 224.84985352 C-297.47459854 225.56312302 -298.18113068 226.27639252 -298.90907288 227.01127625 C-299.55393143 227.65765045 -300.19878998 228.30402466 -300.8631897 228.96998596 C-301.42397532 229.53429101 -301.98476093 230.09859606 -302.56254005 230.68000126 C-305.66889698 233.53252403 -308.70278492 233.3280528 -312.73828125 233.2890625 C-316.08634301 232.86115823 -317.76066981 231.44926739 -320 229 C-321.26708201 225.19875398 -321.81606579 221.92411834 -321 218 C-316.00888689 210.22861788 -307.7854355 203.67092235 -301.25091553 197.17575073 C-299.08688959 195.02461663 -296.92611522 192.87026211 -294.76611328 190.71508789 C-289.40356327 185.36582947 -284.03555954 180.02205475 -278.66772461 174.67810059 C-274.12137014 170.15155022 -269.57711925 165.62290739 -265.0355835 161.09152222 C-262.91787095 158.98024075 -260.79714452 156.87201992 -258.67626953 154.76391602 C-252.56723338 148.67791376 -246.56327853 142.59665511 -241 136 C-239.60275584 134.52304728 -238.19057598 133.05971998 -236.75 131.625 C-236.10546875 130.97789062 -235.4609375 130.33078125 -234.796875 129.6640625 C-231.78488104 126.87469418 -229.74334329 125.69504911 -225.6875 125.625 C-224.94886719 125.59664063 -224.21023438 125.56828125 -223.44921875 125.5390625 C-217.07063105 126.73949846 -211.35941125 132.7660574 -206.375 136.6875 C-200.41255718 141.35071251 -194.43830123 145.98752374 -188.3515625 150.48828125 C-185.52155272 152.58962206 -182.74183989 154.75214256 -179.9609375 156.91796875 C-178.1406338 158.32032393 -176.32032126 159.72266762 -174.5 161.125 C-173.62617676 161.81392334 -172.75235352 162.50284668 -171.85205078 163.21264648 C-171.02431152 163.84630127 -170.19657227 164.47995605 -169.34375 165.1328125 C-168.60318359 165.70918457 -167.86261719 166.28555664 -167.09960938 166.87939453 C-165.08852859 168.1907148 -165.08852859 168.1907148 -162.9152832 167.85913086 C-160.74495364 166.88559489 -159.60296918 165.88251995 -158.01171875 164.12109375 C-157.47345459 163.53320068 -156.93519043 162.94530762 -156.38061523 162.33959961 C-155.82188721 161.71190674 -155.26315918 161.08421387 -154.6875 160.4375 C-153.82137085 159.48339233 -153.82137085 159.48339233 -152.93774414 158.51000977 C-151.2825085 156.68144615 -149.63927385 154.84287124 -148 153 C-147.25234375 152.1646875 -146.5046875 151.329375 -145.734375 150.46875 C-144.13601396 148.66190708 -142.56060664 146.83944702 -141 145 C-140.2575 144.13375 -139.515 143.2675 -138.75 142.375 C-136.86047764 139.9919525 -136.86047764 139.9919525 -135.625 136.875 C-133.57432864 133.24688913 -131.68874798 132.84437399 -128 131 C-126.1938484 129.22040945 -124.60467431 127.32509474 -122.984375 125.375 C-120.73039147 122.67731892 -118.37537268 120.09131566 -116 117.5 C-112.54671847 113.71337002 -109.13900949 109.8952368 -105.77734375 106.02734375 C-103.70640513 103.66510827 -101.60487152 101.33204147 -99.5 99 C-96.81016569 96.01937279 -94.13689636 93.02754767 -91.5 90 C-86.65628319 84.44200237 -81.71331921 78.97150702 -76.7421875 73.52734375 C-72.91189617 69.31669248 -69.19830293 65.05665861 -65.625 60.625 C-62.31619974 56.53390896 -58.88209564 52.6115216 -55.3125 48.75 C-54.8469873 48.2449292 -54.38147461 47.7398584 -53.90185547 47.21948242 C-51.91928884 45.07081652 -49.93177216 42.92712905 -47.93359375 40.79296875 C-46.08951185 38.81229177 -46.08951185 38.81229177 -44 36 C-45.08000025 32.75999925 -45.49783862 32.3663642 -48.16015625 30.51953125 C-48.78857422 30.07802734 -49.41699219 29.63652344 -50.06445312 29.18164062 C-51.05348633 28.50391602 -51.05348633 28.50391602 -52.0625 27.8125 C-52.72572266 27.34908203 -53.38894531 26.88566406 -54.07226562 26.40820312 C-55.71007505 25.26527137 -57.35442897 24.1317282 -59 23 C-58.67 21.35 -58.34 19.7 -58 18 C-57.47013489 17.82784973 -56.94026978 17.65569946 -56.39434814 17.47833252 C-50.43044598 15.51831376 -44.54925229 13.37600654 -38.671875 11.171875 C-36.71900189 10.44723748 -34.76586914 9.72329933 -32.8125 9 C-29.76644113 7.87153778 -26.72199171 6.73946346 -23.68164062 5.59570312 C-20.72420598 4.48452826 -17.76126882 3.389325 -14.796875 2.296875 C-13.43426544 1.77827911 -13.43426544 1.77827911 -12.04412842 1.24920654 C-11.19264221 0.93848206 -10.34115601 0.62775757 -9.46386719 0.30761719 C-8.72046082 0.03020691 -7.97705444 -0.24720337 -7.21112061 -0.53302002 C-4.53794901 -1.09758335 -2.62074041 -0.68642383 0 0 Z M-124 144 C-124 213.3 -124 282.6 -124 354 C-69.22 354 -14.44 354 42 354 C42 284.7 42 215.4 42 144 C28.47 144 14.94 144 1 144 C0.67 146.31 0.34 148.62 0 151 C-1.71987206 152.71987206 -3.90877029 152.11974788 -6.20132446 152.12442017 C-7.31802017 152.11902725 -7.31802017 152.11902725 -8.45727539 152.11352539 C-9.23770706 152.11367142 -10.01813873 152.11381744 -10.82221985 152.1139679 C-13.4140598 152.11326858 -16.00582878 152.10547536 -18.59765625 152.09765625 C-20.3898464 152.09579213 -22.18203706 152.0943682 -23.97422791 152.09336853 C-28.70070797 152.08954284 -33.42715752 152.07971212 -38.15362549 152.06866455 C-42.9728555 152.05845153 -47.79209042 152.05387115 -52.61132812 152.04882812 C-62.07423219 152.03808989 -71.53711356 152.02101286 -81 152 C-81.66 149.36 -82.32 146.72 -83 144 C-96.53 144 -110.06 144 -124 144 Z " fill="#04A1E1" transform="translate(662,337)"/>
<path d="M0 0 C15.51 0 31.02 0 47 0 C47 34.98 47 69.96 47 106 C31.49 106 15.98 106 0 106 C0 71.02 0 36.04 0 0 Z " fill="#223543" transform="translate(411,530)"/>
<path d="M0 0 C15.18 0 30.36 0 46 0 C46 29.04 46 58.08 46 88 C30.82 88 15.64 88 0 88 C0 58.96 0 29.92 0 0 Z " fill="#213442" transform="translate(480,548)"/>
<path d="M0 0 C2.78466037 0.72597963 4.13952219 2.35294944 5.95532227 4.50976562 C6.88344727 4.30351562 7.81157227 4.09726562 8.76782227 3.88476562 C11.95532227 3.50976562 11.95532227 3.50976562 13.75610352 4.51757812 C18.68322292 8.5478985 22.52379932 12.9331584 23.30618286 19.41781616 C23.41769015 22.98489566 23.40467484 26.53125041 23.34594727 30.09960938 C23.34028748 31.39927139 23.33462769 32.69893341 23.32879639 34.03797913 C23.3136143 37.47249825 23.27439921 40.90632735 23.22998047 44.34057617 C23.18886552 47.85325794 23.170751 51.36605257 23.15063477 54.87890625 C23.10789568 61.7561406 23.03973656 68.63291987 22.95532227 75.50976562 C21.63532227 75.50976562 20.31532227 75.50976562 18.95532227 75.50976562 C18.66657227 74.54039062 18.37782227 73.57101562 18.08032227 72.57226562 C17.31317545 69.40312359 17.31317545 69.40312359 14.95532227 68.50976562 C11.98532227 68.17976563 9.01532227 67.84976563 5.95532227 67.50976562 C5.95532227 58.26976562 5.95532227 49.02976562 5.95532227 39.50976562 C-9.88467773 39.50976562 -25.72467773 39.50976562 -42.04467773 39.50976562 C-42.04467773 46.43976563 -42.04467773 53.36976563 -42.04467773 60.50976562 C-42.37467773 62.81976563 -42.70467773 65.12976563 -43.04467773 67.50976562 C-53.43967773 68.00476563 -53.43967773 68.00476563 -64.04467773 68.50976562 C-64.70467773 70.81976563 -65.36467773 73.12976563 -66.04467773 75.50976562 C-71.32467773 75.50976562 -76.60467773 75.50976562 -82.04467773 75.50976562 C-78.03172042 69.98813181 -73.82082945 64.93969304 -69.10717773 60.00976562 C-67.86409833 58.69420157 -66.62189955 57.3778048 -65.38061523 56.06054688 C-64.50614746 55.13363037 -64.50614746 55.13363037 -63.61401367 54.18798828 C-61.23413208 51.64298111 -58.94505303 49.02627348 -56.67358398 46.38476562 C-54.70802685 44.12225381 -52.68794464 41.9128588 -50.66967773 39.69726562 C-47.55938923 36.25598358 -44.57989462 32.74655265 -41.66967773 29.13476562 C-37.99206387 24.58580075 -34.16049676 20.23803542 -30.11352539 16.01708984 C-27.75539372 13.52690932 -25.86506712 11.22653351 -24.01342773 8.30664062 C-17.9108294 -1.1378568 -10.50215182 -1.23514952 0 0 Z " fill="#FBFCFC" transform="translate(645.044677734375,393.490234375)"/>
<path d="M0 0 C15.84 0 31.68 0 48 0 C48 17.49 48 34.98 48 53 C32.16 53 16.32 53 0 53 C0 35.51 0 18.02 0 0 Z " fill="#253745" transform="translate(341,583)"/>
<path d="M0 0 C15.51 0 31.02 0 47 0 C47 15.84 47 31.68 47 48 C31.49 48 15.98 48 0 48 C0 32.16 0 16.32 0 0 Z " fill="#213441" transform="translate(555,513)"/>
<path d="M0 0 C43.56 0 87.12 0 132 0 C132 2.64 132 5.28 132 8 C88.44 8 44.88 8 0 8 C0 5.36 0 2.72 0 0 Z " fill="#31414E" transform="translate(555,617)"/>
<path d="M0 0 C43.56 0 87.12 0 132 0 C132 2.64 132 5.28 132 8 C88.44 8 44.88 8 0 8 C0 5.36 0 2.72 0 0 Z " fill="#334552" transform="translate(555,597)"/>
<path d="M0 0 C43.56 0 87.12 0 132 0 C132 2.64 132 5.28 132 8 C88.44 8 44.88 8 0 8 C0 5.36 0 2.72 0 0 Z " fill="#32434F" transform="translate(555,577)"/>
<path d="M0 0 C15.18 0 30.36 0 46 0 C46 9.24 46 18.48 46 28 C42.7 28 39.4 28 36 28 C35.01 25.69 34.02 23.38 33 21 C22.11 20.67 11.22 20.34 0 20 C0 13.4 0 6.8 0 0 Z " fill="#223948" transform="translate(604,433)"/>
<path d="M0 0 C32.67 0 65.34 0 99 0 C99 2.64 99 5.28 99 8 C66.33 8 33.66 8 0 8 C0 5.36 0 2.72 0 0 Z " fill="#354755" transform="translate(555,637)"/>
<path d="M0 0 C24.09 0 48.18 0 73 0 C73 2.64 73 5.28 73 8 C48.91 8 24.82 8 0 8 C0 5.36 0 2.72 0 0 Z " fill="#334653" transform="translate(614,533)"/>
<path d="M0 0 C24.09 0 48.18 0 73 0 C73 2.64 73 5.28 73 8 C48.91 8 24.82 8 0 8 C0 5.36 0 2.72 0 0 Z " fill="#31434F" transform="translate(614,513)"/>
<path d="M0 0 C23.76 0 47.52 0 72 0 C72 2.64 72 5.28 72 8 C48.24 8 24.48 8 0 8 C0 5.36 0 2.72 0 0 Z " fill="#334451" transform="translate(615,553)"/>
<path d="M0 0 C20.46 0 40.92 0 62 0 C62 2.64 62 5.28 62 8 C41.54 8 21.08 8 0 8 C0 5.36 0 2.72 0 0 Z " fill="#324552" transform="translate(555,657)"/>
<path d="M0 0 C2 2 2 2 2.44213867 4.26416016 C1.81744034 8.12963201 -0.38783137 10.12388997 -3.07421875 12.7734375 C-3.59506546 13.30143951 -4.11591217 13.82944153 -4.65254211 14.3734436 C-5.75520162 15.48387462 -6.86428271 16.58796079 -7.97924805 17.68603516 C-9.6837354 19.3712779 -11.35684049 21.08381456 -13.02929688 22.80078125 C-14.10499929 23.87677398 -15.18241819 24.95105401 -16.26171875 26.0234375 C-16.76088303 26.53788422 -17.2600473 27.05233093 -17.77433777 27.58236694 C-20.12011984 29.85151359 -21.33656412 31.01077576 -24.67553711 30.95654297 C-28.0450056 29.56996829 -30.35764656 27.30065176 -32.875 24.75 C-33.38546875 24.27175781 -33.8959375 23.79351563 -34.421875 23.30078125 C-35.8671875 21.859375 -35.8671875 21.859375 -38 19 C-37.93049217 15.52460837 -37.46198995 14.46198995 -35 12 C-31.23872509 12.10165608 -30.01010816 12.99079034 -27.1875 15.5625 C-26.465625 16.366875 -25.74375 17.17125 -25 18 C-21.74466446 16.58385486 -19.70301907 14.88815736 -17.28515625 12.3046875 C-16.59873047 11.58925781 -15.91230469 10.87382813 -15.20507812 10.13671875 C-13.77462857 8.62672733 -12.35014461 7.1110625 -10.93164062 5.58984375 C-10.24392578 4.87699219 -9.55621094 4.16414062 -8.84765625 3.4296875 C-8.22898682 2.77210449 -7.61031738 2.11452148 -6.97290039 1.43701172 C-4.45923222 -0.39388184 -3.04502531 -0.43335571 0 0 Z " fill="#0AA7E6" transform="translate(686,645)"/>
<path d="M0 0 C4.05676619 2.0283831 6.6394314 4.0213142 10 7 C10 7.33 10 7.66 10 8 C4.72 8 -0.56 8 -6 8 C-4.02 5.36 -2.04 2.72 0 0 Z " fill="#2C4556" transform="translate(635,386)"/>
<path d="M0 0 C0.66 0.66 1.32 1.32 2 2 C-0.97 4.475 -0.97 4.475 -4 7 C-4 4 -4 4 -2 1.8125 C-1.34 1.214375 -0.68 0.61625 0 0 Z " fill="#2CB2E9" transform="translate(682,654)"/>
</svg>
