<?xml version="1.0" encoding="UTF-8"?>
<svg version="1.1" xmlns="http://www.w3.org/2000/svg" width="1024" height="1024">
<path d="M0 0 C337.92 0 675.84 0 1024 0 C1024 337.92 1024 675.84 1024 1024 C686.08 1024 348.16 1024 0 1024 C0 686.08 0 348.16 0 0 Z " fill="#FAFAFA" transform="translate(0,0)"/>
<path d="M0 0 C1.5662292 -0.00302523 3.13245693 -0.00691656 4.69868207 -0.01159257 C8.97749381 -0.02183362 13.25622139 -0.01970071 17.5350399 -0.01541197 C22.15958931 -0.01293762 26.78411884 -0.02196774 31.40866089 -0.02944946 C40.45938962 -0.04217922 49.51008866 -0.04399227 58.56082484 -0.0416492 C65.92075395 -0.0398638 73.28067407 -0.04162044 80.64060211 -0.04587364 C81.68941815 -0.04646883 82.73823419 -0.04706402 83.81883253 -0.04767724 C85.94974969 -0.04888904 88.08066685 -0.05010318 90.211584 -0.05131962 C110.18246387 -0.06218871 130.15332683 -0.06003577 150.12420765 -0.05393478 C168.37486688 -0.04876729 186.6254727 -0.06001776 204.87612137 -0.07903299 C223.63588296 -0.09842813 242.3956193 -0.10666438 261.15539098 -0.10290974 C271.67950654 -0.1010001 282.20357666 -0.10346205 292.72768402 -0.11762428 C301.68798441 -0.12956048 310.64821141 -0.13091796 319.60851285 -0.11883412 C324.17544621 -0.11296089 328.74224548 -0.1118027 333.30916977 -0.12383652 C337.49895876 -0.13474777 341.68850253 -0.13153024 345.87828031 -0.11757483 C347.3849378 -0.11494223 348.89161484 -0.11724869 350.39825305 -0.1253107 C360.44941598 -0.17531339 369.58067711 1.0405617 379.35186768 3.26069641 C380.85027718 3.52005898 382.34988357 3.77290715 383.85186768 4.01069641 C407.26269421 9.41319484 429.81363727 28.68733801 442.47686768 48.38569641 C457.37897842 73.86445434 459.11014031 99.65418407 458.97617292 128.55370903 C458.9605455 133.12901713 458.97419848 137.70425988 458.98391724 142.27957153 C458.9983434 151.20908564 458.98631333 160.1383701 458.96480399 169.06786232 C458.94063572 179.48851345 458.94251791 189.90911374 458.9451099 200.32978667 C458.94878883 218.93115286 458.92806907 237.53241171 458.89385986 256.13374329 C458.86074712 274.14581512 458.84660777 292.15777444 458.85284424 310.1698761 C458.85962035 329.83699721 458.85711558 349.5040714 458.83748484 369.17118561 C458.83644535 370.21267552 458.83540587 371.25416544 458.83433488 372.32721565 C458.83224416 374.41838737 458.83013319 376.50955906 458.82800171 378.60073074 C458.82113132 385.84963233 458.82043255 393.09851939 458.82188416 400.34742355 C458.82332925 409.18698545 458.81353458 418.02645612 458.78993779 426.86598782 C458.77814389 431.36843346 458.77090834 435.87075254 458.77677536 440.37321281 C458.78200119 444.50589957 458.77307172 448.63832051 458.75350076 452.77096201 C458.74881666 454.25440911 458.74898832 455.7378826 458.75491112 457.22132526 C458.86616629 488.10443142 448.90332658 516.19879704 427.41436768 538.57319641 C416.81998817 548.78743438 404.31022891 556.45836279 390.72686768 562.01069641 C390.06614258 562.29243713 389.40541748 562.57417786 388.72467041 562.86445618 C375.50773942 568.01504761 360.88634659 568.71056964 346.86868286 568.64164734 C345.29712353 568.64511593 343.72556664 568.64988846 342.15401471 568.65582907 C337.89290661 568.6682037 333.6320034 568.66223148 329.37089515 568.65287042 C324.75326219 568.64602405 320.1356621 568.65658849 315.51803589 568.66481018 C306.49531999 568.67809001 297.47267932 568.67529575 288.44996057 568.66657226 C281.11261117 568.65977419 273.77528272 568.65888813 266.43793106 568.66214371 C265.39035217 568.66260341 264.34277329 568.66306311 263.26344959 568.66353673 C261.13478889 568.66449599 259.00612821 568.66546863 256.87746753 568.66645451 C236.95802008 568.67499133 217.03861418 568.6652007 197.11917354 568.64905341 C180.05397659 568.63564786 162.98884087 568.63798361 145.92364502 568.65180969 C126.06833328 568.66788895 106.21305786 568.67417165 86.35774052 568.6649729 C84.23788461 568.66401733 82.11802869 568.66307422 79.99817276 568.66214371 C78.43397167 568.66144947 78.43397167 568.66144947 76.83817055 568.6607412 C69.51471296 568.65815864 62.19127855 568.66250635 54.86782455 568.66958237 C45.93589754 568.67802351 37.00404954 568.67566232 28.0721315 568.65974014 C23.52123123 568.65189309 18.97046239 568.64870452 14.41956329 568.65868759 C10.24356513 568.66770929 6.0678187 568.6625804 1.89184298 568.64675494 C0.39143582 568.6434385 -1.10899317 568.64502924 -2.60938598 568.6523823 C-31.46500222 568.78280953 -56.5427789 558.75404265 -77.64813232 539.26069641 C-78.32231201 538.6561261 -78.9964917 538.05155579 -79.69110107 537.42866516 C-97.26499707 520.90035566 -108.21895265 495.24722209 -109.92454994 471.39510286 C-110.0340509 467.27292366 -110.05385493 463.16092264 -110.03581238 459.0378418 C-110.03999606 457.45792207 -110.04547919 455.87800535 -110.05213219 454.29809409 C-110.06647005 449.9998715 -110.06237897 445.70184254 -110.05496538 441.40360987 C-110.05020683 436.75111616 -110.06276719 432.09866275 -110.07298279 427.44618225 C-110.090124 418.34819334 -110.09102051 409.25027364 -110.08576988 400.15227278 C-110.08171807 392.7524156 -110.08318373 385.35257877 -110.08851814 377.95272255 C-110.08926656 376.89698856 -110.09001499 375.84125456 -110.09078609 374.75352863 C-110.09231767 372.6083638 -110.09385601 370.46319897 -110.09540106 368.31803415 C-110.10910928 348.22924515 -110.10370031 328.14049516 -110.09221584 308.05170707 C-110.08228613 289.70308018 -110.09522262 271.35455417 -110.11915004 253.00594284 C-110.14357579 234.13190346 -110.15314031 215.25791098 -110.14649731 196.38385612 C-110.1430127 185.80100655 -110.14518691 175.21823451 -110.16274834 164.63539696 C-110.17751389 155.6262175 -110.17804912 146.61717019 -110.16067743 137.60799321 C-110.15220063 133.01834737 -110.14993594 128.42893714 -110.16532898 123.83930397 C-110.17928603 119.62539441 -110.17427357 115.41191984 -110.15508974 111.19803474 C-110.15136285 109.686061 -110.15415427 108.17405148 -110.16470139 106.66210993 C-110.36028673 76.43892075 -98.69754506 50.98722747 -77.96063232 29.19819641 C-63.58454992 15.24233795 -46.21918584 6.37021077 -26.64813232 2.26069641 C-25.91451123 2.09391712 -25.18089014 1.92713784 -24.4250381 1.75530463 C-16.28550808 0.06032647 -8.27217921 -0.02278652 0 0 Z " fill="#263B4B" transform="translate(337.64813232421875,227.7393035888672)"/>
<path d="M0 0 C99.99 0 199.98 0 303 0 C303 19.8 303 39.6 303 60 C317.40448222 59.84221721 317.40448222 59.84221721 331.80834961 59.63964844 C333.63133806 59.62795198 335.45433707 59.61776242 337.27734375 59.609375 C338.66572449 59.5786792 338.66572449 59.5786792 340.08215332 59.54736328 C347.31658893 59.54353098 353.76057363 60.94249794 359.15625 66.03515625 C359.5996875 66.70417969 360.043125 67.37320313 360.5 68.0625 C360.9640625 68.73410156 361.428125 69.40570313 361.90625 70.09765625 C364.00060399 73.74033623 364.1238369 76.71140582 364.12025452 80.82756042 C364.12231651 82.65120369 364.12231651 82.65120369 364.12442017 84.51168823 C364.12088104 85.86090112 364.11724624 87.21011377 364.11352539 88.55932617 C364.11324335 89.97846983 364.11340158 91.39761363 364.1139679 92.8167572 C364.11425522 96.67184125 364.10836894 100.52689429 364.10139394 104.38197112 C364.09514963 108.40986331 364.09455575 112.43775618 364.09336853 116.46565247 C364.0902584 124.09415878 364.08204928 131.7226508 364.07201904 139.35115081 C364.06084805 148.03545463 364.05534496 156.71975913 364.05032361 165.40406835 C364.03986642 183.26938701 364.02227311 201.13469236 364 219 C365.98 219 367.96 219 370 219 C370.50212051 225.02544609 369.12689062 228.85130461 366 234 C365.67 234.33 365.34 234.66 365 235 C364.72717524 237.35163078 364.48211793 239.70650298 364.25 242.0625 C363.36605573 249.33124833 361.99510708 254.46751501 356.41386414 259.40246582 C348.41899248 264.73174064 339.17336494 263.68392229 329.95703125 263.59375 C328.1009682 263.59203672 326.24490273 263.59210679 324.38883972 263.59387207 C320.51297628 263.59222443 316.63769516 263.57362435 312.76196289 263.54199219 C307.80216512 263.50223306 302.84312573 263.49796012 297.88319874 263.50545502 C294.05609732 263.50852809 290.22916541 263.49639356 286.40210533 263.47932434 C284.5733312 263.47231163 282.74453788 263.4691677 280.9157505 263.47001648 C278.35990431 263.46821293 275.80495759 263.44678672 273.24926758 263.41992188 C272.12464111 263.42431778 272.12464111 263.42431778 270.97729492 263.42880249 C264.12739109 263.31805946 258.82301458 260.82301458 254 256 C245.45391846 236.77131653 250 214.04228547 250 193 C167.5 193 85 193 0 193 C0 129.31 0 65.62 0 0 Z " fill="#FCFDFD" transform="translate(343,394)"/>
<path d="M0 0 C31.68 0 63.36 0 96 0 C96 46.86 96 93.72 96 142 C64.32 142 32.64 142 0 142 C0 95.14 0 48.28 0 0 Z " fill="#FBFCFC" transform="translate(602,484)"/>
<path d="M0 0 C0.77806503 -0.00686325 1.55613007 -0.0137265 2.35777283 -0.02079773 C4.91660075 -0.03902114 7.47481283 -0.03523422 10.03369141 -0.02954102 C11.82199298 -0.03410546 13.6102928 -0.03941182 15.39859009 -0.04542542 C19.14258967 -0.05434814 22.88637586 -0.05194356 26.63037109 -0.04199219 C31.41412957 -0.03051255 36.19714877 -0.05070267 40.98081017 -0.07990932 C44.67329543 -0.09831064 48.3656049 -0.0979709 52.05812454 -0.0922718 C53.82107199 -0.09211902 55.58403168 -0.09812758 57.34693527 -0.11056328 C59.81899263 -0.12554369 62.2897018 -0.11474528 64.76171875 -0.09765625 C65.84055077 -0.1121582 65.84055077 -0.1121582 66.94117737 -0.12695312 C73.12797279 -0.03798659 78.0088826 1.63164295 82.60037708 5.87287235 C87.7137751 12.42867973 86.70328714 20.90985301 86.64135742 28.79077148 C86.64650094 30.45383466 86.65378548 32.11689237 86.66304016 33.77993774 C86.68150741 38.28006422 86.66864533 42.77959592 86.64894986 47.27969742 C86.63252329 51.99783225 86.64138183 56.7159306 86.64646912 61.43408203 C86.6509856 69.35613466 86.63514788 77.27795084 86.60717773 85.19995117 C86.57512785 94.34776254 86.57514304 103.49514752 86.5923925 112.64298916 C86.60827807 121.45724754 86.60151098 130.2713502 86.58445549 139.08560181 C86.57759821 142.83025275 86.57860384 146.57477837 86.58600044 150.31942749 C86.59368396 154.73223769 86.58147005 159.14456497 86.55415154 163.55729294 C86.54728823 165.17293235 86.54714763 166.78861705 86.55436707 168.40425491 C86.62270572 185.6952804 86.62270572 185.6952804 80.48379707 191.96238613 C76.0762639 195.60239304 72.17611942 196.12198741 66.59985352 196.03515625 C65.38382698 196.04588921 65.38382698 196.04588921 64.14323425 196.05683899 C61.48243638 196.07365039 58.82334135 196.05437069 56.16259766 196.03295898 C54.30367392 196.0337883 52.44475027 196.03625006 50.58583069 196.04026794 C46.69802669 196.04312066 42.81080048 196.02847496 38.9230957 196.00097656 C33.94742897 195.96687085 28.97279331 195.97292488 23.99707699 195.99163914 C20.16137645 196.00222186 16.32591464 195.99326016 12.49023628 195.97825432 C10.65587638 195.97308299 8.82149145 195.97354155 6.98713493 195.97979927 C4.42130015 195.9852679 1.85692775 195.96482577 -0.70874023 195.9375 C-1.4616333 195.94402588 -2.21452637 195.95055176 -2.99023438 195.95727539 C-9.0031032 195.84873768 -12.25415849 194.15123811 -16.44581413 189.94181156 C-21.67904203 183.28541631 -20.69888349 174.8594677 -20.65258789 166.83374023 C-20.66100894 165.15096911 -20.67153754 163.46820743 -20.68400574 161.78546143 C-20.71099332 157.23165599 -20.70636947 152.67839978 -20.69430518 148.12454987 C-20.68715994 144.31734345 -20.69568249 140.51023771 -20.70421058 136.70303917 C-20.72414311 127.71982076 -20.71861524 118.73686861 -20.6965332 109.75366211 C-20.67416434 100.49666529 -20.69177877 91.24036566 -20.72958249 81.98343468 C-20.76084193 74.02392461 -20.76872489 66.06463008 -20.75762874 58.1050663 C-20.75115018 53.35625112 -20.75310338 48.60783824 -20.77695274 43.85906982 C-20.79823909 39.39357045 -20.79018298 34.92905323 -20.75985909 30.46361542 C-20.75354376 28.8286177 -20.75736339 27.19354334 -20.7722702 25.55860138 C-20.89953321 10.36490948 -20.89953321 10.36490948 -15.66617489 4.8003931 C-10.70687186 0.66966292 -6.29241096 -0.03916411 0 0 Z M-14.98974609 26.40405273 C-14.98974609 73.26405273 -14.98974609 120.12405273 -14.98974609 168.40405273 C16.69025391 168.40405273 48.37025391 168.40405273 81.01025391 168.40405273 C81.01025391 121.54405273 81.01025391 74.68405273 81.01025391 26.40405273 C49.33025391 26.40405273 17.65025391 26.40405273 -14.98974609 26.40405273 Z " fill="#293C4A" transform="translate(616.98974609375,457.595947265625)"/>
<path d="M0 0 C50.16 0 100.32 0 152 0 C152.99 3.465 152.99 3.465 154 7 C157.14950058 8.57475029 160.5241314 8.14726536 163.98217773 8.14526367 C165.21896774 8.15030159 165.21896774 8.15030159 166.48074341 8.15544128 C169.21504205 8.16496508 171.94927954 8.16689508 174.68359375 8.16796875 C176.57926967 8.17118023 178.47494534 8.17454421 180.37062073 8.17805481 C184.34775365 8.18404958 188.32486483 8.18589434 192.30200195 8.18530273 C197.40451156 8.18520107 202.50688215 8.19885651 207.60935879 8.21607494 C211.52550398 8.22717943 215.4416154 8.22922242 219.35777473 8.22869301 C221.23928367 8.22987535 223.12079342 8.23431126 225.00228691 8.24202538 C227.63110031 8.25179444 230.25960971 8.24895954 232.88842773 8.24291992 C233.66931259 8.24853943 234.45019745 8.25415894 235.25474548 8.25994873 C239.04581224 8.23775335 240.76587694 8.15608204 244 6 C244.66 4.02 245.32 2.04 246 0 C259.86 0 273.72 0 288 0 C288 7.26 288 14.52 288 22 C252.94138 22.09040878 217.88279739 22.16202939 182.82408538 22.20426132 C178.68594605 22.2092642 174.54780695 22.21444148 170.40966797 22.21972656 C169.17391425 22.22130043 169.17391425 22.22130043 167.9131958 22.22290608 C154.57030201 22.24031566 141.22747709 22.27185638 127.88462417 22.30861118 C114.19562927 22.34600524 100.50667047 22.3682326 86.8176266 22.37635398 C78.36938525 22.38184495 69.92133856 22.3991933 61.47315712 22.43166587 C55.68146504 22.45279483 49.88987372 22.45920373 44.09814589 22.45400551 C40.75550334 22.45144111 37.41347583 22.45757685 34.07084656 22.4768219 C30.44680913 22.49666775 26.82361052 22.4919579 23.19955444 22.48101807 C22.14312976 22.49266943 21.08670508 22.5043208 19.99826753 22.51632524 C12.94812457 22.45864 9.41863856 21.39427772 4.35546875 16.3671875 C-0.72921967 9.87103039 0 9.88244577 0 0 Z " fill="#FCFDFC" transform="translate(297,613)"/>
<path d="M0 0 C1.11373509 -0.00569124 2.22747018 -0.01138248 3.37495482 -0.01724619 C5.22568604 -0.019016 5.22568604 -0.019016 7.11380577 -0.02082157 C8.41660685 -0.02590939 9.71940793 -0.03099721 11.06168783 -0.03623921 C14.69022452 -0.05017248 18.31875116 -0.05773658 21.94730783 -0.0642122 C25.05663293 -0.07057559 28.16594145 -0.0806468 31.27525623 -0.09077286 C41.5215603 -0.12412641 51.76787446 -0.14562457 62.01421505 -0.16397271 C64.68183057 -0.16876642 67.34944567 -0.1737499 70.01706076 -0.17877793 C86.57700395 -0.20974958 103.13695062 -0.23643968 119.69691467 -0.25319672 C123.53423252 -0.25714633 127.37155031 -0.2611493 131.20886803 -0.2652216 C132.16263527 -0.26622996 133.11640251 -0.26723832 134.09907179 -0.26827724 C149.54861782 -0.28528314 164.99800364 -0.32638989 180.44747145 -0.37724458 C196.30390694 -0.42901007 212.16026002 -0.45813764 228.0167793 -0.4653936 C236.92173049 -0.47005741 245.82641942 -0.48482467 254.731287 -0.5251379 C262.3156171 -0.55943082 269.89963763 -0.57338034 277.48404081 -0.56071376 C281.35355603 -0.55488488 285.22241652 -0.55876562 289.09183311 -0.5888834 C293.2888979 -0.62128458 297.48452888 -0.60710344 301.68167686 -0.58844852 C302.90211335 -0.60524345 304.12254983 -0.62203838 305.37996924 -0.63934225 C314.68613991 -0.53582247 318.86708131 2.20427962 325.25427818 8.63053036 C327.73438761 14.33986618 327.26681853 20.15378362 327.16931725 26.2882452 C327.16184854 27.66971674 327.15615858 29.05119894 327.15216637 30.4326849 C327.13695914 34.05297208 327.09772142 37.6726082 327.05335045 41.29263973 C327.01229056 44.99290824 326.99413262 48.69328286 326.97400475 52.39371395 C326.93122091 59.64270734 326.86303104 66.89116599 326.77869225 74.1398077 C325.45869225 74.1398077 324.13869225 74.1398077 322.77869225 74.1398077 C322.77504662 73.4014468 322.77140099 72.6630859 322.76764488 71.90235043 C322.72970686 64.92852428 322.67278828 57.95508056 322.59478951 50.98159504 C322.55535623 47.39678199 322.52314787 43.81221303 322.50769615 40.22721004 C322.4925015 36.7644803 322.45800817 33.30242178 322.41038322 29.83999157 C322.38842472 27.88261029 322.38622092 25.92503952 322.3843441 23.96753597 C322.37660663 15.17837407 322.37660663 15.17837407 317.77869225 8.1398077 C311.9718728 4.14184869 305.9066083 4.72122648 299.13219261 4.75885677 C297.8442749 4.7541768 296.55635718 4.74949683 295.22941166 4.74467504 C291.66104507 4.73216014 288.09291941 4.73833753 284.52455199 4.7476337 C280.67379354 4.7544218 276.8230765 4.74394419 272.97232628 4.73569393 C265.43155553 4.72235223 257.89087435 4.72523616 250.35010009 4.73393185 C244.22232233 4.74070577 238.09456968 4.74162639 231.96678925 4.7383604 C231.09480701 4.73790071 230.22282477 4.73744101 229.32441883 4.73696738 C227.55304168 4.73600821 225.78166454 4.73503557 224.01028741 4.7340496 C207.39942991 4.72549456 190.78862207 4.7353319 174.17777271 4.7514507 C159.92143001 4.76485635 145.66516058 4.76252399 131.4088192 4.74869442 C114.85603172 4.73264469 98.30328776 4.72631606 81.75049359 4.73553121 C79.98592222 4.73648687 78.22135086 4.73742998 76.45677948 4.7383604 C75.58855823 4.73882323 74.72033699 4.73928606 73.825806 4.73976291 C67.70408227 4.74235444 61.58238612 4.73797833 55.46066666 4.73092175 C48.00228781 4.72251339 40.54400369 4.72477295 33.08563571 4.74076398 C29.27944572 4.74865532 25.47341376 4.75172365 21.66722488 4.74181652 C17.54408137 4.73124657 13.42133788 4.74385618 9.29820824 4.75885677 C8.09121645 4.75216461 6.88422466 4.74547244 5.64065737 4.73857749 C3.98537038 4.75031235 3.98537038 4.75031235 2.29664326 4.76228428 C1.34489906 4.76277134 0.39315487 4.76325839 -0.58743006 4.76376021 C-4.7113607 5.35254752 -7.36206108 7.11240674 -10.00888729 10.27721596 C-11.68229143 14.22821565 -11.64499267 17.69099233 -11.62003517 21.9412756 C-11.62667686 22.82546169 -11.63331856 23.70964779 -11.64016151 24.6206274 C-11.6588465 27.59238756 -11.65616182 30.56374715 -11.6536808 33.53555965 C-11.66278407 35.69883285 -11.6731965 37.86210086 -11.6848135 40.02536201 C-11.71232304 45.8221689 -11.72189756 51.61887615 -11.72778511 57.41574001 C-11.73601752 62.85388624 -11.76038692 68.29191318 -11.78344154 73.73001766 C-11.84146195 89.63739675 -11.87354739 105.54486188 -11.90880775 121.4523077 C-12.06349525 174.7576202 -12.06349525 174.7576202 -12.22130775 229.1398077 C72.91869225 229.1398077 158.05869225 229.1398077 245.77869225 229.1398077 C245.77869225 230.7898077 245.77869225 232.4398077 245.77869225 234.1398077 C158.98869225 234.1398077 72.19869225 234.1398077 -17.22130775 234.1398077 C-17.28318275 198.1698077 -17.34505775 162.1998077 -17.40880775 125.1398077 C-17.43611977 113.77929989 -17.46343178 102.41879208 -17.49157143 90.71402645 C-17.50512123 76.84879208 -17.50512123 76.84879208 -17.50763893 70.35929012 C-17.51043554 65.82376363 -17.52168467 61.28834233 -17.53803444 56.75284481 C-17.55861618 50.9667058 -17.56478036 45.18071968 -17.56052458 39.39454746 C-17.56141446 37.27155165 -17.56736068 35.14855048 -17.57895315 33.02558613 C-17.59389662 30.15550819 -17.59027014 27.28602258 -17.5820713 24.41593075 C-17.5908093 23.58735561 -17.59954729 22.75878048 -17.60855007 21.90509701 C-17.56115174 15.72274403 -16.61233533 9.9462031 -12.4674015 5.08121395 C-11.87056557 4.62617489 -11.27372963 4.17113583 -10.65880775 3.7023077 C-10.05939369 3.22922176 -9.45997963 2.75613583 -8.8424015 2.26871395 C-5.74464549 0.11148145 -3.74592385 0.01112834 0 0 Z " fill="#EBEEEF" transform="translate(339.2213077545166,373.86019229888916)"/>
<path d="M0 0 C7.59 0 15.18 0 23 0 C23 31.02 23 62.04 23 94 C15.41 94 7.82 94 0 94 C0 62.98 0 31.96 0 0 Z " fill="#04A2E3" transform="translate(496,463)"/>
<path d="M0 0 C-0.60785403 8.73390265 -1.68141666 17.3459967 -3 26 C-6.95008059 25.31620454 -9.63457018 24.21156817 -13 22 C-13.22558594 22.54527344 -13.45117188 23.09054687 -13.68359375 23.65234375 C-15.39143019 26.69806986 -17.67051771 29.05323972 -20.0625 31.5625 C-23.65112328 35.39465791 -27.09644611 39.26920432 -30.375 43.375 C-33.90718521 47.76807624 -37.63903868 51.89908252 -41.5 56 C-47.56952494 62.44892514 -53.34378499 69.08723378 -58.63671875 76.19921875 C-59.12785156 76.83472656 -59.61898437 77.47023438 -60.125 78.125 C-60.51945312 78.66382813 -60.91390625 79.20265625 -61.3203125 79.7578125 C-63.38888959 81.28759742 -65.28718928 82.10019952 -67.85546875 82.37402344 C-72.97193936 81.48166996 -77.03028624 77.25931126 -80.9375 74.0625 C-81.90751953 73.29486328 -82.87753906 72.52722656 -83.87695312 71.73632812 C-86.26605713 69.8415215 -88.63892628 67.9295376 -91 66 C-94.6425656 67.70641849 -96.97975319 69.74318198 -99.8125 72.625 C-100.62332031 73.44226563 -101.43414062 74.25953125 -102.26953125 75.1015625 C-104.34127028 77.30074757 -106.33889679 79.51945034 -108.31640625 81.80078125 C-112.12698352 86.18085026 -116.07601576 90.40253226 -120.125 94.5625 C-120.81464844 95.29791016 -121.50429688 96.03332031 -122.21484375 96.79101562 C-122.88902344 97.48001953 -123.56320312 98.16902344 -124.2578125 98.87890625 C-125.15717529 99.81585327 -125.15717529 99.81585327 -126.07470703 100.77172852 C-128 102 -128 102 -130.60888672 101.88256836 C-133 101 -133 101 -135 98 C-134.71658025 94.07551699 -133.6118503 92.11585572 -130.84472656 89.390625 C-130.18023499 88.72643555 -129.51574341 88.06224609 -128.83111572 87.37792969 C-128.10825378 86.67571289 -127.38539185 85.97349609 -126.640625 85.25 C-125.89923279 84.51426758 -125.15784058 83.77853516 -124.39398193 83.02050781 C-122.02188415 80.67077832 -119.63628667 78.33530997 -117.25 76 C-115.65793896 74.42800968 -114.06678235 72.85510283 -112.4765625 71.28125 C-108.91032952 67.75475924 -105.33706442 64.235685 -101.75003052 60.73034668 C-100.19511403 59.19291945 -98.6790265 57.62577985 -97.16455078 56.04882812 C-95 54 -95 54 -92.4765625 53.46875 C-89.31761251 54.14637965 -87.80901009 55.38346949 -85.375 57.5 C-80.10317835 61.94611465 -74.60844 65.99092502 -69 70 C-65.94773166 67.64331662 -63.2344026 65.32365965 -60.75 62.375 C-58.04273447 59.2086764 -55.29482655 56.08951914 -52.5 53 C-47.66772724 47.63983189 -42.90181144 42.22990426 -38.21484375 36.7421875 C-37.71154541 36.15308594 -37.20824707 35.56398438 -36.68969727 34.95703125 C-35.64922467 33.73879028 -34.60934506 32.52004259 -33.57006836 31.30078125 C-29.66352748 26.73256423 -25.6495512 22.28427114 -21.546875 17.890625 C-19.78892074 16.14914802 -19.78892074 16.14914802 -20 14 C-21.96147874 12.61061923 -23.96166576 11.2739589 -26 10 C-25.67 9.01 -25.34 8.02 -25 7 C-23.0222168 6.0168457 -23.0222168 6.0168457 -20.44921875 5.17578125 C-19.52302734 4.86962891 -18.59683594 4.56347656 -17.64257812 4.24804688 C-16.66740234 3.93931641 -15.69222656 3.63058594 -14.6875 3.3125 C-13.72392578 2.99216797 -12.76035156 2.67183594 -11.76757812 2.34179688 C-7.60224777 0.98799234 -4.42380957 0 0 0 Z " fill="#08A4E5" transform="translate(518,419)"/>
<path d="M0 0 C7.92 0 15.84 0 24 0 C24 18.15 24 36.3 24 55 C16.08 55 8.16 55 0 55 C0 36.85 0 18.7 0 0 Z " fill="#2B3E4C" transform="translate(458,503)"/>
<path d="M0 0 C7.92 0 15.84 0 24 0 C24 16.5 24 33 24 50 C16.08 50 8.16 50 0 50 C0 33.5 0 17 0 0 Z " fill="#2C3E4B" transform="translate(420,508)"/>
<path d="M0 0 C7.59 0 15.18 0 23 0 C23 9.57 23 19.14 23 29 C15.41 29 7.82 29 0 29 C0 19.43 0 9.86 0 0 Z " fill="#2B3C49" transform="translate(383,529)"/>
<path d="M0 0 C3.63 0 7.26 0 11 0 C11 14.52 11 29.04 11 44 C7.37 44 3.74 44 0 44 C0 29.48 0 14.96 0 0 Z " fill="#0AA3E6" transform="translate(669,537)"/>
<path d="M0 0 C-0.33 3.96 -0.66 7.92 -1 12 C-2.32 11.67 -3.64 11.34 -5 11 C-7.24039119 12.59049636 -7.24039119 12.59049636 -9.3125 14.9375 C-10.10269531 15.7728125 -10.89289062 16.608125 -11.70703125 17.46875 C-14.22178198 20.24482917 -16.72005786 23.0290968 -19.16015625 25.87109375 C-22.70580241 29.97380533 -26.3644673 33.9770069 -30 38 C-33.95483752 37.25413152 -36.16760134 35.47120071 -39.21875 32.9609375 C-40.9468748 31.80589578 -40.9468748 31.80589578 -42.90429688 32.24023438 C-45.4072804 33.14765338 -46.51734026 34.24216585 -48.3125 36.1953125 C-48.91320312 36.82824219 -49.51390625 37.46117187 -50.1328125 38.11328125 C-51.38150482 39.45862967 -52.6262825 40.80762172 -53.8671875 42.16015625 C-54.46789062 42.79050781 -55.06859375 43.42085937 -55.6875 44.0703125 C-56.49767578 44.94840576 -56.49767578 44.94840576 -57.32421875 45.84423828 C-59 47 -59 47 -61.20703125 46.68310547 C-61.79871094 46.45768066 -62.39039063 46.23225586 -63 46 C-62.11567347 40.34934365 -57.62443951 37.07154556 -53.75 33.1875 C-52.98558594 32.38634766 -52.22117187 31.58519531 -51.43359375 30.75976562 C-50.68722656 30.00759766 -49.94085937 29.25542969 -49.171875 28.48046875 C-48.4922168 27.78848389 -47.81255859 27.09649902 -47.11230469 26.38354492 C-45 25 -45 25 -42.36547852 25.20800781 C-39.91138403 26.02966975 -38.23659747 26.99554311 -36.1875 28.5625 C-35.58292969 29.01753906 -34.97835937 29.47257813 -34.35546875 29.94140625 C-33.90816406 30.29074219 -33.46085938 30.64007812 -33 31 C-29.95606633 29.65045237 -27.97278312 28.17843734 -25.72265625 25.734375 C-25.12646484 25.09113281 -24.53027344 24.44789063 -23.91601562 23.78515625 C-23.30435547 23.11355469 -22.69269531 22.44195313 -22.0625 21.75 C-21.45470703 21.09386719 -20.84691406 20.43773437 -20.22070312 19.76171875 C-13.53502198 13.55198414 -13.53502198 13.55198414 -10 6 C-10.66 5.67 -11.32 5.34 -12 5 C-12 4.34 -12 3.68 -12 3 C-10.75336669 2.49166409 -9.50250613 1.99368855 -8.25 1.5 C-7.55390625 1.2215625 -6.8578125 0.943125 -6.140625 0.65625 C-4 0 -4 0 0 0 Z " fill="#13AAEA" transform="translate(679,517)"/>
<path d="M0 0 C3.63 0 7.26 0 11 0 C11 8.25 11 16.5 11 25 C7.37 25 3.74 25 0 25 C0 16.75 0 8.5 0 0 Z " fill="#2B3B48" transform="translate(651,556)"/>
<path d="M0 0 C3.63 0 7.26 0 11 0 C11 7.59 11 15.18 11 23 C7.37 23 3.74 23 0 23 C0 15.41 0 7.82 0 0 Z " fill="#2F3F4D" transform="translate(634,558)"/>
<path d="M0 0 C4.05558807 1.32728337 5.34349656 2.43955395 7.4375 6.125 C8 8.625 8 8.625 7.4375 11.125 C5 13.75 5 13.75 2.4375 16.125 C2.1075 17.115 1.7775 18.105 1.4375 19.125 C0.1175 19.125 -1.2025 19.125 -2.5625 19.125 C-2.8925 18.135 -3.2225 17.145 -3.5625 16.125 C-4.408125 15.361875 -5.25375 14.59875 -6.125 13.8125 C-8.5625 11.125 -8.5625 11.125 -9.1875 8.125 C-8.06349817 2.72979122 -5.54235257 0.19446851 0 0 Z " fill="#24ADEA" transform="translate(545.5625,426.875)"/>
<path d="M0 0 C4.10703441 0.85563217 5.55401113 2.24378009 8 5.625 C8.63007693 9.61548721 8.63021887 11.64185857 6.4375 15.0625 C3.01685857 17.25521887 0.99048721 17.25507693 -3 16.625 C-6.38121991 14.17901113 -7.76936783 12.73203441 -8.625 8.625 C-7.58039389 3.61089068 -5.01410932 1.04460611 0 0 Z " fill="#F4F5F5" transform="translate(650,630.375)"/>
<path d="M0 0 C3.27248936 2.47254751 4.79864772 3.92612115 5.5625 8 C4.84909176 11.80484394 3.9236459 13.4511805 1 16 C-2.4375 16.6875 -2.4375 16.6875 -6 16 C-9 13.375 -9 13.375 -11 10 C-11.125 6.875 -11.125 6.875 -10 4 C-6.90813196 0.73636151 -4.52849739 -1.01891191 0 0 Z " fill="#16ADED" transform="translate(624,427)"/>
<path d="M0 0 C3 2.0625 3 2.0625 5 5 C5 8.51955419 4.63108355 10.84920059 2.9375 13.9375 C-0.27568922 15.69957151 -3.49721385 15.7470731 -7 15 C-10.02791041 12.42627616 -10.86162709 10.84753406 -11.5 6.9375 C-11 4 -11 4 -9.4375 1.625 C-6.02544071 -0.64970619 -4.02388226 -0.63534983 0 0 Z " fill="#10A4E5" transform="translate(548,538)"/>
<path d="M0 0 C3.63 0 7.26 0 11 0 C11 3.96 11 7.92 11 12 C7.37 12 3.74 12 0 12 C0 8.04 0 4.08 0 0 Z " fill="#283641" transform="translate(616,569)"/>
<path d="M0 0 C9.9 0 19.8 0 30 0 C30.33 1.32 30.66 2.64 31 4 C20.44 4 9.88 4 -1 4 C-0.67 2.68 -0.34 1.36 0 0 Z " fill="#E8EBED" transform="translate(635,469)"/>
<path d="M0 0 C0.99 0.33 1.98 0.66 3 1 C2.649375 1.556875 2.29875 2.11375 1.9375 2.6875 C0.74796387 5.62168913 0.91164294 7.04588797 2 10 C3.96758273 11.36020151 3.96758273 11.36020151 6 12 C6 13.98 6 15.96 6 18 C5.01 18 4.02 18 3 18 C2.67 17.01 2.34 16.02 2 15 C1.154375 14.236875 0.30875 13.47375 -0.5625 12.6875 C-3 10 -3 10 -3.5 6.9375 C-2.96248682 3.77961005 -2.14978703 2.32893595 0 0 Z " fill="#13A9E8" transform="translate(540,428)"/>
<path d="M0 0 C2.5625 0.1875 2.5625 0.1875 4.5625 2.1875 C4.8125 4.6875 4.8125 4.6875 4.5625 7.1875 C3.9025 7.8475 3.2425 8.5075 2.5625 9.1875 C-0.73464793 8.85778521 -2.0601839 8.5648161 -4.4375 6.1875 C-3.71780303 0.28598485 -3.71780303 0.28598485 0 0 Z " fill="#E8F7FB" transform="translate(544.4375,430.8125)"/>
<path d="M0 0 C2.375 0.75 2.375 0.75 3.375 1.75 C3.5625 4.1875 3.5625 4.1875 3.375 6.75 C2.715 7.41 2.055 8.07 1.375 8.75 C-1.75 8.375 -1.75 8.375 -4.625 7.75 C-5.3125 5.4375 -5.3125 5.4375 -5.625 2.75 C-3.9659358 -0.015107 -3.22812218 -0.30744021 0 0 Z " fill="#E6F5FB" transform="translate(545.625,541.25)"/>
<path d="M0 0 C3.125 0.375 3.125 0.375 6 1 C6.04254356 2.99954746 6.04080783 5.00041636 6 7 C5 8 5 8 2 8.125 C-1 8 -1 8 -2 7 C-2.1875 4.5625 -2.1875 4.5625 -2 2 C-1.34 1.34 -0.68 0.68 0 0 Z " fill="#ECF8FC" transform="translate(619,431)"/>
<path d="M0 0 C0.66 0 1.32 0 2 0 C1.67470941 2.92761527 1.40430823 5.32615294 -0.125 7.875 C-3.01986 9.611916 -5.70859897 9.18630572 -9 9 C-9.66 7.68 -10.32 6.36 -11 5 C-7.93109813 3.46554906 -5.29905734 4.45015711 -2 5 C-1.34 3.35 -0.68 1.7 0 0 Z " fill="#11A7E7" transform="translate(627,434)"/>
<path d="M0 0 C2.1875 -0.3125 2.1875 -0.3125 5 0 C7.8125 2.375 7.8125 2.375 10 5 C10 5.66 10 6.32 10 7 C9.01 7.495 9.01 7.495 8 8 C7.27840576 9.64363134 6.60648579 11.31050386 6 13 C4.35 13 2.7 13 1 13 C1.639375 12.79375 2.27875 12.5875 2.9375 12.375 C5.34925077 11.10461791 5.34925077 11.10461791 5.75 7.875 C5.8325 6.92625 5.915 5.9775 6 5 C4.35 4.67 2.7 4.34 1 4 C1.66 3.34 2.32 2.68 3 2 C2.01 1.34 1.02 0.68 0 0 Z " fill="#32B5E9" transform="translate(619,427)"/>
<path d="M0 0 C0.33 0 0.66 0 1 0 C1 5.28 1 10.56 1 16 C0.01 15.67 -0.98 15.34 -2 15 C-2.05406122 13.06280622 -2.09282025 11.12518079 -2.125 9.1875 C-2.14820313 8.10855469 -2.17140625 7.02960937 -2.1953125 5.91796875 C-2 3 -2 3 0 0 Z " fill="#1D2E3C" transform="translate(600,562)"/>
<path d="M0 0 C0.33 0 0.66 0 1 0 C1 2.31 1 4.62 1 7 C-0.5159375 7.2784375 -0.5159375 7.2784375 -2.0625 7.5625 C-6.92651732 8.90258641 -9.75505217 12.31121432 -13 16 C-13 13 -13 13 -11.03125 10.73828125 C-10.1959375 9.93777344 -9.360625 9.13726563 -8.5 8.3125 C-7.6646875 7.50425781 -6.829375 6.69601562 -5.96875 5.86328125 C-4.99421875 4.94095703 -4.99421875 4.94095703 -4 4 C-2.68 4.66 -1.36 5.32 0 6 C0 4.02 0 2.04 0 0 Z " fill="#CEEDF5" transform="translate(678,523)"/>
<path d="M0 0 C0.66 0 1.32 0 2 0 C1.38909774 6.47556391 1.38909774 6.47556391 -0.4375 8.9375 C-2 10 -2 10 -4 10 C-3.47731534 7.23723823 -2.89130413 4.6739124 -2 2 C-1.34 2 -0.68 2 0 2 C0 1.34 0 0.68 0 0 Z " fill="#20ACEB" transform="translate(551,543)"/>
<path d="M0 0 C2.31 0 4.62 0 7 0 C7 1.32 7 2.64 7 4 C4.69 4 2.38 4 0 4 C0 2.68 0 1.36 0 0 Z " fill="#2DB1EB" transform="translate(572,544)"/>
<path d="M0 0 C1.75 0.125 1.75 0.125 4 1 C6.25 4.0625 6.25 4.0625 8 7 C7.01 7.33 6.02 7.66 5 8 C1.39345961 5.59563974 1.14547068 4.05320393 0 0 Z " fill="#07A0E4" transform="translate(637,544)"/>
<path d="M0 0 C1.32 0 2.64 0 4 0 C4 2.31 4 4.62 4 7 C2.68 7 1.36 7 0 7 C0 4.69 0 2.38 0 0 Z " fill="#1EAAE1" transform="translate(543,524)"/>
<path d="M0 0 C1.32 0 2.64 0 4 0 C4 2.31 4 4.62 4 7 C2.68 7 1.36 7 0 7 C0 4.69 0 2.38 0 0 Z " fill="#19A9E0" transform="translate(543,510)"/>
<path d="M0 0 C1.32 0 2.64 0 4 0 C4 2.31 4 4.62 4 7 C2.68 7 1.36 7 0 7 C0 4.69 0 2.38 0 0 Z " fill="#21AAE6" transform="translate(543,496)"/>
<path d="M0 0 C1.32 0 2.64 0 4 0 C4 2.31 4 4.62 4 7 C2.68 7 1.36 7 0 7 C0 4.69 0 2.38 0 0 Z " fill="#19A8DC" transform="translate(543,453)"/>
<path d="M0 0 C2.31 0 4.62 0 7 0 C7 1.32 7 2.64 7 4 C4.69 4 2.38 4 0 4 C0 2.68 0 1.36 0 0 Z " fill="#2FB0E6" transform="translate(572,433)"/>
<path d="M0 0 C2.31 0 4.62 0 7 0 C7 1.32 7 2.64 7 4 C4.69 4 2.38 4 0 4 C0 2.68 0 1.36 0 0 Z " fill="#2BB1E8" transform="translate(601,433)"/>
<path d="M0 0 C0.33 0.66 0.66 1.32 1 2 C0.67 2.66 0.34 3.32 0 4 C3.3 4 6.6 4 10 4 C10 4.33 10 4.66 10 5 C5.38 5.33 0.76 5.66 -4 6 C-4.33 5.34 -4.66 4.68 -5 4 C-3.35 2.68 -1.7 1.36 0 0 Z " fill="#DBE7EB" transform="translate(652,551)"/>
<path d="M0 0 C1.98 0 3.96 0 6 0 C6 1.32 6 2.64 6 4 C4.02 4 2.04 4 0 4 C0 2.68 0 1.36 0 0 Z " fill="#25AAE6" transform="translate(587,544)"/>
<path d="M0 0 C1.98 0 3.96 0 6 0 C6 1.32 6 2.64 6 4 C4.02 4 2.04 4 0 4 C0 2.68 0 1.36 0 0 Z " fill="#22A8E7" transform="translate(559,544)"/>
<path d="M0 0 C1.32 0 2.64 0 4 0 C4 1.98 4 3.96 4 6 C2.68 6 1.36 6 0 6 C0 4.02 0 2.04 0 0 Z " fill="#17A6E0" transform="translate(543,482)"/>
<path d="M0 0 C1.32 0 2.64 0 4 0 C4 1.98 4 3.96 4 6 C2.68 6 1.36 6 0 6 C0 4.02 0 2.04 0 0 Z " fill="#15A0DA" transform="translate(543,468)"/>
<path d="M0 0 C1.98 0 3.96 0 6 0 C6 1.32 6 2.64 6 4 C4.02 4 2.04 4 0 4 C0 2.68 0 1.36 0 0 Z " fill="#19A8E1" transform="translate(587,433)"/>
<path d="M0 0 C1.98 0 3.96 0 6 0 C6 1.32 6 2.64 6 4 C4.02 4 2.04 4 0 4 C0 2.68 0 1.36 0 0 Z " fill="#1CAAE7" transform="translate(559,433)"/>
<path d="M0 0 C1.32 0 2.64 0 4 0 C4 1.65 4 3.3 4 5 C2.68 5 1.36 5 0 5 C0 3.35 0 1.7 0 0 Z " fill="#2EB4E5" transform="translate(619,449)"/>
<path d="M0 0 C0 3 0 3 -2 5.1875 C-2.66 5.785625 -3.32 6.38375 -4 7 C-4.66 6.67 -5.32 6.34 -6 6 C-2.25 1.125 -2.25 1.125 0 0 Z " fill="#324655" transform="translate(605,460)"/>
</svg>
