<?xml version="1.0" encoding="UTF-8"?>
<svg version="1.1" xmlns="http://www.w3.org/2000/svg" width="1024" height="1024">
<path d="M0 0 C337.92 0 675.84 0 1024 0 C1024 337.92 1024 675.84 1024 1024 C686.08 1024 348.16 1024 0 1024 C0 686.08 0 348.16 0 0 Z " fill="#FBFBFB" transform="translate(0,0)"/>
<path d="M0 0 C1.56855877 -0.0041861 3.1371145 -0.00967053 4.70566475 -0.01631981 C8.9632341 -0.03062581 13.22060744 -0.02657687 17.47818685 -0.019153 C22.09044607 -0.01438641 26.70266497 -0.02696173 31.31491089 -0.03717041 C40.33007615 -0.05429561 49.34517152 -0.05521156 58.36034881 -0.04995751 C65.69340666 -0.04590298 73.02644399 -0.04737453 80.35950089 -0.05270576 C81.40634909 -0.05345419 82.4531973 -0.05420261 83.53176818 -0.05497371 C85.65897321 -0.05650531 87.78617824 -0.05804366 89.91338326 -0.05958868 C109.82528422 -0.07329089 129.7371458 -0.06789198 149.64904584 -0.05640347 C167.83197393 -0.0464725 186.01480025 -0.05941348 204.19771264 -0.08333766 C222.90796847 -0.10776856 241.61817697 -0.11732679 260.32844841 -0.11068493 C270.81684399 -0.1072017 281.30516133 -0.10936542 291.79354477 -0.12693596 C300.72140043 -0.14170791 309.64912274 -0.14222838 318.57697593 -0.12486505 C323.12422972 -0.11639382 327.67124582 -0.11410972 332.21848679 -0.1295166 C368.11142306 -0.24230785 398.33670153 4.42679462 425.65725708 29.38768005 C426.39588989 30.04381287 427.13452271 30.69994568 427.89553833 31.3759613 C446.62381434 48.90322562 456.55389696 74.74606194 457.84336519 100.03805733 C457.91326266 104.07266904 457.92443689 108.10293942 457.91122437 112.13792419 C457.91353369 113.69080533 457.91671336 115.24368536 457.92067885 116.79656315 C457.92897072 121.02911561 457.92492731 125.26157702 457.91870642 129.49412966 C457.9141598 134.0722491 457.9211766 138.65035346 457.92666626 143.22846985 C457.9355384 152.18333964 457.93364798 161.13817582 457.92784098 170.0930469 C457.9233159 177.37380673 457.92271524 184.65455716 457.92488861 191.93531799 C457.92519508 192.97333905 457.92550154 194.01136011 457.9258173 195.08083636 C457.92645678 197.18985391 457.9271052 199.29887146 457.92776248 201.40788901 C457.93345939 221.16316337 457.92691791 240.91841913 457.91616175 260.67369044 C457.90722682 277.60798535 457.90877904 294.54225283 457.91799927 311.47654724 C457.92871319 331.16332036 457.93291013 350.85007721 457.92677474 370.53685284 C457.92613767 372.63791593 457.92550893 374.73897902 457.92488861 376.84004211 C457.92458006 377.87368348 457.92427151 378.90732484 457.92395361 379.97228867 C457.92223004 387.24048668 457.92513448 394.50867432 457.92984772 401.77687073 C457.93546902 410.6398187 457.93391387 419.50273127 457.92328623 428.36567521 C457.91804632 432.88374037 457.915944 437.40174659 457.92258453 441.91981125 C457.92858105 446.06249399 457.92520834 450.20506363 457.91462943 454.34773624 C457.912411 455.83949259 457.91349628 457.33125866 457.91838101 458.82300866 C458.00966574 489.03847874 448.47345915 516.43636225 427.12600708 538.01268005 C413.11949696 551.77453498 397.49967105 560.2139497 378.65725708 565.38768005 C377.75500292 565.64128691 376.85274877 565.89489377 375.92315358 566.15618569 C367.11404981 568.42796527 358.66923264 568.81461449 349.63694763 568.77536011 C348.05462921 568.77954149 346.4723138 568.7850234 344.89000386 568.79167992 C340.57586141 568.80604817 336.26191139 568.80191696 331.94775879 568.79451311 C327.28159649 568.78976214 322.61547467 568.8023084 317.94932556 568.81253052 C308.82031483 568.82968731 299.69137303 568.83056486 290.56235037 568.82531761 C283.13717839 568.82126816 275.71202671 568.82272867 268.2868557 568.82806587 C266.6986852 568.82918851 266.6986852 568.82918851 265.07843044 568.83033382 C262.92714554 568.83186538 260.77586065 568.83340373 258.62457576 568.83494879 C238.46950752 568.84866303 218.31447814 568.84324414 198.1594108 568.83176357 C179.74922487 568.82183664 161.33913953 568.83476447 142.92896912 568.85869776 C123.99623244 568.88312367 105.06354253 568.89268779 86.13079041 568.88604504 C75.51325855 568.88256002 64.89580397 568.88473715 54.27828407 568.90229607 C45.23794816 568.91706194 36.19774393 568.91759661 27.15741048 568.90022516 C22.55157671 568.89174798 17.94597772 568.88948453 13.34015656 568.90487671 C9.11136434 568.91883299 4.88300561 568.91382224 0.65423777 568.89463747 C-0.8631793 568.89091029 -2.38063202 568.89370286 -3.89801701 568.90424912 C-32.31884023 569.08749631 -57.49529402 558.39226054 -78.34274292 539.38768005 C-79.00789917 538.8050238 -79.67305542 538.22236755 -80.35836792 537.62205505 C-98.4473363 520.88553291 -108.92061235 494.59853307 -110.62111366 470.43156648 C-110.72802054 466.31220491 -110.74854003 462.20274314 -110.73042297 458.08253479 C-110.73460783 456.5058768 -110.74009159 454.92922183 -110.74674278 453.35257232 C-110.7610651 449.06801036 -110.75699458 444.7836429 -110.74957597 440.49907088 C-110.74481353 435.85954648 -110.75738112 431.22006232 -110.76759338 426.58055115 C-110.78472662 417.51010486 -110.78563284 408.43972801 -110.78038048 399.36926974 C-110.77632744 391.99184302 -110.77779576 384.61443671 -110.78312874 377.23701096 C-110.78387716 376.18418781 -110.78462558 375.13136467 -110.78539668 374.0466378 C-110.78692827 371.9073515 -110.78846662 369.76806521 -110.79001165 367.62877892 C-110.80371679 347.59959708 -110.79831291 327.57045439 -110.78682644 307.54127346 C-110.77689534 289.24767551 -110.78983616 270.95417873 -110.81376063 252.66059639 C-110.83818642 233.84076591 -110.847751 215.02098247 -110.8411079 196.20113647 C-110.83762352 185.64960085 -110.83979608 175.09814299 -110.85735893 164.54661942 C-110.87212446 155.56491242 -110.87265966 146.58333796 -110.85528802 137.60163344 C-110.84681153 133.02615727 -110.84454582 128.45091742 -110.85993958 123.87545395 C-110.96711802 89.56212337 -106.45898884 59.46314832 -82.34274292 33.38768005 C-81.3585437 32.28166443 -81.3585437 32.28166443 -80.35446167 31.15330505 C-59.56262261 8.89223539 -29.62954263 -0.13134005 0 0 Z " fill="#273F4F" transform="translate(338.3427429199219,227.61231994628906)"/>
<path d="M0 0 C3.375 0.875 3.375 0.875 5.375 2.875 C5.61550903 5.3553772 5.61550903 5.3553772 5.60205078 8.51806641 C5.60182419 10.28967636 5.60182419 10.28967636 5.60159302 12.09707642 C5.59127045 13.37730682 5.58094788 14.65753723 5.5703125 15.9765625 C5.5674826 17.28329926 5.56465271 18.59003601 5.56173706 19.93637085 C5.55409776 23.41182081 5.5344469 26.88710383 5.5123291 30.36248779 C5.49187696 33.90830222 5.48273671 37.4541436 5.47265625 41 C5.45120116 47.95840195 5.41706173 54.91669296 5.375 61.875 C6.20118835 61.93916611 7.02737671 62.00333221 7.87860107 62.06944275 C8.96119202 62.15601639 10.04378296 62.24259003 11.15917969 62.33178711 C12.76971222 62.45897377 12.76971222 62.45897377 14.41278076 62.58872986 C29.07164457 64.00536876 44.42173416 72.26949929 55.375 81.875 C56.096875 82.44347656 56.81875 83.01195312 57.5625 83.59765625 C72.61535795 95.90650363 82.22780028 114.91361036 85.375 133.875 C85.375 136.515 85.375 139.155 85.375 141.875 C91.975 141.875 98.575 141.875 105.375 141.875 C103.395 144.185 101.415 146.495 99.375 148.875 C98.7975 149.844375 98.22 150.81375 97.625 151.8125 C94.86055604 154.34657363 93.78861774 154.17720894 90.125 154.1875 C88.54026952 154.10734745 86.95593717 154.0107675 85.375 153.875 C85.37242187 154.52726563 85.36984375 155.17953125 85.3671875 155.8515625 C85.15083609 160.74110444 84.91532171 163.97347334 81.3125 167.5 C80.343125 168.28375 79.37375 169.0675 78.375 169.875 C74.08857676 168.21036962 71.28882783 165.08424163 68.125 161.875 C67.57070313 161.3284375 67.01640625 160.781875 66.4453125 160.21875 C62.375 156.1283867 62.375 156.1283867 62.375 153.875 C61.653125 153.606875 60.93125 153.33875 60.1875 153.0625 C57.375 151.875 57.375 151.875 55 150.375 C51.89261555 148.59935174 48.83136387 147.75603393 45.375 146.875 C46.25 143 46.25 143 47.375 141.875 C49.90549402 141.80186433 52.40804837 141.78252473 54.9375 141.8125 C56.00387695 141.81926758 56.00387695 141.81926758 57.09179688 141.82617188 C58.85290013 141.83799136 60.61396036 141.85592737 62.375 141.875 C59.28908443 125.87040683 54.21469845 113.56536892 42.375 101.875 C41.83488281 101.31296875 41.29476562 100.7509375 40.73828125 100.171875 C33.03435125 92.79783621 20.97466268 87.5062684 10.5625 85.75 C9.58667969 85.58242188 8.61085938 85.41484375 7.60546875 85.2421875 C6.50138672 85.06042969 6.50138672 85.06042969 5.375 84.875 C5.40980469 85.92300781 5.44460938 86.97101563 5.48046875 88.05078125 C5.50860937 89.42967147 5.53590924 90.80857902 5.5625 92.1875 C5.58763672 92.87779297 5.61277344 93.56808594 5.63867188 94.27929688 C5.71238291 99.36535815 5.71238291 99.36535815 4.08203125 101.828125 C1.151697 103.62521786 -1.30269349 103.29028831 -4.625 102.875 C-7.26748255 100.43811106 -7.61129907 99.03648829 -7.91796875 95.421875 C-7.88316406 94.16890625 -7.84835937 92.9159375 -7.8125 91.625 C-7.77189453 89.73007812 -7.77189453 89.73007812 -7.73046875 87.796875 C-7.69566406 86.83265625 -7.66085937 85.8684375 -7.625 84.875 C-26.99334781 89.05345067 -43.01662343 96.72707263 -54.46875 113.58984375 C-59.96374325 122.44935617 -63.05915291 131.58953381 -64.625 141.875 C-63.50480469 141.84019531 -62.38460937 141.80539062 -61.23046875 141.76953125 C-59.75782749 141.74139161 -58.28517002 141.71409163 -56.8125 141.6875 C-56.07451172 141.66236328 -55.33652344 141.63722656 -54.57617188 141.61132812 C-49.13186269 141.53742348 -49.13186269 141.53742348 -46.63671875 143.19921875 C-45.04391593 145.8374906 -45.24960678 147.87185427 -45.625 150.875 C-46.63671875 152.55078125 -46.63671875 152.55078125 -48.625 153.875 C-51.43627043 154.09214241 -54.0133345 154.15784276 -56.8125 154.0625 C-57.56208984 154.04896484 -58.31167969 154.03542969 -59.08398438 154.02148438 C-60.93129767 153.98618539 -62.77824066 153.93237917 -64.625 153.875 C-59.82422784 174.37387229 -52.67967135 189.6470635 -34.625 201.875 C-26.23997805 206.75758266 -16.99694641 208.77013374 -7.625 210.875 C-7.67140625 209.98296875 -7.7178125 209.0909375 -7.765625 208.171875 C-7.80171875 207.00140625 -7.8378125 205.8309375 -7.875 204.625 C-7.92140625 203.46484375 -7.9678125 202.3046875 -8.015625 201.109375 C-7.625 197.875 -7.625 197.875 -5.80078125 195.48046875 C-2.88461 193.32867991 -1.16941224 193.34710882 2.375 193.875 C4.046875 194.953125 4.046875 194.953125 5.375 196.875 C5.66796875 200.23046875 5.66796875 200.23046875 5.5625 204.0625 C5.52189453 205.97095703 5.52189453 205.97095703 5.48046875 207.91796875 C5.44566406 208.89378906 5.41085937 209.86960937 5.375 210.875 C14.21811955 209.12063919 22.15104446 206.53949784 30.375 202.875 C32.85 201.885 32.85 201.885 35.375 200.875 C40.325 205.825 45.275 210.775 50.375 215.875 C48.57802909 221.26591272 42.43665717 223.37696291 37.56347656 225.85839844 C27.41463489 230.57278674 16.56921414 233.94598889 5.375 233.875 C5.38388245 234.59274597 5.39276489 235.31049194 5.4019165 236.04998779 C5.4821049 242.81807594 5.54298592 249.58609297 5.58224869 256.35453415 C5.60311308 259.8342187 5.63140821 263.31351033 5.67675781 266.79296875 C5.72858227 270.79430893 5.74795453 274.79523719 5.765625 278.796875 C5.78627014 280.04490906 5.80691528 281.29294312 5.82818604 282.57879639 C5.82848816 283.73969788 5.82879028 284.90059937 5.82910156 286.09667969 C5.83798401 287.11816101 5.84686646 288.13964233 5.85601807 289.19207764 C5.24593174 292.59489007 4.0581529 293.76414222 1.375 295.875 C-1.125 296.4375 -1.125 296.4375 -3.625 295.875 C-7.11574379 292.31078768 -8.12306425 290.03174399 -8.07910156 285.07495117 C-8.07879944 283.93414597 -8.07849731 282.79334076 -8.07818604 281.6179657 C-8.05754089 280.39696671 -8.03689575 279.17596771 -8.015625 277.91796875 C-8.00996521 276.65986893 -8.00430542 275.4017691 -7.99847412 274.10554504 C-7.97990044 270.77277215 -7.94401116 267.44110784 -7.8996582 264.10864258 C-7.85862121 260.70338485 -7.84044527 257.29801225 -7.8203125 253.89257812 C-7.7762313 247.21974707 -7.70930697 240.5474375 -7.625 233.875 C-9.4810083 233.90122437 -9.4810083 233.90122437 -11.37451172 233.92797852 C-14.26002393 233.92611352 -16.84115984 233.81948583 -19.6328125 233.02734375 C-20.30223877 232.83817383 -20.97166504 232.64900391 -21.66137695 232.45410156 C-22.35062256 232.24237305 -23.03986816 232.03064453 -23.75 231.8125 C-24.48500732 231.58916992 -25.22001465 231.36583984 -25.97729492 231.13574219 C-48.57291057 223.96253087 -67.29473309 208.67829867 -78.625 187.875 C-84.07784098 177.25568168 -87.77098893 165.91396418 -87.625 153.875 C-88.35749466 153.88166183 -89.08998932 153.88832367 -89.84468079 153.89518738 C-96.74556803 153.95528233 -103.6464162 154.00096617 -110.54749775 154.03043652 C-114.09549936 154.04609693 -117.64328487 154.06734151 -121.19116211 154.10131836 C-125.26938967 154.14013007 -129.34739001 154.15470602 -133.42578125 154.16796875 C-134.70085037 154.18345261 -135.97591949 154.19893646 -137.28962708 154.21488953 C-138.47062485 154.21511612 -139.65162262 154.21534271 -140.8684082 154.21557617 C-142.43060844 154.22556892 -142.43060844 154.22556892 -144.02436829 154.23576355 C-146.625 153.875 -146.625 153.875 -148.46134949 152.54121399 C-150.27390176 149.94584715 -150.00887872 147.94602977 -149.625 144.875 C-148.46134949 143.20878601 -148.46134949 143.20878601 -146.625 141.875 C-144.02436829 141.51423645 -144.02436829 141.51423645 -140.8684082 141.53442383 C-139.68741043 141.53465042 -138.50641266 141.53487701 -137.28962708 141.53511047 C-136.01455795 141.55059433 -134.73948883 141.56607819 -133.42578125 141.58203125 C-132.12045944 141.58627609 -130.81513763 141.59052094 -129.47026062 141.59489441 C-126.00294721 141.60633911 -122.53601187 141.63580246 -119.06884766 141.66900635 C-115.52967442 141.69971567 -111.99043999 141.71340155 -108.45117188 141.72851562 C-101.50895945 141.76067295 -94.56699789 141.81186446 -87.625 141.875 C-87.50600342 140.79758545 -87.38700684 139.7201709 -87.2644043 138.61010742 C-87.09720487 137.17101904 -86.9296226 135.73197511 -86.76171875 134.29296875 C-86.68465698 133.58587769 -86.60759521 132.87878662 -86.52819824 132.15026855 C-84.6604809 116.42616877 -76.01380908 101.55234353 -65.625 89.875 C-65.02171875 89.18921875 -64.4184375 88.5034375 -63.796875 87.796875 C-50.58081383 73.69233913 -32.46698157 65.2049221 -13.625 61.875 C-11.62514877 61.85060603 -9.62479977 61.84670012 -7.625 61.875 C-7.63388245 61.15725403 -7.64276489 60.43950806 -7.6519165 59.70001221 C-7.7321049 52.93192406 -7.79298592 46.16390703 -7.83224869 39.39546585 C-7.85311308 35.9157813 -7.88140821 32.43648967 -7.92675781 28.95703125 C-7.97858227 24.95569107 -7.99795453 20.95476281 -8.015625 16.953125 C-8.03627014 15.70509094 -8.05691528 14.45705688 -8.07818604 13.17120361 C-8.07848816 12.01030212 -8.07879028 10.84940063 -8.07910156 9.65332031 C-8.08798401 8.63183899 -8.09686646 7.61035767 -8.10601807 6.55792236 C-7.21443723 1.58504848 -4.94397429 -0.17048187 0 0 Z " fill="#FAFBFB" transform="translate(437.625,415.125)"/>
<path d="M0 0 C0.04898438 0.97582031 0.09796875 1.95164062 0.1484375 2.95703125 C0.22320312 4.22933594 0.29796875 5.50164062 0.375 6.8125 C0.47941406 8.70935547 0.47941406 8.70935547 0.5859375 10.64453125 C0.76102939 14.12755234 0.76102939 14.12755234 3 17 C6.5 17.41666667 6.5 17.41666667 10 17 C12.84614024 14.15385976 12.45579076 11.19630858 12.625 7.375 C12.66367187 6.66859375 12.70234375 5.9621875 12.7421875 5.234375 C12.83647724 3.49001476 12.91932891 1.74504309 13 0 C26.37883938 -0.19841499 39.29198499 6.02858535 49 15 C49.74507813 15.64324219 50.49015625 16.28648437 51.2578125 16.94921875 C61.02671011 25.90680113 67.3793038 38.03445038 70 51 C70.05553413 52.99922884 70.07138306 55.00127429 70 57 C68.94039063 57.03738281 67.88078125 57.07476563 66.7890625 57.11328125 C65.40100576 57.17893258 64.01298651 57.24538021 62.625 57.3125 C61.57699219 57.34633789 61.57699219 57.34633789 60.5078125 57.38085938 C58.22711059 57.46984296 58.22711059 57.46984296 55 58 C54.34 58.99 53.68 59.98 53 61 C50.4609375 61.7734375 50.4609375 61.7734375 47.375 62.375 C37.75246048 64.61949187 32.23868533 68.62499648 27 77 C24.29995489 81.66371428 24.38150927 86.75457226 25 92 C26.93201288 99.01077727 31.11024523 103.80529278 36 109 C37.15302748 110.32711697 38.29937553 111.66008041 39.4375 113 C40.283125 113.99 41.12875 114.98 42 116 C32.73544641 122.31438848 24.26318156 125.57174215 13 126 C12.95101562 125.01257813 12.90203125 124.02515625 12.8515625 123.0078125 C12.73941406 121.08582031 12.73941406 121.08582031 12.625 119.125 C12.52058594 117.21074219 12.52058594 117.21074219 12.4140625 115.2578125 C12.32758894 111.91938301 12.32758894 111.91938301 10 110 C5.96170865 109.53719067 5.96170865 109.53719067 2.3515625 111.1015625 C0.3713667 113.88299359 0.47956789 116.31272856 0.3125 119.6875 C0.24675781 120.86699219 0.18101562 122.04648437 0.11328125 123.26171875 C0.07589844 124.16535156 0.03851563 125.06898438 0 126 C-16.7249995 125.58470656 -31.10259285 116.92712421 -42.421875 105.07421875 C-50.95231193 95.27308894 -57 82.12548611 -57 69 C-55.86820312 68.95101562 -54.73640625 68.90203125 -53.5703125 68.8515625 C-52.08851661 68.77653486 -50.606747 68.70098703 -49.125 68.625 C-48.37863281 68.5940625 -47.63226563 68.563125 -46.86328125 68.53125 C-42.46526812 68.44356169 -42.46526812 68.44356169 -39 66 C-38.66666667 63 -38.66666667 63 -39 60 C-41.93447357 57.06552643 -45.18259456 57.53841577 -49.125 57.375 C-49.87910156 57.33632813 -50.63320313 57.29765625 -51.41015625 57.2578125 C-53.27303184 57.16348969 -55.13648255 57.08065338 -57 57 C-56.62662238 41.96306501 -49.44071916 28.71882526 -39.375 17.8125 C-28.98158539 8.03166385 -14.6294356 -0.41798387 0 0 Z " fill="#03A3E3" transform="translate(430,500)"/>
<path d="M0 0 C0 14.85 0 29.7 0 45 C-6.27 46.32 -12.54 47.64 -19 49 C-23.23432554 50.54715741 -27.0132573 52.02109433 -31 54 C-31.91910156 54.44085938 -32.83820313 54.88171875 -33.78515625 55.3359375 C-40.97246426 58.99529826 -46.972155 63.67130944 -53 69 C-53.63679688 69.54140625 -54.27359375 70.0828125 -54.9296875 70.640625 C-70.0378496 84.42595263 -76.76334833 105.58009001 -80 125 C-99.14 125 -118.28 125 -138 125 C-138 124.67 -138 124.34 -138 124 C-133.38 124 -128.76 124 -124 124 C-124.0825 122.39125 -124.165 120.7825 -124.25 119.125 C-124.17181331 85.89565584 -104.09321799 56.12516269 -81.54296875 33.5390625 C-63.58404812 16.56296838 -40.06907696 5.73699919 -16 1 C-15.0925 0.80921875 -14.185 0.6184375 -13.25 0.421875 C-8.86786056 -0.14696041 -4.41890482 0 0 0 Z " fill="#02A1DF" transform="translate(430,432)"/>
<path d="M0 0 C19.14 0 38.28 0 58 0 C59.32 6.6 60.64 13.2 62 20 C71.00876426 43.84672893 86.51603654 61.65663688 109.5 72.875 C118.65902481 76.73575485 128.16913741 78.77114218 138 80 C138 94.85 138 109.7 138 125 C104.39241585 125 73.52839655 108.41092665 49.9375 85.3125 C29.4991565 64.74988607 13.93671983 34.48150698 13.8125 5 C13.874375 3.68 13.93625 2.36 14 1 C9.38 1 4.76 1 0 1 C0 0.67 0 0.34 0 0 Z " fill="#02A0E0" transform="translate(292,569)"/>
<path d="M0 0 C1.7325 0.1546875 1.7325 0.1546875 3.5 0.3125 C5.63586678 3.51630017 5.73132175 4.33189967 5.625 8 C5.60695313 8.80824219 5.58890625 9.61648438 5.5703125 10.44921875 C5.53550781 11.37154297 5.53550781 11.37154297 5.5 12.3125 C6.78688721 12.29678955 8.07377441 12.2810791 9.3996582 12.26489258 C14.16863764 12.21064225 18.93758974 12.1761677 23.70678711 12.14770508 C25.77193791 12.13260729 27.8370566 12.11212726 29.90209961 12.08618164 C32.86840739 12.04984205 35.83429171 12.0327837 38.80078125 12.01953125 C39.7258699 12.00404739 40.65095856 11.98856354 41.6040802 11.97261047 C42.46474594 11.97238388 43.32541168 11.97215729 44.2121582 11.97192383 C44.96938675 11.96526199 45.7266153 11.95860016 46.50679016 11.95173645 C48.5 12.3125 48.5 12.3125 51.5 15.3125 C51.5 18.2825 51.5 21.2525 51.5 24.3125 C67.01 24.3125 82.52 24.3125 98.5 24.3125 C97.48200583 29.40247083 96.81768338 30.53714585 93.5625 34.25 C89.86237202 38.64837794 86.25459218 43.08325345 82.8125 47.6875 C82.35431885 48.27007568 81.8961377 48.85265137 81.42407227 49.45288086 C79.98623442 51.31888212 79.98623442 51.31888212 78.5 54.3125 C79.59570591 58.23047872 81.62964383 61.0498465 84.125 64.21875 C84.83140625 65.12753906 85.5378125 66.03632813 86.265625 66.97265625 C87.00296875 67.90980469 87.7403125 68.84695313 88.5 69.8125 C89.96372015 71.67285761 91.42226009 73.53730541 92.875 75.40625 C93.84566406 76.63891602 93.84566406 76.63891602 94.8359375 77.89648438 C96.4939574 80.30372689 97.53088608 82.56422997 98.5 85.3125 C91.86148394 85.38846686 85.22307965 85.44106456 78.58422852 85.47729492 C76.32507132 85.49239602 74.06594351 85.51287842 71.80688477 85.53881836 C68.56258907 85.57514308 65.31868044 85.59221308 62.07421875 85.60546875 C61.06163498 85.62095261 60.04905121 85.63643646 59.00578308 85.65238953 C57.59465996 85.65272942 57.59465996 85.65272942 56.1550293 85.65307617 C55.32674118 85.65973801 54.49845306 85.66639984 53.64506531 85.67326355 C51.5 85.3125 51.5 85.3125 48.5 82.3125 C48.5 78.6825 48.5 75.0525 48.5 71.3125 C34.31 71.3125 20.12 71.3125 5.5 71.3125 C5.5 81.5425 5.5 91.7725 5.5 102.3125 C2.2 102.3125 -1.1 102.3125 -4.5 102.3125 C-6.42787772 100.38462228 -5.63347246 97.49413068 -5.64663696 94.92762756 C-5.64618378 94.00864182 -5.64573059 93.08965607 -5.64526367 92.14282227 C-5.64862228 91.18028534 -5.6519809 90.21774841 -5.65544128 89.2260437 C-5.6649825 86.02698495 -5.66689597 82.82797836 -5.66796875 79.62890625 C-5.67117908 77.41552203 -5.67454297 75.20213803 -5.67805481 72.98875427 C-5.68405399 68.34235136 -5.6858939 63.69596706 -5.68530273 59.04956055 C-5.68520106 53.08263868 -5.69885571 47.11583566 -5.71607494 41.14894199 C-5.72716898 36.57573391 -5.72922275 32.0025548 -5.72869301 27.42933464 C-5.72987696 25.228816 -5.73432179 23.02829669 -5.74202538 20.82779121 C-5.75177321 17.75563247 -5.74896793 14.68373481 -5.74291992 11.61157227 C-5.74853943 10.69461075 -5.75415894 9.77764923 -5.75994873 8.832901 C-5.71810791 0.51054535 -5.71810791 0.51054535 0 0 Z " fill="#1E2F3C" transform="translate(436.5,313.6875)"/>
<path d="M0 0 C3.92969376 1.37154018 6.60203927 3.5714269 9.4375 6.625 C11.50668898 11.0944482 12.00423452 15.15604523 11 20 C7.65755148 25.83585471 3.00874873 30.28007123 -1.72827148 35.00292969 C-2.60839905 35.88816818 -3.48852661 36.77340668 -4.39532471 37.68547058 C-6.79856499 40.10019329 -9.20621357 42.51033514 -11.61646533 44.9180479 C-13.63128457 46.9317941 -15.64311202 48.94851637 -17.65500122 50.96518922 C-22.4008827 55.72214371 -27.15204541 60.47377741 -31.90649414 65.22216797 C-36.80719809 70.11682335 -41.69863247 75.02060497 -46.58566421 79.92890811 C-50.78844582 84.14930704 -54.99701321 88.36387455 -59.21023995 92.5738461 C-61.72379866 95.08559318 -64.23508847 97.59950673 -66.74078178 100.11910248 C-69.53287048 102.92610384 -72.33697693 105.72090456 -75.14233398 108.51464844 C-75.96899063 109.34894882 -76.79564728 110.18324921 -77.64735413 111.04283142 C-78.41413483 111.80259781 -79.18091553 112.5623642 -79.97093201 113.34515381 C-80.63219306 114.0065826 -81.29345411 114.6680114 -81.97475338 115.34948349 C-85.8266557 118.48867075 -89.91553425 119.58712679 -94.890625 119.4375 C-100.39898339 118.29502567 -104.38856906 113.85305567 -107.8515625 109.66796875 C-111.29907689 105.67398128 -114.98240166 101.96937727 -118.73828125 98.26953125 C-119.34879837 97.66692474 -119.95931549 97.06431824 -120.58833313 96.44345093 C-123.14414539 93.92403988 -125.70284078 91.40771772 -128.27075195 88.90063477 C-130.16253628 87.05118075 -132.04473899 85.19240116 -133.92578125 83.33203125 C-134.50596512 82.77046829 -135.08614899 82.20890533 -135.68391418 81.63032532 C-139.9224301 77.41903153 -141.70803673 74.22621994 -142.5 68.1875 C-142.37127434 62.95925775 -139.51013467 59.64417323 -136 56 C-132.56030117 53.10341152 -129.74219725 52.64462962 -125.2578125 52.50390625 C-119.08818547 53.85951634 -114.65011001 58.00995212 -110.42578125 62.45703125 C-109.41885546 63.49697303 -108.41168714 64.53668002 -107.40429688 65.57617188 C-105.84636991 67.20279094 -104.29280325 68.83329425 -102.74389648 70.46850586 C-101.23187304 72.05870066 -99.70498844 73.63338127 -98.17578125 75.20703125 C-97.27770752 76.1503833 -96.37963379 77.09373535 -95.4543457 78.06567383 C-93.24997238 80.20480609 -93.24997238 80.20480609 -90.93164062 80.03417969 C-88.50431244 78.73461419 -86.85403325 77.20843455 -84.91796875 75.24609375 C-83.76651367 74.0869043 -83.76651367 74.0869043 -82.59179688 72.90429688 C-81.79837891 72.09025391 -81.00496094 71.27621094 -80.1875 70.4375 C-79.01477539 69.25704102 -79.01477539 69.25704102 -77.81835938 68.05273438 C-74.3494972 64.53750478 -70.97613192 60.98682979 -67.75097656 57.24658203 C-63.8510024 52.76682865 -59.70814725 48.56395886 -55.50390625 44.37109375 C-54.71153061 43.57776138 -53.91915497 42.78442902 -53.10276794 41.96705627 C-51.43749717 40.30110919 -49.77097971 38.63640744 -48.10327148 36.97290039 C-45.56965378 34.44463866 -43.04141833 31.91108339 -40.51367188 29.37695312 C-38.88573717 27.7496793 -37.25749225 26.12271575 -35.62890625 24.49609375 C-34.88282608 23.74798935 -34.13674591 22.99988495 -33.36805725 22.22911072 C-29.26427424 18.14335492 -25.07445486 14.23746471 -20.65415955 10.49501038 C-18.80684725 8.90861638 -18.80684725 8.90861638 -16.875 6.3125 C-12.14968791 0.48461509 -7.23922889 -1.23596591 0 0 Z " fill="#01A0E0" transform="translate(607,519)"/>
<path d="M0 0 C6.6 0 13.2 0 20 0 C20 48.84 20 97.68 20 148 C6.8 148 -6.4 148 -20 148 C-20.24873206 131.48349522 -20.45117627 114.96859917 -20.56993389 98.45073891 C-20.62655162 90.78043998 -20.70367419 83.11139091 -20.82983398 75.44189453 C-20.93980022 68.75362196 -21.01051522 62.06625472 -21.03497344 55.37710321 C-21.04926289 51.83772082 -21.08260152 48.30092726 -21.16303062 44.76237869 C-21.67202654 21.48225706 -21.67202654 21.48225706 -17.62075806 16.14666748 C-14.86188653 13.62996232 -12.21416456 11.86935574 -9 10 C-6.73632683 7.74047453 -6.73632683 7.74047453 -4.9375 5.5 C-3.33159589 3.58390903 -1.76985615 1.76985615 0 0 Z " fill="#01A0E0" transform="translate(689,551)"/>
<path d="M0 0 C0.66 0 1.32 0 2 0 C2 36.63 2 73.26 2 111 C-11.2 111 -24.4 111 -38 111 C-38 80.64 -38 50.28 -38 19 C-35.69 19.99 -33.38 20.98 -31 22 C-27.53789773 22.56652583 -25.2389463 22.75783601 -22.18115234 20.88745117 C-17.23548152 17.07787955 -12.59913191 13.03686739 -8.0625 8.75 C-7.39154297 8.12609375 -6.72058594 7.5021875 -6.02929688 6.859375 C-2.56774364 3.77522582 -2.56774364 3.77522582 0 0 Z " fill="#00A1E1" transform="translate(652,588)"/>
<path d="M0 0 C4.67598777 0.28055927 9.33328932 0.60475818 14 1 C14.93328125 1.07605469 15.8665625 1.15210938 16.828125 1.23046875 C43.4850808 4.54310215 67.88884599 19.99391272 87 38 C87.67546875 38.61101562 88.3509375 39.22203125 89.046875 39.8515625 C105.7658562 55.56740483 117.4895392 79.05540023 123 101 C123 104 123 104 121.63671875 105.4375 C120.99347656 105.953125 120.35023438 106.46875 119.6875 107 C115.39240785 110.57924346 111.49264122 114.44471586 107.59448242 118.44335938 C106.41327511 119.64579857 105.208744 120.82524528 104 122 C103.67 122 103.34 122 103 122 C102.78085937 120.741875 102.56171875 119.48375 102.3359375 118.1875 C98.27647852 95.86157216 90.54382339 75.95456643 75 59 C74.15695312 58.07574219 73.31390625 57.15148437 72.4453125 56.19921875 C52.52174978 35.32278999 27.83590984 26.88884035 0 23 C0 15.41 0 7.82 0 0 Z " fill="#01A1E0" transform="translate(443,432)"/>
<path d="M0 0 C6.6 0 13.2 0 20 0 C20 34.32 20 68.64 20 104 C6.8 104 -6.4 104 -20 104 C-20.1685759 96.27594588 -20.32869902 88.5586865 -20.41400146 80.83438873 C-20.45596473 77.23635346 -20.51186344 73.63986629 -20.60351562 70.04272461 C-20.69149907 66.56716675 -20.73848829 63.09309345 -20.75901794 59.61650658 C-20.78063982 57.66826168 -20.84292066 55.72060105 -20.90637207 53.77326965 C-20.91147168 43.47457369 -17.7072433 38.20274712 -12 30 C-10.24056179 26.66552103 -8.69371416 23.26760494 -7.1875 19.8125 C-6.81947266 19.00103516 -6.45144531 18.18957031 -6.07226562 17.35351562 C-3.55187315 11.67699661 -1.68715549 5.9768947 0 0 Z " fill="#01A0E0" transform="translate(579,595)"/>
<path d="M0 0 C7.26 0 14.52 0 22 0 C22.515625 2.805 23.03125 5.61 23.5625 8.5 C28.24834979 31.63414009 40.77085697 51.09395469 60.5 64.375 C73.45785289 72.77312807 86.67565018 77.08445627 102 79 C102 86.26 102 93.52 102 101 C73.19723198 101 48.79190176 87.31180282 28.5390625 67.60546875 C10.82854848 48.86960918 1.29790466 25.63361706 0 0 Z " fill="#273F50" transform="translate(328,570)"/>
<path d="M0 0 C0 7.26 0 14.52 0 22 C-4.33125 22.8353125 -4.33125 22.8353125 -8.75 23.6875 C-16.61601962 25.29779768 -23.77766452 27.41503812 -31 31 C-31.91910156 31.44085938 -32.83820313 31.88171875 -33.78515625 32.3359375 C-40.97246426 35.99529826 -46.972155 40.67130944 -53 46 C-53.63679688 46.54140625 -54.27359375 47.0828125 -54.9296875 47.640625 C-67.98798705 59.55557113 -77.47921002 79.72280026 -78.7890625 97.1875 C-79 99 -79 99 -80 101 C-87.26 101 -94.52 101 -102 101 C-100.58187458 69.80124069 -86.32863384 45.72275096 -63.91357422 24.74658203 C-60.15908259 21.31973422 -56.41842799 18.50742746 -52 16 C-51.32743164 15.61263672 -50.65486328 15.22527344 -49.96191406 14.82617188 C-34.12010532 5.79102214 -18.49431158 0 0 0 Z " fill="#273E4F" transform="translate(430,455)"/>
<path d="M0 0 C0.22132269 4.31579252 -0.4305226 8.04582583 -1.39404297 12.23803711 C-2.61797852 17.81675704 -3.59764564 23.44490245 -4.625 29.0625 C-4.85445312 30.30966797 -5.08390625 31.55683594 -5.3203125 32.84179688 C-5.88168561 35.89426316 -6.44154366 38.94699898 -7 42 C-8.875 42.60546875 -8.875 42.60546875 -11 43 C-13.26909606 41.0854502 -15.05970358 38.93096773 -17 36.6875 C-17.99 35.8521875 -17.99 35.8521875 -19 35 C-23.68060014 35.56159843 -26.18557743 38.83179361 -29.30981445 42.06445312 C-29.9331366 42.69697495 -30.55645874 43.32949677 -31.19866943 43.98118591 C-32.55126021 45.35523434 -33.90047345 46.73261383 -35.24669838 48.11289978 C-37.37895463 50.29730672 -39.52166445 52.47092725 -41.66777039 54.64172363 C-47.76785112 60.81518231 -53.8510747 67.00505003 -59.9206543 73.20849609 C-63.63425003 77.00249133 -67.36236773 80.78170488 -71.09978294 84.55223083 C-72.52044128 85.99150413 -73.93538263 87.43644395 -75.34441566 88.88710022 C-77.31672363 90.91713719 -79.30690622 92.92793705 -81.30200195 94.93554688 C-81.87834885 95.53817856 -82.45469574 96.14081024 -83.04850769 96.76170349 C-86.82223519 100.50862317 -89.46404423 101.90392102 -95 102 C-97.02880859 100.95532227 -97.02880859 100.95532227 -98.6484375 99.31640625 C-99.25743896 98.72166504 -99.86644043 98.12692383 -100.49389648 97.51416016 C-101.11466064 96.8701123 -101.7354248 96.22606445 -102.375 95.5625 C-103.68545642 94.26877973 -104.99665227 92.97580802 -106.30859375 91.68359375 C-106.93749512 91.05179199 -107.56639648 90.41999023 -108.21435547 89.76904297 C-110.54660817 87.45847378 -112.96858168 85.28872715 -115.4375 83.125 C-116.13746094 82.50882813 -116.83742188 81.89265625 -117.55859375 81.2578125 C-118.03425781 80.84273437 -118.50992188 80.42765625 -119 80 C-118.06409496 78.8944811 -117.12620142 77.79064547 -116.1875 76.6875 C-115.40439453 75.76517578 -115.40439453 75.76517578 -114.60546875 74.82421875 C-113.12827531 73.14575321 -111.59960869 71.56117966 -110 70 C-106.88103324 71.40631983 -104.54597146 73.09754896 -102 75.375 C-101.30390625 75.99117187 -100.6078125 76.60734375 -99.890625 77.2421875 C-98 79 -98 79 -95.75 81.5 C-94.16248565 83.20433678 -94.16248565 83.20433678 -92.25177002 82.93360901 C-88.91194616 81.54888072 -86.71097965 79.10241019 -84.22167969 76.56225586 C-83.65538849 75.99640274 -83.08909729 75.43054962 -82.50564575 74.84754944 C-80.63718936 72.97700443 -78.77958101 71.09606074 -76.921875 69.21484375 C-75.62787283 67.91524591 -74.33320636 66.6163092 -73.03790283 65.31800842 C-69.63151249 61.90016715 -66.2342274 58.47341237 -62.83874512 55.04473877 C-59.37189771 51.54719606 -55.89653563 48.05813702 -52.421875 44.56835938 C-45.60621145 37.72052726 -38.80013457 30.86325073 -32 24 C-32.93274109 22.87105124 -33.87140122 21.74699124 -34.8125 20.625 C-35.33457031 19.99851562 -35.85664062 19.37203125 -36.39453125 18.7265625 C-38.08225739 16.7778952 -38.08225739 16.7778952 -41 15 C-40.80566406 13.11132812 -40.80566406 13.11132812 -40 11 C-37.88964844 9.96679688 -37.88964844 9.96679688 -35.109375 9.21875 C-34.09512451 8.93588135 -33.08087402 8.6530127 -32.03588867 8.36157227 C-30.95154541 8.07725342 -29.86720215 7.79293457 -28.75 7.5 C-26.55317545 6.89529352 -24.35655905 6.28983033 -22.16015625 5.68359375 C-21.09812988 5.39597168 -20.03610352 5.10834961 -18.94189453 4.81201172 C-14.35010255 3.54460092 -9.82618606 2.09103707 -5.29296875 0.62890625 C-3 0 -3 0 0 0 Z " fill="#019FDE" transform="translate(716,497)"/>
<path d="M0 0 C6.71568303 5.16501317 10.88414515 11.16671001 12.48046875 19.51171875 C12.78497004 23.26340446 12.7875162 25.88846487 10.56640625 29.0234375 C9.33239692 30.32379142 8.07329783 31.60069515 6.79296875 32.85546875 C4.66933154 35.39550541 3.98842632 37.58676754 3.0625 40.75 C1.52622121 45.57257951 1.52622121 45.57257951 -0.9140625 47.5546875 C-2.92673134 48.55736252 -4.85330836 49.33880134 -7 50 C-7.99 50.33 -8.98 50.66 -10 51 C-20.58257519 52.0389625 -27.21108332 49.90122646 -35.875 44.0625 C-41.96280933 38.15374388 -44.27671159 31.6109973 -44.4375 23.25 C-44.29611856 15.35758897 -42.44920589 9.81000149 -37.1328125 3.9375 C-26.85539514 -5.6600882 -12.29095643 -7.57515544 0 0 Z " fill="#FBFDFD" transform="translate(453,540)"/>
<path d="M0 0 C0 3.83242022 -1.56391878 6.21930778 -3.4375 9.4375 C-3.79803467 10.05931152 -4.15856934 10.68112305 -4.5300293 11.32177734 C-21.09967605 39.324302 -45.56302575 58.13737714 -75.88208008 69.21313477 C-77.41777318 69.7836868 -78.93851808 70.39500297 -80.44848633 71.03051758 C-84.78783204 72.67931117 -89.31796791 73.31231924 -93.875 74.125 C-94.84308594 74.30675781 -95.81117188 74.48851562 -96.80859375 74.67578125 C-97.75605469 74.84722656 -98.70351563 75.01867187 -99.6796875 75.1953125 C-100.53288574 75.35016113 -101.38608398 75.50500977 -102.26513672 75.66455078 C-105.48786517 76.05983992 -108.75311963 76 -112 76 C-112 68.41 -112 60.82 -112 53 C-109.875625 52.773125 -107.75125 52.54625 -105.5625 52.3125 C-87.19919952 49.97325188 -66.5648117 43.51750789 -53.10546875 30.3359375 C-51 29 -51 29 -48.03515625 29.265625 C-47.03355469 29.50796875 -46.03195312 29.7503125 -45 30 C-37.12368312 30.88926158 -31.59554207 29.37830773 -25 25 C-20.30783952 21.06926064 -16.11580381 16.59070454 -11.875 12.1875 C-10.71733035 11.00469886 -9.55848412 9.82304811 -8.3984375 8.64257812 C-5.58522408 5.7747953 -2.78836879 2.89193677 0 0 Z " fill="#01A1E0" transform="translate(555,618)"/>
<path d="M0 0 C0 12.54 0 25.08 0 38 C-12.87 38 -25.74 38 -39 38 C-39 34.7 -39 31.4 -39 28 C-38.28457031 27.68289063 -37.56914062 27.36578125 -36.83203125 27.0390625 C-24.53851601 21.28194411 -14.81154446 13.03271512 -5.04907227 3.75927734 C-1.0902802 0 -1.0902802 0 0 0 Z " fill="#01A0E0" transform="translate(543,661)"/>
<path d="M0 0 C0 4.68766574 -2.08914271 8.37583857 -5 12 C-8.8125 13.0625 -8.8125 13.0625 -12 13 C-8.19524578 8.43969176 -4.25030379 4.14910608 0 0 Z " fill="#049ADA" transform="translate(555,618)"/>
<path d="M0 0 C0 3.69418201 -1.28179295 5.77836178 -3 9 C-3.99 8.01 -4.98 7.02 -6 6 C-4.02 4.02 -2.04 2.04 0 0 Z " fill="#088EC5" transform="translate(555,618)"/>
</svg>
