<?xml version="1.0" encoding="UTF-8"?>
<svg version="1.1" xmlns="http://www.w3.org/2000/svg" width="1024" height="1024">
<path d="M0 0 C337.92 0 675.84 0 1024 0 C1024 337.92 1024 675.84 1024 1024 C686.08 1024 348.16 1024 0 1024 C0 686.08 0 348.16 0 0 Z " fill="#FCFCFC" transform="translate(0,0)"/>
<path d="M0 0 C4.63730505 0.01329022 9.27457154 0.00322794 13.91188228 -0.00376439 C22.96991353 -0.01379237 32.02779749 -0.0026373 41.08581042 0.01593621 C51.6477019 0.0368076 62.20956239 0.03656115 72.77147061 0.03559105 C91.61924942 0.03459221 110.46696008 0.05285054 129.31471431 0.08195949 C147.58230506 0.11015757 165.84983588 0.12429962 184.11744869 0.12297511 C185.24371742 0.1228952 186.36998615 0.12281529 187.53038424 0.12273295 C189.21694138 0.12261189 189.21694138 0.12261189 190.93757039 0.12248838 C211.77470247 0.12110738 232.61180922 0.13289261 253.44893308 0.15079481 C260.803328 0.15681535 268.15771825 0.15895245 275.51211536 0.15985942 C284.47449964 0.16122625 293.43684119 0.17019179 302.39920735 0.18852504 C306.96781702 0.19773186 311.53637222 0.20386276 316.10499179 0.20133662 C320.29241707 0.19913356 324.47972218 0.20626184 328.66712243 0.22063367 C330.176175 0.22423558 331.68524008 0.22454529 333.19429301 0.22109909 C345.11554895 0.19690314 356.3189798 1.27907959 367.63478267 5.18108058 C368.39798824 5.44163234 369.1611938 5.7021841 369.94752681 5.97063136 C397.06018387 15.51650477 419.03749604 35.08131426 431.57068676 60.95612645 C441.4588837 82.40947043 441.48659335 104.68403933 441.36942887 127.79904771 C441.35173243 132.39339498 441.36335474 136.98768903 441.37109554 141.58205104 C441.38169839 150.55014016 441.36593282 159.51799196 441.34095728 168.48604494 C441.31286368 178.94768958 441.31168373 189.40928779 441.31151427 199.87096387 C441.31033031 218.54176934 441.28545356 237.21246662 441.24684322 255.88322902 C441.20946286 273.97113284 441.18824409 292.05895806 441.18531978 310.14690089 C441.18513697 311.26228966 441.18495416 312.37767843 441.18476581 313.52686685 C441.18458684 314.64039476 441.18440787 315.75392268 441.18422347 316.90119386 C441.18385803 319.1435856 441.18348566 321.38597735 441.1831063 323.62836909 C441.18292079 324.73443235 441.18273527 325.8404956 441.18254414 326.98007593 C441.17896947 344.26595048 441.16051989 361.55181302 441.14061306 378.8376753 C441.13360821 385.0862674 441.12881539 391.33485664 441.12565171 397.58345181 C441.1205909 407.49100621 441.10909323 417.39850623 441.08435141 427.30603272 C441.07317614 431.82832767 441.06501237 436.35056968 441.06548488 440.87287974 C441.06579551 445.02020163 441.05674675 449.1673986 441.04051686 453.31468779 C441.03623528 454.80686109 441.03520557 456.29904844 441.03794294 457.79122537 C441.08803522 489.61035321 431.10855447 516.41621521 409.07228267 539.55608058 C395.17013465 553.07734783 377.45402995 561.80590732 358.75978267 566.49358058 C358.09264328 566.66740943 357.42550389 566.84123827 356.73814815 567.02033466 C348.91662403 568.82889675 341.14717363 568.77610918 333.16943538 568.75427699 C331.59724503 568.75730137 330.02505614 568.76119228 328.45286983 568.76586956 C324.15285699 568.77612192 319.85292779 568.77397477 315.55290818 568.76968896 C310.9071712 568.76721662 306.26145409 568.77624237 301.61572444 568.78372645 C292.52073961 568.79646271 283.42578431 568.79826837 274.33079206 568.79592619 C266.93367087 568.79414117 259.53655863 568.79589662 252.13943851 568.80015063 C250.5585513 568.80104342 250.5585513 568.80104342 248.94572698 568.80195424 C246.80442575 568.80316603 244.66312452 568.80438017 242.52182329 568.80559661 C222.44787839 568.81646865 202.37395028 568.81431163 182.30000443 568.80821177 C163.96010147 568.80304656 145.6202517 568.8142882 127.28035926 568.83330999 C108.42795868 568.85271263 89.57558323 568.8609399 70.72317261 568.85718673 C60.14755846 568.8552779 49.57198953 568.85773091 38.99638355 568.87190127 C29.990003 568.88384721 20.98369548 568.88518428 11.97731387 568.87311111 C7.38786197 568.86724406 2.79854343 568.86606224 -1.7908994 568.87811351 C-6.00365421 568.88904636 -10.21616551 568.8857821 -14.42890929 568.87185182 C-15.94168875 568.86922502 -17.45448776 568.8715069 -18.96724791 568.87958769 C-48.27213327 569.02508738 -73.68924694 559.40512722 -95.24021733 539.49358058 C-95.97627202 538.83873683 -96.7123267 538.18389308 -97.47068608 537.50920558 C-115.27584461 520.87684192 -126.17353306 495.06775991 -127.42651057 470.90036118 C-127.49966617 466.81536545 -127.51213005 462.73469144 -127.50091374 458.649266 C-127.50393974 457.07392416 -127.50783145 455.49858378 -127.51250631 453.92324597 C-127.52273731 449.62389052 -127.52061706 445.32461892 -127.51632571 441.02525675 C-127.51384954 436.37686654 -127.52288369 431.72849606 -127.5303632 427.08011317 C-127.54308758 417.98473676 -127.54490671 408.88938989 -127.54256294 399.79400607 C-127.54077707 392.39786901 -127.54253519 385.00174088 -127.54678738 377.60560489 C-127.54738257 376.55137362 -127.54797776 375.49714234 -127.54859098 374.41096467 C-127.54980279 372.26901505 -127.55101692 370.12706543 -127.55223336 367.9851158 C-127.56310021 347.9150378 -127.56095047 327.84497662 -127.55484851 307.77489767 C-127.54968028 289.43377076 -127.56093388 271.09269697 -127.57994673 252.75158056 C-127.59934143 233.8968663 -127.60757826 215.04217715 -127.60382348 196.18745285 C-127.6019139 185.61081438 -127.60437533 175.03422113 -127.61853802 164.45759082 C-127.6304736 155.45339742 -127.63183233 146.44927707 -127.61974785 137.44508263 C-127.61387442 132.85586461 -127.61271706 128.26678005 -127.62475026 123.67757106 C-127.63566064 119.46746772 -127.632445 115.25760844 -127.61848857 111.04751626 C-127.61585575 109.53348629 -127.61816312 108.01943687 -127.62622444 106.50542607 C-127.76988945 77.48350347 -116.8359327 51.61713119 -96.86521733 30.74358058 C-68.91989969 3.97284722 -36.90760193 -0.14111099 0 0 Z " fill="#284051" transform="translate(355.2402173280716,227.5064194202423)"/>
<path d="M0 0 C0.00546844 1.00025711 0.00546844 1.00025711 0.01104736 2.02072144 C0.05304371 8.99723448 0.12250904 15.97310012 0.20751953 22.94921875 C0.2356454 25.54843655 0.25690136 28.14773855 0.27099609 30.74707031 C0.29254097 34.49587857 0.33925377 38.24368334 0.390625 41.9921875 C0.39185364 43.14363251 0.39308228 44.29507751 0.39434814 45.48141479 C0.56626688 55.0752356 2.62699645 63.34789185 9.28515625 70.53125 C14.03565125 74.60001109 20.03410412 77.11198513 26.27967834 77.14717102 C27.15283691 77.15432632 28.02599548 77.16148163 28.9256134 77.16885376 C29.88094467 77.17154266 30.83627594 77.17423157 31.82055664 77.17700195 C33.33330673 77.18685875 33.33330673 77.18685875 34.87661743 77.19691467 C38.22113112 77.21665708 41.56559981 77.22831441 44.91015625 77.23828125 C46.62493573 77.24439454 46.62493573 77.24439454 48.37435722 77.25063133 C54.42885025 77.27149929 60.48332058 77.28579608 66.5378418 77.29516602 C72.77979697 77.30621247 79.02139389 77.34059032 85.26322269 77.38033772 C90.07179915 77.40653945 94.88029086 77.4148612 99.68893242 77.41844749 C101.98892057 77.42330675 104.28890511 77.43490174 106.58882332 77.45348549 C109.81739387 77.47794454 113.04504598 77.47689883 116.27368164 77.4699707 C117.21484329 77.48278076 118.15600494 77.49559082 119.12568665 77.50878906 C127.94842537 77.44017705 135.95984691 74.8451058 142.53125 68.78515625 C145.17831975 65.56784009 146.56040867 61.86986916 148 58 C148.33 57.34 148.66 56.68 149 56 C149.11944476 54.2134547 149.17722318 52.42263749 149.20532227 50.63232422 C149.22526749 49.51131317 149.24521271 48.39030212 149.26576233 47.23532104 C149.28247482 46.02071198 149.29918732 44.80610291 149.31640625 43.5546875 C149.3475779 41.69446457 149.3475779 41.69446457 149.37937927 39.79666138 C149.43377705 36.49888177 149.48400095 33.2010728 149.53222656 29.90319824 C149.58245234 26.53827347 149.63813277 23.1734395 149.69335938 19.80859375 C149.80061557 13.20580146 149.90237189 6.60294128 150 0 C156.30936234 0.52873712 161.81845525 1.64782606 167.79296875 3.703125 C168.60915176 3.97704575 169.42533478 4.25096649 170.26625061 4.53318787 C172.91095387 5.42674541 175.54962718 6.33648879 178.1875 7.25 C179.54784363 7.71752182 179.54784363 7.71752182 180.93566895 8.19448853 C204.12890758 16.19046029 227.49724579 25.17519437 248.69238281 37.66870117 C251.0353329 39.06916034 251.0353329 39.06916034 253.76855469 40.26293945 C256.86788863 41.90928943 258.80566309 43.24638681 261 46 C262.3432672 51.83786162 262.03138017 57.48742809 261.75 63.4375 C261.70291742 65.18097278 261.65969497 66.92455361 261.62011719 68.66821289 C261.50231253 73.21775723 261.31892018 77.76215044 261.11572266 82.30859375 C261.00409922 84.90466278 260.91028314 87.50062555 260.82421875 90.09765625 C259.60356692 126.69278912 256.17015347 163.02988165 249.37310791 199.02325439 C249.01839174 200.90255957 248.66991322 202.78303894 248.32177734 204.66357422 C239.905926 249.16890909 221.57101289 287.72656304 192 322 C191.38382813 322.72960937 190.76765625 323.45921875 190.1328125 324.2109375 C181.95381461 333.79875799 172.92082995 342.24779369 163 350 C161.75516978 350.99734772 160.51038069 351.99474677 159.265625 352.9921875 C137.48333621 370.24808207 112.94477487 384.05698672 87.07177734 394.17578125 C85.68962865 394.72564385 84.31949927 395.30672294 82.96337891 395.91796875 C76.27583741 398.79545071 71.02159028 397.90101095 64.3984375 395.3203125 C62.71834722 394.60151789 61.04408336 393.86899581 59.375 393.125 C58.46621094 392.72571289 57.55742187 392.32642578 56.62109375 391.91503906 C31.95440951 380.94360921 8.98151647 368.07079196 -12 351 C-12.60360352 350.51208984 -13.20720703 350.02417969 -13.82910156 349.52148438 C-27.46291057 338.41913192 -40.37836544 326.03919888 -51 312 C-51.42587402 311.44521973 -51.85174805 310.89043945 -52.29052734 310.31884766 C-66.04532263 292.3513111 -76.48555176 272.9478754 -85 252 C-85.48082031 250.86304688 -85.96164062 249.72609375 -86.45703125 248.5546875 C-96.10635019 224.57141985 -99.90652624 198.77849113 -103.6499939 173.34658813 C-104.0093694 170.93718358 -104.38455174 168.53057277 -104.76098633 166.1237793 C-106.92405537 152.02732644 -108.18494098 137.90992324 -109.1875 123.6875 C-109.27205444 122.48941711 -109.35660889 121.29133423 -109.44372559 120.0569458 C-110.59268696 103.39369951 -111.4944424 86.72493961 -111.70596313 70.02114868 C-111.73513852 67.93675622 -111.77727292 65.85250174 -111.83285522 63.76864624 C-111.90376765 60.88348274 -111.92108822 58.00311365 -111.921875 55.1171875 C-111.95044083 54.27600876 -111.97900665 53.43483002 -112.00843811 52.56816101 C-111.95365459 49.03684093 -111.80833933 46.87829922 -109.36106873 44.21922302 C-107.31055494 42.63799302 -105.24086758 41.29502473 -103 40 C-101.51995483 39.11308472 -101.51995483 39.11308472 -100.01000977 38.20825195 C-98.61480103 37.48061646 -98.61480103 37.48061646 -97.19140625 36.73828125 C-96.12744629 36.18213135 -95.06348633 35.62598145 -93.96728516 35.05297852 C-92.84370605 34.47862061 -91.72012695 33.9042627 -90.5625 33.3125 C-89.97652039 33.01141327 -89.39054077 32.71032654 -88.7868042 32.40011597 C-70.49995273 23.02096973 -51.92471835 14.83464934 -32.28417969 8.71826172 C-27.38798813 7.17865125 -22.53046156 5.52093175 -17.671875 3.8671875 C-16.70765625 3.53976562 -15.7434375 3.21234375 -14.75 2.875 C-13.77546875 2.54242188 -12.8009375 2.20984375 -11.796875 1.8671875 C-7.70569542 0.59869327 -4.30047477 0 0 0 Z " fill="#01A2E3" transform="translate(437,359)"/>
<path d="M0 0 C0 7.26 0 14.52 0 22 C-5.19504207 23.73168069 -10.38525957 25.45421672 -15.59765625 27.12890625 C-37.68430938 34.2955882 -58.83233386 42.58753811 -79.51318359 53.24169922 C-80.94138428 53.97670654 -80.94138428 53.97670654 -82.3984375 54.7265625 C-83.24067871 55.16564941 -84.08291992 55.60473633 -84.95068359 56.05712891 C-87 57 -87 57 -89 57 C-88.65785893 86.7633236 -86.5409831 116.35082217 -84 146 C-83.93361328 146.78109131 -83.86722656 147.56218262 -83.79882812 148.36694336 C-82.15969457 167.49237125 -78.84249251 186.21418292 -75 205 C-74.81824219 205.89992676 -74.63648438 206.79985352 -74.44921875 207.72705078 C-64.4004272 256.65363645 -37.98482651 302.55882979 2 333 C2.68868164 333.5273877 3.37736328 334.05477539 4.08691406 334.59814453 C37.21411911 361.09799105 37.21411911 361.09799105 75.27734375 373.875 C95.6229705 367.33637677 115.73094096 356.53399447 133 344 C133.89912109 343.3512793 133.89912109 343.3512793 134.81640625 342.68945312 C152.7376638 329.70277643 169.41948695 315.60181556 183 298 C183.64171143 297.17290527 183.64171143 297.17290527 184.29638672 296.32910156 C197.0259925 279.81774397 206.32070431 262.37550519 214 243 C214.49693359 241.74872314 214.49693359 241.74872314 215.00390625 240.47216797 C221.29699982 224.20294124 224.3708255 207.09005771 227.61062622 190.01199341 C227.983967 188.08284662 228.38099018 186.15832858 228.77905273 184.23413086 C231.18450688 172.30372404 232.39249506 160.29353006 233.5625 148.1875 C233.67016693 147.09039703 233.77783386 145.99329407 233.88876343 144.86294556 C236.72158022 115.87975615 238.4388275 87.12801951 238 58 C218.47888816 47.15755114 198.00447697 38.53649008 177 31 C175.80503906 30.56171875 174.61007812 30.1234375 173.37890625 29.671875 C165.65366245 26.86269543 157.87340093 24.36202028 150 22 C150 14.74 150 7.48 150 0 C156.52092508 0.72454723 161.74262692 1.62174028 167.79296875 3.703125 C168.60915176 3.97704575 169.42533478 4.25096649 170.26625061 4.53318787 C172.91095387 5.42674541 175.54962718 6.33648879 178.1875 7.25 C179.54784363 7.71752182 179.54784363 7.71752182 180.93566895 8.19448853 C204.12890758 16.19046029 227.49724579 25.17519437 248.69238281 37.66870117 C251.0353329 39.06916034 251.0353329 39.06916034 253.76855469 40.26293945 C256.86788863 41.90928943 258.80566309 43.24638681 261 46 C262.3432672 51.83786162 262.03138017 57.48742809 261.75 63.4375 C261.70291742 65.18097278 261.65969497 66.92455361 261.62011719 68.66821289 C261.50231253 73.21775723 261.31892018 77.76215044 261.11572266 82.30859375 C261.00409922 84.90466278 260.91028314 87.50062555 260.82421875 90.09765625 C259.60356692 126.69278912 256.17015347 163.02988165 249.37310791 199.02325439 C249.01839174 200.90255957 248.66991322 202.78303894 248.32177734 204.66357422 C239.905926 249.16890909 221.57101289 287.72656304 192 322 C191.38382813 322.72960937 190.76765625 323.45921875 190.1328125 324.2109375 C181.95381461 333.79875799 172.92082995 342.24779369 163 350 C161.75516978 350.99734772 160.51038069 351.99474677 159.265625 352.9921875 C137.48333621 370.24808207 112.94477487 384.05698672 87.07177734 394.17578125 C85.68962865 394.72564385 84.31949927 395.30672294 82.96337891 395.91796875 C76.27583741 398.79545071 71.02159028 397.90101095 64.3984375 395.3203125 C62.71834722 394.60151789 61.04408336 393.86899581 59.375 393.125 C58.46621094 392.72571289 57.55742187 392.32642578 56.62109375 391.91503906 C31.95440951 380.94360921 8.98151647 368.07079196 -12 351 C-12.60360352 350.51208984 -13.20720703 350.02417969 -13.82910156 349.52148438 C-27.46291057 338.41913192 -40.37836544 326.03919888 -51 312 C-51.42587402 311.44521973 -51.85174805 310.89043945 -52.29052734 310.31884766 C-66.04532263 292.3513111 -76.48555176 272.9478754 -85 252 C-85.48082031 250.86304688 -85.96164062 249.72609375 -86.45703125 248.5546875 C-96.10635019 224.57141985 -99.90652624 198.77849113 -103.6499939 173.34658813 C-104.0093694 170.93718358 -104.38455174 168.53057277 -104.76098633 166.1237793 C-106.92405537 152.02732644 -108.18494098 137.90992324 -109.1875 123.6875 C-109.27205444 122.48941711 -109.35660889 121.29133423 -109.44372559 120.0569458 C-110.59268696 103.39369951 -111.4944424 86.72493961 -111.70596313 70.02114868 C-111.73513852 67.93675622 -111.77727292 65.85250174 -111.83285522 63.76864624 C-111.90376765 60.88348274 -111.92108822 58.00311365 -111.921875 55.1171875 C-111.95044083 54.27600876 -111.97900665 53.43483002 -112.00843811 52.56816101 C-111.95365459 49.03684093 -111.80833933 46.87829922 -109.36106873 44.21922302 C-107.31055494 42.63799302 -105.24086758 41.29502473 -103 40 C-101.51995483 39.11308472 -101.51995483 39.11308472 -100.01000977 38.20825195 C-98.61480103 37.48061646 -98.61480103 37.48061646 -97.19140625 36.73828125 C-96.12744629 36.18213135 -95.06348633 35.62598145 -93.96728516 35.05297852 C-92.84370605 34.47862061 -91.72012695 33.9042627 -90.5625 33.3125 C-89.97652039 33.01141327 -89.39054077 32.71032654 -88.7868042 32.40011597 C-70.49995273 23.02096973 -51.92471835 14.83464934 -32.28417969 8.71826172 C-27.38798813 7.17865125 -22.53046156 5.52093175 -17.671875 3.8671875 C-16.70765625 3.53976562 -15.7434375 3.21234375 -14.75 2.875 C-13.77546875 2.54242188 -12.8009375 2.20984375 -11.796875 1.8671875 C-7.70569542 0.59869327 -4.30047477 0 0 0 Z " fill="#FAFCFB" transform="translate(437,359)"/>
<path d="M0 0 C0.70455322 -0.00563965 1.40910645 -0.0112793 2.13500977 -0.01708984 C13.98653758 0.14615053 24.8607693 4.67834149 33.625 12.6875 C41.46322582 20.99424659 47.53145218 32.64787328 47.47265625 44.171875 C47.46782227 45.84443359 47.46782227 45.84443359 47.46289062 47.55078125 C47.45032227 49.28908203 47.45032227 49.28908203 47.4375 51.0625 C47.43298828 52.23683594 47.42847656 53.41117187 47.42382812 54.62109375 C47.41205094 57.51828072 47.39560326 60.41536454 47.375 63.3125 C48.47199219 63.43882812 49.56898438 63.56515625 50.69921875 63.6953125 C54.81440768 64.3862794 56.42019544 65.44211843 59.375 68.3125 C61.86456141 72.04684211 61.63396652 73.99482127 61.6496582 78.45849609 C61.65476913 79.1824205 61.65988007 79.90634491 61.66514587 80.65220642 C61.67905294 83.04686742 61.67808408 85.4412409 61.67578125 87.8359375 C61.67966804 89.50119127 61.68400267 91.16644406 61.68876648 92.83169556 C61.69623142 96.3237021 61.69593579 99.81560756 61.69067383 103.30761719 C61.68488375 107.77888009 61.7017975 112.24972814 61.7250185 116.72092247 C61.73976454 120.16106581 61.74062628 123.6011095 61.73750877 127.04127884 C61.73802171 128.689478 61.74325434 130.33768278 61.75332069 131.98585129 C61.76568268 134.29341149 61.75889508 136.60016714 61.74731445 138.90771484 C61.74794388 140.21993011 61.7485733 141.53214539 61.7492218 142.88412476 C61.21093602 147.81554686 59.51049236 150.29055688 55.875 153.5625 C52.58432319 155.86597377 50.10858103 156.43689836 46.18902588 156.46640015 C45.33677429 156.47500061 44.48452271 156.48360107 43.60644531 156.49246216 C42.67445313 156.49672211 41.74246094 156.50098206 40.78222656 156.50537109 C39.79816833 156.51354858 38.81411011 156.52172607 37.80023193 156.53015137 C34.53870248 156.55499453 31.27721652 156.57151863 28.015625 156.5859375 C26.90179192 156.59126118 25.78795883 156.59658485 24.64037323 156.60206985 C18.74495634 156.62879665 12.84956059 156.64817316 6.95410156 156.66259766 C0.86646197 156.67924497 -5.22063623 156.72402542 -11.30807114 156.7749691 C-15.99042378 156.80863185 -20.67264773 156.82017406 -25.35511017 156.82582474 C-27.59898263 156.83253973 -29.84284654 156.84776813 -32.08660126 156.87171555 C-35.22973207 156.90334811 -38.37140011 156.90340625 -41.51464844 156.89599609 C-42.4385437 156.91240143 -43.36243896 156.92880676 -44.31433105 156.94570923 C-50.41362101 156.88695414 -54.25128204 155.66974002 -58.625 151.3125 C-61.22214152 147.917577 -60.92740946 144.0970974 -60.93139648 139.97705078 C-60.93972 139.24483307 -60.94804352 138.51261536 -60.95661926 137.75820923 C-60.98068407 135.34135598 -60.98948682 132.92477279 -60.99609375 130.5078125 C-61.00506256 128.82396363 -61.01418446 127.14011556 -61.02345276 125.45626831 C-61.03993558 121.92736882 -61.04764161 118.39856413 -61.05053711 114.86962891 C-61.05592115 110.35455294 -61.09360434 105.84037155 -61.13928127 101.32554817 C-61.16906851 97.84761322 -61.17626101 94.3698933 -61.17726326 90.89184189 C-61.18146206 89.22768938 -61.1938828 87.56353602 -61.21478081 85.89950943 C-61.24173253 83.56792217 -61.23686057 81.23840339 -61.22436523 78.90673828 C-61.23919952 78.22393799 -61.25403381 77.5411377 -61.26931763 76.83764648 C-61.18531518 71.31462624 -59.3583653 69.08014383 -55.625 65.3125 C-52.54528678 63.19519716 -50.29409108 63.25215311 -46.625 63.3125 C-46.64594727 62.65354736 -46.66689453 61.99459473 -46.68847656 61.31567383 C-47.23243703 41.60054956 -46.25259533 27.62043316 -32.3125 12.5625 C-23.02416949 3.77175863 -12.56967535 0.09529701 0 0 Z " fill="#FCFCFC" transform="translate(511.625,267.6875)"/>
<path d="M0 0 C4.78603476 2.13407147 7.27504981 4.59693739 9.78125 9.30859375 C11.18425025 13.5175945 11.82128946 16.9323238 10.78125 21.30859375 C8.20693273 25.08270594 5.06410381 28.14808232 1.78125 31.30859375 C0.36421394 32.74572961 -1.05248082 34.18320214 -2.46875 35.62109375 C-3.71768222 36.85134536 -4.96773348 38.08046168 -6.21875 39.30859375 C-7.88677888 40.97389709 -9.55333037 42.64068098 -11.21875 44.30859375 C-22.21875 55.30859375 -22.21875 55.30859375 -24.94921875 58.00390625 C-27.24107297 60.23482947 -27.24107297 60.23482947 -29.03125 62.68359375 C-31.47864158 65.62046365 -34.17830194 67.94356684 -37.07421875 70.42578125 C-41.83530227 74.60582179 -46.20107343 79.11406892 -50.3293457 83.91479492 C-54.25605405 88.40954823 -58.39449017 92.66315423 -62.6015625 96.89453125 C-63.37885712 97.67752594 -64.15615173 98.46052063 -64.95700073 99.26724243 C-66.58762218 100.9072441 -68.21965047 102.54584807 -69.85302734 104.18310547 C-72.35065422 106.69052504 -74.83741694 109.20841239 -77.32421875 111.7265625 C-78.91600805 113.32487495 -80.5084338 114.92255386 -82.1015625 116.51953125 C-82.84125275 117.2715683 -83.58094299 118.02360535 -84.3430481 118.7984314 C-85.04082367 119.49320587 -85.73859924 120.18798035 -86.45751953 120.90380859 C-87.06483917 121.51477386 -87.67215881 122.12573914 -88.29788208 122.75521851 C-91.90674074 125.67364493 -95.58068046 126.61130987 -100.15625 126.68359375 C-100.96964844 126.71195313 -101.78304687 126.7403125 -102.62109375 126.76953125 C-110.10730043 125.44115172 -115.61306745 118.18729439 -120.703125 113.0546875 C-121.59992981 112.15742447 -122.49673462 111.26016144 -123.42071533 110.33570862 C-125.30910214 108.44430867 -127.19548544 106.55115284 -129.07861328 104.65454102 C-131.48995673 102.22614797 -133.90789155 99.80445065 -136.3281517 97.38494778 C-138.64344379 95.06931838 -140.95447597 92.74945089 -143.265625 90.4296875 C-144.13330505 89.56089462 -145.00098511 88.69210175 -145.8949585 87.79698181 C-146.69629211 86.98926834 -147.49762573 86.18155487 -148.32324219 85.34936523 C-149.02906433 84.63973129 -149.73488647 83.93009735 -150.46209717 83.19895935 C-154.46182446 78.89478112 -154.76560863 75.84249885 -154.66796875 70.171875 C-153.76892467 64.44144618 -150.16121884 61.08456526 -146.03125 57.30859375 C-140.16848268 55.22405426 -134.37046978 55.49242418 -128.59375 57.68359375 C-124.81847051 60.2476009 -121.99996594 63.72468293 -119.0390625 67.16015625 C-115.43635789 71.26936355 -111.53130255 75.08365689 -107.65625 78.93359375 C-106.92865479 79.65708008 -106.20105957 80.38056641 -105.45141602 81.12597656 C-103.70918528 82.85554483 -101.9650792 84.5831652 -100.21875 86.30859375 C-95.96460074 82.05862987 -91.72121064 77.7980163 -87.47851562 73.53662109 C-79.71210877 65.73752394 -71.94059623 57.94353448 -64.1661911 50.15241051 C-59.46604823 45.44180387 -54.76780988 40.7293429 -50.07373047 36.01269531 C-45.52713683 31.44438795 -40.97568932 26.8809691 -36.42082214 22.32091141 C-34.68712548 20.58352045 -32.9551896 18.84437059 -31.22505188 17.10343552 C-28.80765887 14.67154458 -26.38409942 12.2459644 -23.95898438 9.82177734 C-22.88966927 8.74167641 -22.88966927 8.74167641 -21.79875183 7.63975525 C-15.13357667 1.00216242 -9.60090716 -2.99183198 0 0 Z " fill="#FAFCFC" transform="translate(594.21875,489.69140625)"/>
<path d="M0 0 C8.40219019 5.02719279 11.46522432 11.06237972 15.4375 20 C15.4375 27.59 15.4375 35.18 15.4375 43 C-3.7025 43 -22.8425 43 -42.5625 43 C-42.5625 14.02610759 -42.5625 14.02610759 -33.83984375 5.01953125 C-24.6043182 -3.1704631 -11.38665744 -5.11095769 0 0 Z " fill="#284151" transform="translate(525.5625,288)"/>
<path d="M0 0 C3.98961657 2.0705605 6.48066778 4.07818059 8.1015625 8.2734375 C8.75104611 13.38812093 8.75104611 13.38812093 8.1015625 16.2734375 C6.79718905 17.7050669 5.49131758 19.1358343 4.15234375 20.53515625 C1.864059 24.32060872 3.46519961 29.11836213 4.1015625 33.2734375 C4.30502326 35.50120409 4.49289225 37.7304575 4.6640625 39.9609375 C4.8084375 41.7140625 4.9528125 43.4671875 5.1015625 45.2734375 C-1.4984375 45.2734375 -8.0984375 45.2734375 -14.8984375 45.2734375 C-14.681875 42.64375 -14.681875 42.64375 -14.4609375 39.9609375 C-14.37585938 38.87039063 -14.29078125 37.77984375 -14.203125 36.65625 C-14.00891785 34.5000527 -13.76880527 32.34715626 -13.46875 30.203125 C-12.58074584 24.43746019 -12.58074584 24.43746019 -14.7734375 19.2109375 C-15.4746875 18.5715625 -16.1759375 17.9321875 -16.8984375 17.2734375 C-18.4532044 14.16390371 -18.18488187 11.71076989 -17.8984375 8.2734375 C-14.12409689 1.00433706 -8.32218907 -3.18503532 0 0 Z " fill="#2F4656" transform="translate(516.8984375,356.7265625)"/>
</svg>
