<?xml version="1.0" encoding="UTF-8"?>
<svg version="1.1" xmlns="http://www.w3.org/2000/svg" width="1024" height="1024">
<path d="M0 0 C337.92 0 675.84 0 1024 0 C1024 337.92 1024 675.84 1024 1024 C686.08 1024 348.16 1024 0 1024 C0 686.08 0 348.16 0 0 Z " fill="#F9FAFA" transform="translate(0,0)"/>
<path d="M0 0 C1.56713338 -0.00418614 3.13426373 -0.00967058 4.7013886 -0.01631981 C8.95509677 -0.03062573 13.20860876 -0.02657687 17.462327 -0.019153 C22.07053447 -0.01438631 26.67870159 -0.02696192 31.28689575 -0.03717041 C40.29471101 -0.05429623 49.30245633 -0.05521131 58.31028363 -0.04995751 C65.63855695 -0.0459026 72.96680974 -0.04737499 80.29508209 -0.05270576 C81.34135285 -0.05345419 82.38762362 -0.05420261 83.46559955 -0.05497371 C85.59167312 -0.05650532 87.71774668 -0.05804367 89.84382024 -0.05958868 C109.74624395 -0.07329147 129.64862826 -0.06789189 149.55105105 -0.05640347 C167.71969501 -0.04647555 185.88823706 -0.05940811 204.0568653 -0.08333766 C222.75583067 -0.10777829 241.45474867 -0.11732422 260.15372968 -0.11068493 C270.63436424 -0.10720345 281.11492051 -0.10935354 291.59554291 -0.12693596 C300.5182177 -0.14172027 309.44075907 -0.14221262 318.36343142 -0.12486505 C322.90688253 -0.11640328 327.45009592 -0.11408595 331.99353409 -0.1295166 C371.37535474 -0.25330495 400.7560899 5.55779158 430.29571533 33.57518005 C450.02201421 53.77918132 458.01456556 81.4415551 457.92468262 109.08686829 C457.92699127 110.64642327 457.9301705 112.20597715 457.93413711 113.7655288 C457.9424383 118.02121293 457.93838122 122.27680664 457.93216467 126.53249097 C457.92762186 131.13382387 457.93463304 135.7351417 457.94012451 140.33647156 C457.9490011 149.33927243 457.94710411 158.34203989 457.94129923 167.34484206 C457.93677536 174.66518624 457.93617298 181.98552107 457.93834686 189.30586624 C457.93865333 190.34928479 457.93895979 191.39270334 457.93927555 192.46774063 C457.93991503 194.58770799 457.94056345 196.70767534 457.94122073 198.82764269 C457.94691909 218.69072071 457.94037418 238.55378025 457.92962 258.41685523 C457.92068757 275.4418074 457.92223495 292.46673229 457.93145752 309.49168396 C457.94217341 329.2824699 457.94636705 349.07323966 457.94023299 368.8640281 C457.93959593 370.97663951 457.93896718 373.08925092 457.93834686 375.20186234 C457.93803831 376.24118619 457.93772976 377.28051005 457.93741186 378.35132857 C457.93568868 385.65761754 457.93859194 392.96389619 457.94330597 400.27018356 C457.94892958 409.18180219 457.94736741 418.0933856 457.93674448 427.00500022 C457.93150726 431.54748541 457.92939758 436.08991201 457.93604279 440.6323967 C457.9420451 444.79861009 457.93865723 448.96471112 457.92808768 453.13091446 C457.92587164 454.63012087 457.92694902 456.12933697 457.93183926 457.62853704 C457.96866126 469.86521626 457.10885133 481.99171307 453.54571533 493.76268005 C453.33398682 494.46618591 453.1222583 495.16969177 452.90411377 495.89451599 C444.47885842 522.45006766 426.21782506 543.80829976 401.62139893 556.65135193 C383.98437155 565.56321615 366.90049444 568.86729518 347.24290466 568.76190186 C345.66523338 568.76465103 344.08756395 568.76871039 342.50989896 568.77394551 C338.22740176 568.78441521 333.94511686 568.77648066 329.66262925 568.76519501 C325.02392807 568.75628024 320.38525254 568.76481721 315.74655151 568.77105713 C306.68158834 568.78050398 297.61670525 568.77398212 288.55174806 568.76179419 C277.98333185 568.74811812 267.41493433 568.74981689 256.84651152 568.75192752 C237.98654551 568.7551112 219.12661738 568.74348393 200.2666626 568.72386169 C181.98540087 568.70484668 163.7041835 568.69777846 145.4229126 568.70335388 C125.48524721 568.70941653 105.54760127 568.70922673 85.60993749 568.69786805 C83.48283565 568.69666083 81.35573381 568.69545484 79.22863197 568.69425011 C78.1822093 568.69364657 77.13578662 568.69304303 76.05765417 568.6924212 C68.69827159 568.68854872 61.33889627 568.68893303 53.97951317 568.69083595 C45.00976458 568.69296157 36.04005474 568.68770569 27.07031705 568.6732224 C22.49766841 568.66599733 17.9250761 568.66188529 13.35242271 568.66646576 C9.16122068 568.67056194 4.97013464 568.66532092 0.77895013 568.65283968 C-0.73150969 568.64992801 -2.24198056 568.65032071 -3.75243745 568.65448276 C-15.63659232 568.68423921 -26.8477127 567.61671706 -38.14178467 563.76268005 C-38.90168701 563.50470642 -39.66158936 563.24673279 -40.44451904 562.98094177 C-52.38110993 558.7623176 -62.81245565 552.78488213 -72.32928467 544.38768005 C-73.14783936 543.70060974 -73.96639404 543.01353943 -74.80975342 542.3056488 C-94.61875152 525.26069695 -104.24636344 504.49891698 -109.32928467 479.38768005 C-109.50012186 478.65486382 -109.67095905 477.92204758 -109.84697312 477.16702479 C-110.39404118 474.01451739 -110.45852282 471.05733573 -110.46350574 467.85688496 C-110.46585798 467.21154972 -110.46821021 466.56621449 -110.47063372 465.90132365 C-110.47729776 463.73597692 -110.47686628 461.57069057 -110.47645569 459.40533447 C-110.47975597 457.838173 -110.48348188 456.27101238 -110.48759717 454.70385283 C-110.49760728 450.39449814 -110.5013324 446.08515738 -110.50398648 441.77579272 C-110.50789265 437.12858847 -110.517471 432.48139522 -110.52619934 427.834198 C-110.54595837 416.60732409 -110.55603077 405.38044929 -110.56492713 394.15356234 C-110.5693123 388.86259451 -110.57467865 383.57162767 -110.579916 378.28066063 C-110.59693026 360.68370808 -110.61142229 343.08675615 -110.61866474 325.48979664 C-110.62057455 320.92361259 -110.62249489 316.35742854 -110.62445068 311.79124451 C-110.62493442 310.65637876 -110.62541816 309.52151301 -110.62591656 308.35225739 C-110.63420876 289.98683599 -110.65953111 271.6214799 -110.69203136 253.25608698 C-110.72514988 234.3868934 -110.74311797 215.51773295 -110.74630898 196.64851016 C-110.74847 186.05991136 -110.75715845 175.4714077 -110.78277016 164.8828373 C-110.80454296 155.86061942 -110.81249546 146.83851978 -110.80280337 137.81627861 C-110.79827723 133.21859149 -110.80004581 128.62114798 -110.81956482 124.02349472 C-110.8373316 119.80179974 -110.83609083 115.58052364 -110.82066753 111.35882338 C-110.81831171 109.84385259 -110.82250773 108.32885174 -110.83449618 106.81392656 C-111.05862022 76.58236141 -99.38216657 51.11785629 -78.64178467 29.32518005 C-67.97723859 18.97236686 -55.96459139 12.10894345 -42.32928467 6.38768005 C-41.10145264 5.86560974 -41.10145264 5.86560974 -39.84881592 5.33299255 C-27.24205575 0.60240943 -13.30314088 -0.05902611 0 0 Z " fill="#263B4B" transform="translate(338.32928466796875,227.61231994628906)"/>
<path d="M0 0 C2.45011874 0.02384484 4.89915749 0.02049277 7.34936523 0.01391602 C16.4571941 0.03028043 25.14638053 0.63501086 34.12084961 2.33618164 C35.44995245 2.55173224 36.77932888 2.76561214 38.10913086 2.97680664 C47.59934747 4.71649382 56.20287197 7.71508428 65.12084961 11.33618164 C63.24704273 15.2451759 60.96596495 18.84520591 58.65600586 22.50805664 C55.00859563 29.2274587 53.58275173 35.0009211 53.68334961 42.64868164 C53.69382324 43.48681396 53.70429687 44.32494629 53.71508789 45.18847656 C54.08607971 57.88204769 59.53882907 65.91206414 66.93286133 75.74829102 C73.46759425 84.48275524 76.47041285 91.7344346 79.12084961 102.33618164 C91.33084961 102.33618164 103.54084961 102.33618164 116.12084961 102.33618164 C117.46553663 98.97446408 118.48438787 96.08656211 119.37084961 92.64868164 C122.46184762 82.3045497 129.20241302 74.42306529 136.12084961 66.33618164 C139.47891897 69.11888087 141.16021931 72.87899712 143.05834961 76.71118164 C143.41243896 77.42580566 143.76652832 78.14042969 144.13134766 78.87670898 C147.18303954 85.19380258 149.38486798 91.53482365 151.12084961 98.33618164 C151.41862305 99.35067383 151.71639648 100.36516602 152.02319336 101.41040039 C158.74995378 127.10848515 153.05525391 154.58709899 139.91772461 177.25805664 C123.73164506 203.79924982 123.73164506 203.79924982 113.12084961 207.33618164 C111.18334961 205.93774414 111.18334961 205.93774414 109.12084961 203.96118164 C103.64232593 198.75243375 98.88327762 198.99422806 91.51538086 199.05493164 C87.29654011 199.40447886 85.15319374 200.38363604 82.12084961 203.33618164 C81.58459961 204.20243164 81.04834961 205.06868164 80.49584961 205.96118164 C77.07278334 209.38424791 73.59973437 209.30494734 68.89819336 209.78149414 C66.10285894 210.04359433 66.10285894 210.04359433 64.81933594 211.84765625 C62.3373257 214.02284906 60.4252834 213.7050697 57.16772461 213.70727539 C55.99081055 213.72467773 54.81389648 213.74208008 53.60131836 213.76000977 C51.1299753 213.76906704 48.65861517 213.77432439 46.18725586 213.77563477 C38.19641757 213.90198935 33.44086847 214.46172527 27.37866211 219.89868164 C23.98470514 224.205496 23.07273016 227.2985707 22.80444336 232.66430664 C22.76254883 233.46352539 22.7206543 234.26274414 22.67749023 235.08618164 C22.63817383 235.91118164 22.59885742 236.73618164 22.55834961 237.58618164 C22.49357422 238.84688477 22.49357422 238.84688477 22.42749023 240.13305664 C22.32176418 242.20058835 22.22083665 244.26836445 22.12084961 246.33618164 C-23.57794714 247.0464124 -23.57794714 247.0464124 -38.37304688 242.58398438 C-43.1925891 241.17972251 -43.1925891 241.17972251 -47.92822266 242.2512207 C-49.95760165 243.76458518 -51.7480025 245.38805312 -53.56665039 247.14868164 C-54.94839208 248.37195693 -56.3365465 249.58802337 -57.73071289 250.79711914 C-58.42197266 251.40136719 -59.11323242 252.00561523 -59.82543945 252.62817383 C-69.25551708 260.47087748 -80.48113947 265.14775594 -91.87915039 269.33618164 C-92.74024414 269.69583008 -93.60133789 270.05547852 -94.48852539 270.42602539 C-102.31825224 273.40695081 -110.60266472 273.62433781 -118.87915039 273.33618164 C-117.36110642 269.9825437 -115.38151571 267.30143927 -113.12915039 264.39868164 C-108.72555521 258.43381181 -105.72063831 252.15937237 -102.87915039 245.33618164 C-102.51821289 244.49829102 -102.15727539 243.66040039 -101.78540039 242.79711914 C-100.06007848 238.11197774 -99.49315662 233.27140149 -98.87915039 228.33618164 C-98.72188477 227.21727539 -98.56461914 226.09836914 -98.40258789 224.94555664 C-97.82980436 218.61512625 -97.82980436 218.61512625 -100.65649414 213.19555664 C-102.33888889 211.89763136 -104.06807078 210.65912514 -105.82836914 209.46899414 C-126.35795378 195.11668529 -141.22090578 169.20731846 -146.08618164 144.97680664 C-147.21016971 138.16551376 -147.24933003 131.35079368 -147.25415039 124.46118164 C-147.25568115 123.24994629 -147.25721191 122.03871094 -147.25878906 120.79077148 C-146.89754368 91.26552065 -133.75038419 67.43136824 -113.87915039 46.33618164 C-113.29133789 45.68391602 -112.70352539 45.03165039 -112.09790039 44.35961914 C-94.28655179 25.37647129 -68.58415214 12.59502257 -43.81665039 5.52368164 C-42.86532227 5.24947388 -42.86532227 5.24947388 -41.89477539 4.96972656 C-28.04641629 1.29168128 -14.28369869 -0.14817413 0 0 Z " fill="#FDFDFD" transform="translate(504.879150390625,323.663818359375)"/>
<path d="M0 0 C6.6 0 13.2 0 20 0 C20.66 1.32 21.32 2.64 22 4 C24.5541831 5.27709155 26.36871057 5.13395161 29.22827148 5.14526367 C30.86523232 5.15483345 30.86523232 5.15483345 32.53526306 5.16459656 C33.71858719 5.16570938 34.90191132 5.1668222 36.12109375 5.16796875 C37.3319313 5.17129715 38.54276886 5.17462555 39.79029846 5.17805481 C42.35506815 5.18312514 44.91984445 5.1854631 47.48461914 5.18530273 C51.41759053 5.18748893 55.35028142 5.20564307 59.28320312 5.22460938 C61.77083237 5.22754327 64.25846295 5.22952809 66.74609375 5.23046875 C67.92739365 5.23765427 69.10869354 5.24483978 70.32579041 5.25224304 C71.96747948 5.2476281 71.96747948 5.2476281 73.64233398 5.24291992 C75.08889626 5.24505745 75.08889626 5.24505745 76.56468201 5.24723816 C79.25839841 5.16560741 79.25839841 5.16560741 82 3 C82.33 2.01 82.66 1.02 83 0 C89.6 0 96.2 0 103 0 C103 41.91 103 83.82 103 127 C69.01 127 35.02 127 0 127 C0 85.09 0 43.18 0 0 Z " fill="#FAFCFC" transform="translate(549,560)"/>
<path d="M0 0 C0.73992187 0.52335937 1.47984375 1.04671875 2.2421875 1.5859375 C3.19738281 2.24722656 3.19738281 2.24722656 4.171875 2.921875 C11.56499586 8.60636348 16.8541866 17.61647046 19.2421875 26.5859375 C21.19997089 41.86495178 18.67653104 53.37594859 9.3671875 65.5234375 C8.83399902 66.20833252 8.30081055 66.89322754 7.75146484 67.59887695 C1.24634857 75.9979005 -2.73952951 84.15814208 -4.7578125 94.5859375 C-7.32836456 97.15648956 -9.0686875 96.8439648 -12.57434082 96.88948059 C-13.36707397 96.88856918 -14.15980713 96.88765778 -14.9765625 96.88671875 C-15.79024292 96.89100388 -16.60392334 96.895289 -17.44226074 96.89970398 C-19.16380888 96.90545086 -20.88538131 96.9059449 -22.60693359 96.90161133 C-25.2474893 96.89844986 -27.88692657 96.92191014 -30.52734375 96.94726562 C-32.19791525 96.94953836 -33.86848977 96.95024223 -35.5390625 96.94921875 C-36.33179565 96.9584285 -37.12452881 96.96763824 -37.94128418 96.97712708 C-40.16601562 96.95825195 -40.16601562 96.95825195 -43.7578125 96.5859375 C-45.82022406 93.49232016 -46.27803995 91.61148587 -47.0078125 88.0234375 C-49.16793328 79.11561269 -53.8058601 72.77949937 -59.3203125 65.5859375 C-68.86546847 53.09514318 -71.23607578 42.05409461 -69.7578125 26.5859375 C-68.67680772 22.16011973 -67.03508585 18.51729175 -64.7578125 14.5859375 C-64.28472656 13.70550781 -63.81164062 12.82507813 -63.32421875 11.91796875 C-57.08228658 1.62889852 -46.29016507 -3.72494973 -34.9453125 -6.79296875 C-22.58147497 -9.20209886 -10.52874064 -6.89582055 0 0 Z " fill="#02A3E4" transform="translate(627.7578125,330.4140625)"/>
<path d="M0 0 C1.02480469 0.00644531 2.04960938 0.01289062 3.10546875 0.01953125 C4.16894531 0.03628906 5.23242188 0.05304687 6.328125 0.0703125 C7.94654297 0.08384766 7.94654297 0.08384766 9.59765625 0.09765625 C12.25790749 0.1211983 14.91804449 0.15706853 17.578125 0.1953125 C17.578125 4.8153125 17.578125 9.4353125 17.578125 14.1953125 C10.978125 14.1953125 4.378125 14.1953125 -2.421875 14.1953125 C-2.421875 56.1053125 -2.421875 98.0153125 -2.421875 141.1953125 C31.568125 141.1953125 65.558125 141.1953125 100.578125 141.1953125 C100.578125 99.2853125 100.578125 57.3753125 100.578125 14.1953125 C93.978125 14.1953125 87.378125 14.1953125 80.578125 14.1953125 C80.578125 9.9053125 80.578125 5.6153125 80.578125 1.1953125 C84.64102508 1.11435434 88.70231067 1.05482605 92.765625 1.0078125 C94.49135742 0.97010742 94.49135742 0.97010742 96.25195312 0.93164062 C97.91967773 0.91713867 97.91967773 0.91713867 99.62109375 0.90234375 C100.64227295 0.8866333 101.66345215 0.87092285 102.71557617 0.85473633 C106.06520131 1.25326316 107.88129265 2.19702023 110.578125 4.1953125 C112.85917373 7.6168856 112.83245224 8.84642973 112.84555054 12.86860657 C112.85408051 14.05045532 112.86261047 15.23230408 112.87139893 16.44996643 C112.87049255 17.74820847 112.86958618 19.0464505 112.86865234 20.3840332 C112.87463618 21.76388921 112.8814414 23.14374185 112.88900757 24.52359009 C112.90669175 28.27371357 112.91136402 32.0237458 112.91263914 35.77390695 C112.91453788 38.90501533 112.9218953 42.03610245 112.92898333 45.16720265 C112.94527484 52.55605946 112.95015167 59.94486753 112.94873047 67.33374023 C112.9475295 74.95288524 112.96862052 82.57174676 113.0002178 90.19082004 C113.02638358 96.73360886 113.03709761 103.27630513 113.03581965 109.81914586 C113.03531001 113.72619949 113.04099387 117.63300135 113.06217575 121.54000282 C113.08156291 125.2164743 113.0816798 128.89245405 113.06714249 132.56894302 C113.06405952 134.55734389 113.08072841 136.54574482 113.09802246 138.53407288 C113.01975076 149.6400095 113.01975076 149.6400095 108.578125 154.1953125 C105.58973712 156.01839403 103.35783679 156.44844356 99.87879944 156.46273804 C98.93814133 156.47126801 97.99748322 156.47979797 97.02832031 156.48858643 C96.00327393 156.48768005 94.97822754 156.48677368 93.92211914 156.48583984 C92.29469032 156.49591568 92.29469032 156.49591568 90.63438416 156.50619507 C87.04397009 156.52521025 83.45374255 156.52910091 79.86328125 156.53125 C77.36990786 156.53767487 74.87653524 156.54440299 72.38316345 156.55142212 C67.15525094 156.56340327 61.92738584 156.56718761 56.69946289 156.56591797 C51.32857429 156.56484904 45.95797299 156.57894935 40.5871582 156.60693359 C34.1050944 156.64022859 27.62328904 156.65403082 21.14114189 156.65269852 C18.66956561 156.65506108 16.19798677 156.66392122 13.7264576 156.67936325 C10.27184392 156.69892831 6.8181535 156.693222 3.36352539 156.68115234 C2.34050323 156.69239136 1.31748108 156.70363037 0.26345825 156.71520996 C-4.05281068 156.67683166 -6.69037636 156.62243522 -10.47096252 154.41494751 C-13.92163863 150.48896847 -14.67228633 147.65211356 -14.69602966 142.43972778 C-14.70600479 141.26491852 -14.71597992 140.09010925 -14.72625732 138.87969971 C-14.726922 137.59440369 -14.72758667 136.30910767 -14.72827148 134.98486328 C-14.73589476 133.61471099 -14.74432256 132.24456297 -14.75349426 130.87442017 C-14.7754288 127.15535623 -14.78423665 123.43637452 -14.78932071 119.71725321 C-14.79296532 117.39281014 -14.79920591 115.06838857 -14.8063221 112.7439537 C-14.83081235 104.63218999 -14.8438677 96.5204902 -14.84741211 88.40869141 C-14.85104774 80.85138328 -14.88094582 73.29448119 -14.92281669 65.73729718 C-14.95752215 59.24544259 -14.97296058 52.75372257 -14.97365814 46.26177585 C-14.97445084 42.38596766 -14.98318554 38.5105732 -15.01165581 34.63486099 C-15.0378416 30.98866789 -15.0400397 27.3432314 -15.02400017 23.69698715 C-15.02132269 21.72527057 -15.04336559 19.75356868 -15.06619263 17.78198242 C-14.98625454 8.11726626 -14.98625454 8.11726626 -12.00776672 4.43865967 C-7.86869006 0.84787285 -5.47990098 -0.06088779 0 0 Z " fill="#04A0DF" transform="translate(551.421875,545.8046875)"/>
<path d="M0 0 C2.89163614 1.11722305 4.45709741 2.01885074 5.97265625 4.7578125 C6.72031283 6.4756839 7.36775994 8.23638298 8 10 C8.91523437 10.04898438 9.83046875 10.09796875 10.7734375 10.1484375 C11.96195313 10.22320313 13.15046875 10.29796875 14.375 10.375 C16.15003906 10.47941406 16.15003906 10.47941406 17.9609375 10.5859375 C21 11 21 11 23 13 C23.17163731 15.56292317 23.23264558 18.00345857 23.1875 20.5625 C23.18685547 21.26052734 23.18621094 21.95855469 23.18554688 22.67773438 C23.14031158 27.85968842 23.14031158 27.85968842 22 29 C20.4093669 29.09854422 18.81438523 29.12798694 17.22070312 29.12939453 C15.69407043 29.13412277 15.69407043 29.13412277 14.13659668 29.13894653 C13.02933228 29.1369223 11.92206787 29.13489807 10.78125 29.1328125 C9.65303833 29.13376923 8.52482666 29.13472595 7.36242676 29.13571167 C4.97159774 29.13639368 2.58076689 29.13453797 0.18994141 29.13037109 C-3.48409151 29.12502316 -7.15800217 29.13031543 -10.83203125 29.13671875 C-13.14843777 29.13605797 -15.46484422 29.13477682 -17.78125 29.1328125 C-18.8885144 29.13483673 -19.99577881 29.13686096 -21.13659668 29.13894653 C-22.15435181 29.13579437 -23.17210693 29.13264221 -24.22070312 29.12939453 C-25.12147583 29.12859894 -26.02224854 29.12780334 -26.95031738 29.12698364 C-29 29 -29 29 -30 28 C-30.09981214 25.3226862 -30.13879875 22.67695825 -30.125 20 C-30.12886719 19.24976563 -30.13273438 18.49953125 -30.13671875 17.7265625 C-30.12661053 12.12661053 -30.12661053 12.12661053 -29 11 C-26.47403741 10.76346477 -23.96892793 10.57826308 -21.4375 10.4375 C-20.72658203 10.39431641 -20.01566406 10.35113281 -19.28320312 10.30664062 C-17.52238088 10.20028223 -15.7612168 10.09961154 -14 10 C-13.5875 8.906875 -13.175 7.81375 -12.75 6.6875 C-10.02513198 0.45562592 -6.78623703 -0.71434074 0 0 Z " fill="#F8FAFB" transform="translate(604,532)"/>
<path d="M0 0 C19.8 0 39.6 0 60 0 C60 1.98 60 3.96 60 6 C40.2 6 20.4 6 0 6 C0 4.02 0 2.04 0 0 Z " fill="#19ABE7" transform="translate(581,644)"/>
<path d="M0 0 C19.8 0 39.6 0 60 0 C60 1.98 60 3.96 60 6 C40.2 6 20.4 6 0 6 C0 4.02 0 2.04 0 0 Z " fill="#17ACEA" transform="translate(581,623)"/>
<path d="M0 0 C19.8 0 39.6 0 60 0 C60 1.98 60 3.96 60 6 C40.2 6 20.4 6 0 6 C0 4.02 0 2.04 0 0 Z " fill="#1BAEEA" transform="translate(581,602)"/>
<path d="M0 0 C19.47 0 38.94 0 59 0 C59 1.98 59 3.96 59 6 C39.53 6 20.06 6 0 6 C0 4.02 0 2.04 0 0 Z " fill="#15ABE9" transform="translate(582,665)"/>
<path d="M0 0 C19.8 0 39.6 0 60 0 C60 1.65 60 3.3 60 5 C40.2 5 20.4 5 0 5 C0 3.35 0 1.7 0 0 Z " fill="#06A5E6" transform="translate(581,582)"/>
<path d="M0 0 C0.73541016 0.00202423 1.47082031 0.00404846 2.22851562 0.00613403 C2.97939453 0.00517731 3.73027344 0.00422058 4.50390625 0.00323486 C6.09440189 0.00255315 7.6849003 0.00440682 9.27539062 0.00857544 C11.71816217 0.01392386 14.16074984 0.00863019 16.60351562 0.00222778 C18.1451827 0.00288857 19.68684966 0.00416973 21.22851562 0.00613403 C21.96392578 0.0041098 22.69933594 0.00208557 23.45703125 0 C28.61356402 0.02399493 28.61356402 0.02399493 29.72851562 1.13894653 C29.85351562 3.63894653 29.85351562 3.63894653 29.72851562 6.13894653 C27.76109934 8.10636282 23.95283832 7.3028286 21.26367188 7.30691528 C20.14091103 7.31190788 20.14091103 7.31190788 18.99546814 7.31700134 C17.40917578 7.32207346 15.82287272 7.32440958 14.23657227 7.32424927 C11.80467193 7.32643426 9.37322613 7.34458234 6.94140625 7.36355591 C5.40299635 7.36649003 3.86458429 7.3684747 2.32617188 7.36941528 C1.23079857 7.38019356 1.23079857 7.38019356 0.11329651 7.39118958 C-5.0426613 7.36776961 -5.0426613 7.36776961 -7.27148438 5.13894653 C-6.48370182 -0.06041833 -5.03888801 0.02344749 0 0 Z " fill="#21AEEB" transform="translate(591.271484375,429.8610534667969)"/>
<path d="M0 0 C1.47583955 0.0001591 2.95168467 0.00585225 4.42749023 0.01586914 C5.20293686 0.01728409 5.97838348 0.01869904 6.77732849 0.02015686 C9.26361893 0.02577194 11.74982059 0.03832693 14.23608398 0.05102539 C15.91772331 0.05603845 17.59936405 0.06060169 19.28100586 0.06469727 C23.41189965 0.07574626 27.54272674 0.09302094 31.67358398 0.11352539 C32.05577166 1.76967196 32.387535 3.43809563 32.67358398 5.11352539 C31.67358398 6.11352539 31.67358398 6.11352539 28.34716797 6.22705078 C26.87132842 6.22689168 25.3954833 6.22119853 23.91967773 6.21118164 C23.14423111 6.20976669 22.36878448 6.20835175 21.56983948 6.20689392 C19.08354904 6.20127884 16.59734738 6.18872385 14.11108398 6.17602539 C12.42944466 6.17101233 10.74780392 6.16644909 9.06616211 6.16235352 C4.93526832 6.15130452 0.80444122 6.13402984 -3.32641602 6.11352539 C-3.70860369 4.45737882 -4.04036703 2.78895515 -4.32641602 1.11352539 C-3.32641602 0.11352539 -3.32641602 0.11352539 0 0 Z " fill="#0BA6EB" transform="translate(588.326416015625,449.886474609375)"/>
<path d="M0 0 C1.47583955 0.0001591 2.95168467 0.00585225 4.42749023 0.01586914 C5.20293686 0.01728409 5.97838348 0.01869904 6.77732849 0.02015686 C9.26361893 0.02577194 11.74982059 0.03832693 14.23608398 0.05102539 C15.91772331 0.05603845 17.59936405 0.06060169 19.28100586 0.06469727 C23.41189965 0.07574626 27.54272674 0.09302094 31.67358398 0.11352539 C32.05577166 1.76967196 32.387535 3.43809563 32.67358398 5.11352539 C31.67358398 6.11352539 31.67358398 6.11352539 28.34716797 6.22705078 C26.87132842 6.22689168 25.3954833 6.22119853 23.91967773 6.21118164 C23.14423111 6.20976669 22.36878448 6.20835175 21.56983948 6.20689392 C19.08354904 6.20127884 16.59734738 6.18872385 14.11108398 6.17602539 C12.42944466 6.17101233 10.74780392 6.16644909 9.06616211 6.16235352 C4.93526832 6.15130452 0.80444122 6.13402984 -3.32641602 6.11352539 C-3.70860369 4.45737882 -4.04036703 2.78895515 -4.32641602 1.11352539 C-3.32641602 0.11352539 -3.32641602 0.11352539 0 0 Z " fill="#0AA4E7" transform="translate(588.326416015625,439.886474609375)"/>
<path d="M0 0 C4.62 0 9.24 0 14 0 C14 4.62 14 9.24 14 14 C9.38 14 4.76 14 0 14 C0 9.38 0 4.76 0 0 Z " fill="#0BA5E6" transform="translate(560,661)"/>
<path d="M0 0 C4.62 0 9.24 0 14 0 C14 4.62 14 9.24 14 14 C9.38 14 4.76 14 0 14 C0 9.38 0 4.76 0 0 Z " fill="#0CA7E8" transform="translate(560,619)"/>
<path d="M0 0 C4.62 0 9.24 0 14 0 C14 4.62 14 9.24 14 14 C9.38 14 4.76 14 0 14 C0 9.38 0 4.76 0 0 Z " fill="#0BA1E7" transform="translate(560,598)"/>
<path d="M0 0 C4.62 0 9.24 0 14 0 C14.09765625 10.05859375 14.09765625 10.05859375 14 13 C13 14 13 14 10.05859375 14.09765625 C6.70572917 14.06510417 3.35286458 14.03255208 0 14 C0 9.38 0 4.76 0 0 Z " fill="#0CA7E9" transform="translate(560,640)"/>
<path d="M0 0 C7.92 0 15.84 0 24 0 C21 5 21 5 19 6 C16.52443304 6.17682621 14.10250105 6.27730822 11.625 6.3125 C10.61566406 6.35600586 10.61566406 6.35600586 9.5859375 6.40039062 C6.10498176 6.44493041 4.32228897 6.24654598 1.5234375 4.10546875 C0 2 0 2 0 0 Z " fill="#0FA4E7" transform="translate(591,460)"/>
<path d="M0 0 C0.99 0.33 1.98 0.66 3 1 C1.59601721 5.10110762 -0.37087038 7.98089159 -3.125 11.3125 C-3.84945312 12.19550781 -4.57390625 13.07851563 -5.3203125 13.98828125 C-5.87460937 14.65214844 -6.42890625 15.31601562 -7 16 C-10.32406103 14.42875266 -12.59694427 12.83217282 -15 10 C-15 9.01 -15 8.02 -15 7 C-11.62537285 7.54723683 -9.91765 8.0549 -7 10 C-6.773125 9.46375 -6.54625 8.9275 -6.3125 8.375 C-4.56617944 5.21499137 -2.3597151 2.7323017 0 0 Z " fill="#13A8EA" transform="translate(574,575)"/>
<path d="M0 0 C3 0.125 3 0.125 4 1.125 C4.04080783 3.12458364 4.04254356 5.12545254 4 7.125 C1.125 7.75 1.125 7.75 -2 8.125 C-4 6.125 -4 6.125 -4.1875 3.5625 C-3.91067812 -0.03618446 -3.67800108 0.15325004 0 0 Z " fill="#243B4C" transform="translate(601,537.875)"/>
<path d="M0 0 C-1.612328 4.03082 -4.46234596 6.75944137 -7.5 9.75 C-7.99886719 10.25660156 -8.49773437 10.76320313 -9.01171875 11.28515625 C-12.74658861 15 -12.74658861 15 -15 15 C-13.387672 10.96918 -10.53765404 8.24055863 -7.5 5.25 C-7.00113281 4.74339844 -6.50226563 4.23679687 -5.98828125 3.71484375 C-2.25341139 0 -2.25341139 0 0 0 Z " fill="#314857" transform="translate(267,252)"/>
<path d="M0 0 C0.8971875 0.309375 0.8971875 0.309375 1.8125 0.625 C0.966875 1.12 0.12125 1.615 -0.75 2.125 C-4.97486954 4.90796896 -8.00371924 8.74417848 -11.1875 12.625 C-11.5175 11.635 -11.8475 10.645 -12.1875 9.625 C-10.859375 7.65234375 -10.859375 7.65234375 -8.9375 5.5625 C-8.31359375 4.87027344 -7.6896875 4.17804687 -7.046875 3.46484375 C-3.02173815 -0.51801225 -3.02173815 -0.51801225 0 0 Z " fill="#304350" transform="translate(540.1875,538.375)"/>
</svg>
