<?xml version="1.0" encoding="UTF-8"?>
<svg version="1.1" xmlns="http://www.w3.org/2000/svg" width="1024" height="1024">
<path d="M0 0 C337.92 0 675.84 0 1024 0 C1024 337.92 1024 675.84 1024 1024 C686.08 1024 348.16 1024 0 1024 C0 686.08 0 348.16 0 0 Z " fill="#FBFBFB" transform="translate(0,0)"/>
<path d="M0 0 C1.56611997 -0.00418385 3.13223691 -0.00966707 4.69834834 -0.01631981 C8.95850555 -0.03065585 13.21846735 -0.02656716 17.47863472 -0.019153 C22.09026665 -0.01439391 26.70185795 -0.02695538 31.31347656 -0.03717041 C40.33192522 -0.05431139 49.35030407 -0.05520806 58.36876478 -0.04995751 C65.70519903 -0.04590514 73.04161276 -0.047372 80.37804604 -0.05270576 C81.4248765 -0.05345419 82.47170696 -0.05420261 83.55025956 -0.05497371 C85.67738193 -0.0565053 87.8045043 -0.05804365 89.93162666 -0.05958868 C109.85213314 -0.07329717 129.77260028 -0.06788805 149.69310585 -0.05640347 C167.88195207 -0.04647685 186.07069648 -0.05940484 204.25952699 -0.08333766 C222.97311436 -0.10777379 241.68665441 -0.1173252 260.40025741 -0.11068493 C270.89150917 -0.10720221 281.38268272 -0.10936172 291.87392235 -0.12693596 C300.80655558 -0.14171468 309.73905554 -0.14221991 318.67168631 -0.12486505 C323.22107532 -0.11639838 327.77022683 -0.11409818 332.31960297 -0.1295166 C375.63342674 -0.26587712 375.63342674 -0.26587712 393.96699524 8.20018005 C394.75026184 8.5478241 395.53352844 8.89546814 396.3405304 9.25364685 C408.00603342 14.55713688 417.4055993 21.92594719 426.90449524 30.38768005 C427.57351868 30.97162537 428.24254211 31.55557068 428.93183899 32.1572113 C447.43891035 49.35790116 456.90064072 75.49661562 458.08851492 100.21728587 C458.16266928 104.27609309 458.17657157 108.33024798 458.16519165 112.38948059 C458.16822029 113.94536223 458.1721133 115.50124239 458.17678422 117.05711997 C458.18698112 121.2888288 458.18490385 125.52045212 458.18060362 129.7521677 C458.17812118 134.33305821 458.18716924 138.91392892 458.19464111 143.49481201 C458.2073478 152.45208355 458.20918689 161.40932504 458.20684085 170.36660407 C458.20505315 177.6515729 458.20681699 184.93653265 458.21106529 192.2215004 C458.21166048 193.26087095 458.21225567 194.3002415 458.2128689 195.37110812 C458.21408073 197.48301668 458.21529486 199.59492524 458.21651127 201.70683379 C458.2273711 221.48274275 458.22523159 241.25863463 458.21912643 261.03454454 C458.2139576 279.09930255 458.22521459 297.16400663 458.24422465 315.22875397 C458.26362738 333.81010993 458.27185484 352.39144042 458.26810139 370.97280657 C458.26619318 381.39185082 458.26863987 391.81084916 458.28281593 402.2298851 C458.29476172 411.09890306 458.2960988 419.96784685 458.28402577 428.83686589 C458.27815973 433.35546896 458.27697423 437.87393659 458.28902817 442.39253044 C458.29996375 446.54032226 458.29669367 450.6878668 458.28276648 454.83564742 C458.28014051 456.32472442 458.28241885 457.81382129 458.29050235 459.30287866 C458.35848768 472.77688862 456.96698302 486.44509531 452.15449524 499.13768005 C451.8977301 499.83466003 451.64096497 500.53164001 451.37641907 501.2497406 C441.85068659 526.2916737 423.14943861 547.08650458 398.81440735 558.36399841 C391.38970916 561.6429803 383.77882442 564.39549365 375.90449524 566.38768005 C375.25850453 566.55559231 374.61251382 566.72350456 373.94694763 566.89650506 C366.10140143 568.71448887 358.31698267 568.67027734 350.31414795 568.64837646 C348.74195759 568.65140084 347.16976871 568.65529175 345.5975824 568.65996903 C341.29756956 568.6702214 336.99764036 568.66807424 332.69762075 568.66378844 C328.05188377 568.6613161 323.40616666 568.67034184 318.76043701 568.67782593 C309.66545218 568.69056219 300.57049688 568.69236784 291.47550463 568.69002566 C284.07838344 568.68824065 276.6812712 568.6899961 269.28415108 568.69425011 C267.70326387 568.69514289 267.70326387 568.69514289 266.09043955 568.69605371 C263.94913832 568.69726551 261.80783709 568.69847964 259.66653586 568.69969609 C239.59259095 568.71056812 219.51866285 568.7084111 199.444717 568.70231124 C181.10481404 568.69714603 162.76496427 568.70838768 144.42507183 568.72740946 C125.57267125 568.7468121 106.7202958 568.75503937 87.86788517 568.75128621 C77.29227102 568.74937738 66.71670209 568.75183038 56.14109612 568.76600075 C47.13471557 568.77794669 38.12840805 568.77928376 29.12202644 568.76721058 C24.53257453 568.76134354 19.943256 568.76016171 15.35381317 568.77221298 C11.14105835 568.78314584 6.92854705 568.77988157 2.71580327 568.7659513 C1.20302382 568.76332449 -0.30977519 568.76560638 -1.82253534 568.77368716 C-31.1274207 568.91918685 -56.54453437 559.29922669 -78.09550476 539.38768005 C-78.83155945 538.7328363 -79.56761414 538.07799255 -80.32597351 537.40330505 C-98.0730252 520.82522084 -108.65699126 495.5034514 -110.3724544 471.51489353 C-110.47852885 467.38842453 -110.49644698 463.27192462 -110.47645569 459.14463806 C-110.47992134 457.56258082 -110.48469194 455.98052599 -110.49063742 454.39847612 C-110.50305258 450.09445566 -110.49702077 445.79063715 -110.48767877 441.48661637 C-110.48084933 436.82804959 -110.49138868 432.16951587 -110.49961853 427.51095581 C-110.51291675 418.40193711 -110.51009562 409.29299283 -110.50138061 400.18397129 C-110.49458902 392.77693822 -110.49369371 385.36992592 -110.49695206 377.96289062 C-110.49741176 376.90629046 -110.49787146 375.8496903 -110.49834508 374.76107195 C-110.49930432 372.61420992 -110.50027696 370.4673479 -110.50126286 368.32048589 C-110.5098053 348.21747835 -110.50000063 328.11451194 -110.48386176 308.01151115 C-110.47045963 290.7845039 -110.47278804 273.5575573 -110.48661804 256.33055115 C-110.50269413 236.29654871 -110.50898143 216.26258226 -110.49978125 196.22857428 C-110.49882566 194.08987268 -110.49788255 191.95117109 -110.49695206 189.81246948 C-110.49648923 188.76035075 -110.4960264 187.70823201 -110.49554955 186.62423089 C-110.49296575 179.23120857 -110.49731748 171.8382092 -110.50439072 164.44519043 C-110.51282848 155.42825546 -110.51047786 146.41139879 -110.49454848 137.39447272 C-110.48669633 132.79916174 -110.48352169 128.20398102 -110.49349594 123.60867119 C-110.50250711 119.39313071 -110.49740557 115.17783988 -110.48156328 110.9623217 C-110.47824243 109.44636495 -110.4798479 107.93038663 -110.48719065 106.41444403 C-110.61782101 77.17728489 -99.424946 51.3017275 -79.34550476 30.20018005 C-57.70103372 9.39856224 -29.72974518 -0.13129104 0 0 Z " fill="#FDFEFD" transform="translate(338.0955047607422,227.61231994628906)"/>
<path d="M0 0 C1.56611997 -0.00418385 3.13223691 -0.00966707 4.69834834 -0.01631981 C8.95850555 -0.03065585 13.21846735 -0.02656716 17.47863472 -0.019153 C22.09026665 -0.01439391 26.70185795 -0.02695538 31.31347656 -0.03717041 C40.33192522 -0.05431139 49.35030407 -0.05520806 58.36876478 -0.04995751 C65.70519903 -0.04590514 73.04161276 -0.047372 80.37804604 -0.05270576 C81.4248765 -0.05345419 82.47170696 -0.05420261 83.55025956 -0.05497371 C85.67738193 -0.0565053 87.8045043 -0.05804365 89.93162666 -0.05958868 C109.85213314 -0.07329717 129.77260028 -0.06788805 149.69310585 -0.05640347 C167.88195207 -0.04647685 186.07069648 -0.05940484 204.25952699 -0.08333766 C222.97311436 -0.10777379 241.68665441 -0.1173252 260.40025741 -0.11068493 C270.89150917 -0.10720221 281.38268272 -0.10936172 291.87392235 -0.12693596 C300.80655558 -0.14171468 309.73905554 -0.14221991 318.67168631 -0.12486505 C323.22107532 -0.11639838 327.77022683 -0.11409818 332.31960297 -0.1295166 C375.63342674 -0.26587712 375.63342674 -0.26587712 393.96699524 8.20018005 C394.75026184 8.5478241 395.53352844 8.89546814 396.3405304 9.25364685 C408.00603342 14.55713688 417.4055993 21.92594719 426.90449524 30.38768005 C427.57351868 30.97162537 428.24254211 31.55557068 428.93183899 32.1572113 C447.43891035 49.35790116 456.90064072 75.49661562 458.08851492 100.21728587 C458.16266928 104.27609309 458.17657157 108.33024798 458.16519165 112.38948059 C458.16822029 113.94536223 458.1721133 115.50124239 458.17678422 117.05711997 C458.18698112 121.2888288 458.18490385 125.52045212 458.18060362 129.7521677 C458.17812118 134.33305821 458.18716924 138.91392892 458.19464111 143.49481201 C458.2073478 152.45208355 458.20918689 161.40932504 458.20684085 170.36660407 C458.20505315 177.6515729 458.20681699 184.93653265 458.21106529 192.2215004 C458.21166048 193.26087095 458.21225567 194.3002415 458.2128689 195.37110812 C458.21408073 197.48301668 458.21529486 199.59492524 458.21651127 201.70683379 C458.2273711 221.48274275 458.22523159 241.25863463 458.21912643 261.03454454 C458.2139576 279.09930255 458.22521459 297.16400663 458.24422465 315.22875397 C458.26362738 333.81010993 458.27185484 352.39144042 458.26810139 370.97280657 C458.26619318 381.39185082 458.26863987 391.81084916 458.28281593 402.2298851 C458.29476172 411.09890306 458.2960988 419.96784685 458.28402577 428.83686589 C458.27815973 433.35546896 458.27697423 437.87393659 458.28902817 442.39253044 C458.29996375 446.54032226 458.29669367 450.6878668 458.28276648 454.83564742 C458.28014051 456.32472442 458.28241885 457.81382129 458.29050235 459.30287866 C458.35848768 472.77688862 456.96698302 486.44509531 452.15449524 499.13768005 C451.8977301 499.83466003 451.64096497 500.53164001 451.37641907 501.2497406 C441.85068659 526.2916737 423.14943861 547.08650458 398.81440735 558.36399841 C391.38970916 561.6429803 383.77882442 564.39549365 375.90449524 566.38768005 C375.25850453 566.55559231 374.61251382 566.72350456 373.94694763 566.89650506 C366.10140143 568.71448887 358.31698267 568.67027734 350.31414795 568.64837646 C348.74195759 568.65140084 347.16976871 568.65529175 345.5975824 568.65996903 C341.29756956 568.6702214 336.99764036 568.66807424 332.69762075 568.66378844 C328.05188377 568.6613161 323.40616666 568.67034184 318.76043701 568.67782593 C309.66545218 568.69056219 300.57049688 568.69236784 291.47550463 568.69002566 C284.07838344 568.68824065 276.6812712 568.6899961 269.28415108 568.69425011 C267.70326387 568.69514289 267.70326387 568.69514289 266.09043955 568.69605371 C263.94913832 568.69726551 261.80783709 568.69847964 259.66653586 568.69969609 C239.59259095 568.71056812 219.51866285 568.7084111 199.444717 568.70231124 C181.10481404 568.69714603 162.76496427 568.70838768 144.42507183 568.72740946 C125.57267125 568.7468121 106.7202958 568.75503937 87.86788517 568.75128621 C77.29227102 568.74937738 66.71670209 568.75183038 56.14109612 568.76600075 C47.13471557 568.77794669 38.12840805 568.77928376 29.12202644 568.76721058 C24.53257453 568.76134354 19.943256 568.76016171 15.35381317 568.77221298 C11.14105835 568.78314584 6.92854705 568.77988157 2.71580327 568.7659513 C1.20302382 568.76332449 -0.30977519 568.76560638 -1.82253534 568.77368716 C-31.1274207 568.91918685 -56.54453437 559.29922669 -78.09550476 539.38768005 C-78.83155945 538.7328363 -79.56761414 538.07799255 -80.32597351 537.40330505 C-98.0730252 520.82522084 -108.65699126 495.5034514 -110.3724544 471.51489353 C-110.47852885 467.38842453 -110.49644698 463.27192462 -110.47645569 459.14463806 C-110.47992134 457.56258082 -110.48469194 455.98052599 -110.49063742 454.39847612 C-110.50305258 450.09445566 -110.49702077 445.79063715 -110.48767877 441.48661637 C-110.48084933 436.82804959 -110.49138868 432.16951587 -110.49961853 427.51095581 C-110.51291675 418.40193711 -110.51009562 409.29299283 -110.50138061 400.18397129 C-110.49458902 392.77693822 -110.49369371 385.36992592 -110.49695206 377.96289062 C-110.49741176 376.90629046 -110.49787146 375.8496903 -110.49834508 374.76107195 C-110.49930432 372.61420992 -110.50027696 370.4673479 -110.50126286 368.32048589 C-110.5098053 348.21747835 -110.50000063 328.11451194 -110.48386176 308.01151115 C-110.47045963 290.7845039 -110.47278804 273.5575573 -110.48661804 256.33055115 C-110.50269413 236.29654871 -110.50898143 216.26258226 -110.49978125 196.22857428 C-110.49882566 194.08987268 -110.49788255 191.95117109 -110.49695206 189.81246948 C-110.49648923 188.76035075 -110.4960264 187.70823201 -110.49554955 186.62423089 C-110.49296575 179.23120857 -110.49731748 171.8382092 -110.50439072 164.44519043 C-110.51282848 155.42825546 -110.51047786 146.41139879 -110.49454848 137.39447272 C-110.48669633 132.79916174 -110.48352169 128.20398102 -110.49349594 123.60867119 C-110.50250711 119.39313071 -110.49740557 115.17783988 -110.48156328 110.9623217 C-110.47824243 109.44636495 -110.4798479 107.93038663 -110.48719065 106.41444403 C-110.61782101 77.17728489 -99.424946 51.3017275 -79.34550476 30.20018005 C-57.70103372 9.39856224 -29.72974518 -0.13129104 0 0 Z M-22.34550476 52.20018005 C-23.02806335 52.55201355 -23.71062195 52.90384705 -24.41386414 53.26634216 C-29.36625096 55.87345394 -33.83815406 58.74129312 -38.09550476 62.38768005 C-38.7335907 62.87236755 -39.37167664 63.35705505 -40.02909851 63.85643005 C-54.14795844 75.08546485 -62.60039895 93.82142359 -65.09550476 111.38768005 C-65.37228935 116.07978082 -65.36996881 120.76022608 -65.35620117 125.45947266 C-65.35922653 126.86667121 -65.36311792 128.27386812 -65.36779374 129.68106216 C-65.37803362 133.52501514 -65.37590217 137.36887443 -65.37161314 141.21283495 C-65.3691385 145.36777084 -65.37816941 149.52268461 -65.38565063 153.6776123 C-65.39838071 161.8100593 -65.40019331 169.94247325 -65.39785037 178.07492853 C-65.39606459 184.69020406 -65.39782244 191.3054696 -65.40207481 197.92074394 C-65.40267 198.8636543 -65.40326519 199.80656465 -65.40387842 200.77804805 C-65.40509023 202.69386928 -65.40630436 204.60969051 -65.40752079 206.52551173 C-65.41839054 224.48205233 -65.41623695 242.43857413 -65.41013595 260.39511579 C-65.40497145 276.79506332 -65.41621091 293.19495137 -65.43523417 309.59488714 C-65.45464426 326.45846649 -65.46286275 343.32201775 -65.45911092 360.18560833 C-65.45720314 369.64339749 -65.45964462 379.10113608 -65.47382545 388.55891609 C-65.48578096 396.61375662 -65.48709791 404.66851547 -65.47503529 412.72335721 C-65.46917475 416.82675076 -65.46796799 420.92999526 -65.48003769 425.0333786 C-66.12763106 453.47623356 -66.12763106 453.47623356 -57.90800476 480.32518005 C-57.5143573 481.12020935 -57.12070984 481.91523865 -56.71513367 482.73435974 C-53.55064934 488.93131622 -49.87958647 494.31456007 -45.09550476 499.38768005 C-44.57987976 499.99225037 -44.06425476 500.59682068 -43.53300476 501.2197113 C-31.57628362 514.46177997 -12.84152884 522.0195228 4.63989937 523.75946903 C8.398937 523.89645052 12.13967173 523.92156542 15.90109253 523.89561462 C17.33552315 523.90023884 18.769949 523.90660183 20.20436519 523.9145236 C24.09573517 523.93103166 27.98670658 523.92305646 31.87807691 523.91057873 C36.09423504 523.90145362 40.31032902 523.91553453 44.526474 523.92649841 C52.76575173 523.94420886 61.00488304 523.94047731 69.24416632 523.92884785 C75.94465958 523.91978482 82.64511203 523.91860189 89.34560966 523.92294312 C90.30216133 523.92355605 91.258713 523.92416898 92.24425108 523.92480049 C94.18793958 523.92607949 96.13162807 523.92737634 98.07531654 523.92869085 C116.26600297 523.94007459 134.45660853 523.92701734 152.6472817 523.90548939 C168.23069997 523.88761755 183.81399903 523.89072752 199.39741516 523.90916443 C217.52811595 523.93060526 235.65874604 523.93897917 253.78945774 523.92671537 C255.72537067 523.92544128 257.66128362 523.92418379 259.59719658 523.92294312 C260.54951236 523.92232601 261.50182813 523.92170891 262.48300197 523.92107311 C269.1702198 523.91763005 275.8573925 523.92342589 282.54460335 523.93286133 C290.70149376 523.94411834 298.85823034 523.9409637 307.01510329 523.91973835 C311.17098063 523.90927795 315.32660216 523.90501977 319.48247719 523.91833496 C323.29652314 523.93036952 327.11007934 523.92351726 330.92408168 523.90242475 C332.93632138 523.89593261 334.94859587 523.90879499 336.96079832 523.92265368 C348.96367792 523.82075886 360.5426736 521.29902398 371.21699524 515.63768005 C371.88158752 515.29333923 372.54617981 514.94899841 373.23091125 514.59422302 C392.23311193 504.44093927 402.70824035 488.18042881 409.98262024 468.46580505 C412.36120383 460.52375476 412.05591604 452.51139685 412.05839539 444.2902832 C412.06241455 442.84371398 412.06685353 441.39714588 412.07167494 439.95057911 C412.08359554 435.98393118 412.08927836 432.01729538 412.0938561 428.05063307 C412.09982932 423.76887511 412.11143477 419.48713153 412.12214661 415.2053833 C412.14663038 404.86924446 412.16129138 394.53310089 412.17420667 384.196942 C412.1779214 381.27550732 412.18189439 378.3540731 412.18595934 375.43263888 C412.21119749 357.27391487 412.23324101 339.11519005 412.24568748 320.95645237 C412.24861696 316.7535966 412.25157866 312.55074085 412.2545929 308.34788513 C412.25571197 306.78107375 412.25571197 306.78107375 412.25685365 305.18260961 C412.26950074 288.27091245 412.30271777 271.35932058 412.34439473 254.44767261 C412.38687304 237.06778233 412.41038927 219.68794588 412.41560805 202.30800384 C412.41901534 192.55672027 412.43069014 182.80560129 412.46371078 173.05436897 C412.4917935 164.74797552 412.50267464 156.44178043 412.49151532 148.1353432 C412.48634977 143.9023718 412.48907739 139.66981528 412.51398087 135.43690491 C412.53665145 131.55084405 412.53559775 127.66549179 412.51677699 123.77941703 C412.51270134 121.73067093 412.53299004 119.68191928 412.55456388 117.63328272 C412.39826351 99.09808578 404.64026857 80.90992545 391.90449524 67.38768005 C374.31243468 50.94049963 355.94522813 45.05899605 332.2928009 45.12698364 C330.85143922 45.12395673 329.41007915 45.12006457 327.96872187 45.11539108 C324.03982404 45.10517214 320.11101808 45.10727717 316.18211293 45.11157167 C311.93255602 45.11405 307.68302059 45.10501115 303.43347168 45.09753418 C295.12116398 45.08481671 286.80888864 45.08298972 278.49657285 45.08533444 C271.73828165 45.08712074 264.98000024 45.0853613 258.22171021 45.08111 C257.25819969 45.08051481 256.29468917 45.07991962 255.30198136 45.0793064 C253.34435554 45.0780946 251.38672973 45.07688046 249.42910391 45.07566402 C231.09166859 45.06480027 212.75425169 45.0669457 194.41681534 45.07304887 C177.65472547 45.0782194 160.89269368 45.0669569 144.13061529 45.04795065 C126.89974287 45.02856324 109.66889791 45.02031768 92.43801451 45.0240739 C82.77194016 45.02598426 73.10591528 45.02351425 63.43984985 45.00935936 C55.21290572 44.99743325 46.98604152 44.99605464 38.75909626 45.00814953 C34.56517243 45.01402899 30.37139471 45.01516346 26.1774807 45.00314713 C22.33205943 44.99225761 18.48690575 44.99542782 14.64149684 45.00940881 C12.6049734 45.01328909 10.56843794 45.00253396 8.53194284 44.99111193 C-2.58010402 45.05610108 -12.48965875 46.99666585 -22.34550476 52.20018005 Z " fill="#283C4B" transform="translate(338.0955047607422,227.61231994628906)"/>
<path d="M0 0 C0.928125 0.33 1.85625 0.66 2.8125 1 C5.42860417 8.39780515 7.32626052 15.86616391 9.125 23.5 C9.58180842 25.42434077 10.03862245 27.34868025 10.4959259 29.27290344 C10.80633887 30.57965289 11.1162232 31.88652802 11.42558289 33.19352722 C12.45394015 37.52880391 13.51796953 41.85400928 14.6015625 46.17578125 C14.87959717 47.29597656 15.15763184 48.41617188 15.4440918 49.5703125 C15.967233 51.67492174 16.4969631 53.77790821 17.03442383 55.87890625 C20.32206208 69.23246952 20.32206208 69.23246952 17.6875 74.0625 C14.76051018 75.52599491 12.99352219 74.76685356 9.8125 74 C6.44975213 72.62183057 3.19787844 71.04068307 -0.0625 69.4375 C-1.38121094 68.80038086 -1.38121094 68.80038086 -2.7265625 68.15039062 C-4.88361356 67.10703441 -7.03700288 66.05678116 -9.1875 65 C-9.34025391 65.58338135 -9.49300781 66.1667627 -9.65039062 66.76782227 C-11.63028743 73.86686775 -14.46107477 80.32340556 -17.6875 86.9375 C-18.21722412 88.02925537 -18.74694824 89.12101074 -19.29272461 90.24584961 C-27.03405649 106.00379657 -35.94623323 120.75373153 -46.1875 135 C-46.72777832 135.75812988 -47.26805664 136.51625977 -47.82470703 137.29736328 C-55.74094937 148.37739074 -64.05918159 158.89698263 -73.1875 169 C-73.67347656 169.54237305 -74.15945313 170.08474609 -74.66015625 170.64355469 C-83.33158989 180.31326645 -92.30006849 189.57001233 -102.1875 198 C-103.30946781 198.98468205 -104.43047661 199.97045737 -105.55078125 200.95703125 C-106.78365572 202.03408136 -108.01673008 203.11090272 -109.25 204.1875 C-110.1167334 204.95489502 -110.1167334 204.95489502 -111.00097656 205.73779297 C-117.29436155 211.19408279 -122.81903708 214.94432151 -131.4453125 214.55859375 C-136.48363231 213.53226934 -139.45967859 210.36926759 -143.1875 207 C-145.56035059 205.05436237 -147.96938168 203.15488065 -150.375 201.25 C-151.66849358 200.21549963 -152.96145724 199.18033635 -154.25390625 198.14453125 C-158.1008156 195.06795952 -161.95039253 191.99498024 -165.8125 188.9375 C-166.3799292 188.4847168 -166.9473584 188.03193359 -167.53198242 187.56542969 C-170.62900191 185.12117017 -173.75483616 182.9460269 -177.1875 181 C-177.6 181.42410156 -178.0125 181.84820313 -178.4375 182.28515625 C-179.015 182.87167969 -179.5925 183.45820312 -180.1875 184.0625 C-180.744375 184.63097656 -181.30125 185.19945312 -181.875 185.78515625 C-183.85865921 187.68504607 -185.88024934 189.49246754 -187.953125 191.29296875 C-192.04269778 194.8486461 -196.00001218 198.52751524 -199.9375 202.25 C-209.06329277 210.84010682 -218.28799387 219.3104109 -227.6171875 227.6796875 C-230.53178474 230.31079807 -233.42287409 232.96654417 -236.3125 235.625 C-240.17510152 239.17704059 -244.07500272 242.67597398 -248.046875 246.10546875 C-249.79013641 247.64831872 -251.50107838 249.2131535 -253.203125 250.80078125 C-253.73679687 251.29707031 -254.27046875 251.79335938 -254.8203125 252.3046875 C-255.87607082 253.28904188 -256.92832875 254.27716782 -257.9765625 255.26953125 C-263.33455701 260.25898645 -267.10285067 261.72520313 -274.4140625 261.55859375 C-278.58998498 260.71752767 -280.50917482 258.86210139 -282.99609375 255.48828125 C-285.15464544 250.98009296 -285.23055196 246.84274125 -284.1875 242 C-282.51941272 239.28935818 -281.49751864 237.98243653 -279.1875 236 C-278.62933594 235.49597656 -278.07117188 234.99195313 -277.49609375 234.47265625 C-276.19264708 233.31615347 -274.8764618 232.17391657 -273.55078125 231.04296875 C-270.75364047 228.62494457 -268.03094688 226.13048894 -265.3125 223.625 C-261.64414956 220.24887991 -257.96326783 216.88934647 -254.25 213.5625 C-249.28100468 209.1023298 -244.37792644 204.57316486 -239.4765625 200.0390625 C-236.38875079 197.18333529 -233.28997073 194.33978427 -230.1875 191.5 C-226.03348922 187.69631924 -221.88801026 183.88358262 -217.75 180.0625 C-217.21205811 179.56580811 -216.67411621 179.06911621 -216.11987305 178.55737305 C-213.35450308 176.00335842 -210.59060563 173.44776444 -207.828125 170.890625 C-193.60535954 157.73108862 -193.60535954 157.73108862 -188.1875 153 C-187.37796875 152.27039063 -186.5684375 151.54078125 -185.734375 150.7890625 C-182.86777476 148.77540773 -181.40436471 148.40541109 -177.9375 148.375 C-177.06609375 148.34148437 -176.1946875 148.30796875 -175.296875 148.2734375 C-167.47905933 150.10021352 -161.01370014 156.61388563 -155 161.6875 C-153.52303431 162.91644569 -152.0451551 164.14429425 -150.56640625 165.37109375 C-149.83566895 165.97808105 -149.10493164 166.58506836 -148.35205078 167.21044922 C-145.07217223 169.92210158 -141.76674486 172.59925874 -138.4375 175.25 C-137.87780518 175.70334717 -137.31811035 176.15669434 -136.74145508 176.6237793 C-133.69476172 179.03483494 -130.87962217 180.76929261 -127.1875 182 C-118.9115634 175.4154957 -111.28783825 168.293349 -103.8125 160.8125 C-102.96913086 159.96977539 -102.12576172 159.12705078 -101.25683594 158.25878906 C-96.37022537 153.32963579 -91.67013944 148.29909096 -87.1875 143 C-86.6709082 142.39019287 -86.15431641 141.78038574 -85.62207031 141.15209961 C-72.42081381 125.41648648 -61.11446408 108.97820466 -51.1875 91 C-50.77870605 90.26749023 -50.36991211 89.53498047 -49.94873047 88.78027344 C-44.22188084 78.47984962 -39.46141441 67.98024956 -35.1875 57 C-41.8299714 54.75160332 -48.4636897 52.57127468 -55.2265625 50.7109375 C-57.1875 50 -57.1875 50 -59.1875 48 C-59.55078125 45.62109375 -59.55078125 45.62109375 -59.1875 43 C-53.67750237 35.87524728 -44.7387554 30.63061452 -37.51049805 25.37866211 C-32.29509142 21.58429149 -27.19828926 17.68523127 -22.1875 13.625 C-20.97945442 12.65458959 -19.77113017 11.68452597 -18.5625 10.71484375 C-16.90028455 9.38082141 -15.24122112 8.0440928 -13.59375 6.69189453 C-4.63960577 -0.62046624 -4.63960577 -0.62046624 0 0 Z " fill="#03A3E3" transform="translate(640.1875,372)"/>
<path d="M0 0 C1.084021 0.00523682 2.16804199 0.01047363 3.28491211 0.01586914 C4.45473633 0.0190918 5.62456055 0.02231445 6.82983398 0.02563477 C8.0615332 0.03401367 9.29323242 0.04239258 10.56225586 0.05102539 C12.41560547 0.05779297 12.41560547 0.05779297 14.30639648 0.06469727 C17.37089703 0.07652931 20.43530307 0.09301366 23.49975586 0.11352539 C23.49975586 3.74352539 23.49975586 7.37352539 23.49975586 11.11352539 C21.18975586 11.11352539 18.87975586 11.11352539 16.49975586 11.11352539 C16.49975586 13.09352539 16.49975586 15.07352539 16.49975586 17.11352539 C17.40854492 17.13479492 17.40854492 17.13479492 18.33569336 17.15649414 C24.55341691 17.5104261 28.95805038 18.98796835 34.37084961 22.05493164 C36.55119877 23.33614587 36.55119877 23.33614587 39.49975586 23.11352539 C40.11850586 22.86602539 40.73725586 22.61852539 41.37475586 22.36352539 C43.49975586 22.11352539 43.49975586 22.11352539 46.31225586 23.61352539 C47.39506836 24.85102539 47.39506836 24.85102539 48.49975586 26.11352539 C48.31413086 27.16540039 48.12850586 28.21727539 47.93725586 29.30102539 C47.36317773 34.30370622 48.98785771 35.79707535 51.86694336 39.70727539 C58.70774732 49.78846018 60.05581686 62.15698531 58.00366211 73.96899414 C57.30971464 76.43505604 56.48178041 78.74791968 55.49975586 81.11352539 C55.17104492 81.93208008 54.84233398 82.75063477 54.50366211 83.59399414 C48.85968579 96.19041188 39.37842197 103.64016715 27.01538086 109.23852539 C15.44325627 113.2636122 0.34400902 112.65688519 -10.70727539 107.65649414 C-23.40811747 100.63994502 -31.49817297 90.57495434 -36.24633789 76.97680664 C-40.05119212 63.20061031 -37.53390906 50.08750887 -30.68774414 37.86352539 C-23.68968915 26.83417189 -12.98116614 19.83590564 -0.50024414 16.11352539 C0.81975586 16.11352539 2.13975586 16.11352539 3.49975586 16.11352539 C3.49975586 14.46352539 3.49975586 12.81352539 3.49975586 11.11352539 C2.04569336 11.14446289 2.04569336 11.14446289 0.56225586 11.17602539 C-2.50024414 11.11352539 -2.50024414 11.11352539 -3.50024414 10.11352539 C-3.59814984 8.61614415 -3.62999278 7.11409647 -3.62524414 5.61352539 C-3.62911133 4.39149414 -3.62911133 4.39149414 -3.63305664 3.14477539 C-3.43453553 0.1085702 -3.05790367 0.13884632 0 0 Z " fill="#F6FAFB" transform="translate(610.500244140625,541.886474609375)"/>
<path d="M0 0 C5.08820988 1.55881574 8.56911786 4.69416898 12.5625 8.0625 C13.87413234 9.16015003 15.18800025 10.25513331 16.50390625 11.34765625 C17.19379639 11.95399902 17.88368652 12.5603418 18.59448242 13.18505859 C21.00252961 15.1432649 21.00252961 15.1432649 24.1652832 16.41259766 C28.02956767 18.39755569 30.92377208 20.15609848 33 24 C35.06279048 32.85966922 34.40261878 42.18246081 34.11541748 51.21313477 C34.04478357 53.93192913 34.03772178 56.64928135 34.03240299 59.36886978 C34.02105978 62.62662617 33.96548623 65.88336074 33.91015625 69.140625 C33.89239891 70.96258392 33.89239891 70.96258392 33.87428284 72.8213501 C33.7081614 77.72329562 33.59135257 81.02910422 31.01171875 85.2644043 C26.87669209 87.64734078 23.60213595 87.70338759 18.90234375 87.62890625 C17.5954232 87.63252419 17.5954232 87.63252419 16.26210022 87.63621521 C14.42558222 87.63523826 12.58903422 87.62188078 10.75268555 87.59692383 C7.94283082 87.56256518 5.13611393 87.57628353 2.32617188 87.59570312 C0.53904913 87.58880567 -1.24806552 87.57913418 -3.03515625 87.56640625 C-3.87377701 87.57136612 -4.71239777 87.57632599 -5.57643127 87.58143616 C-6.36082077 87.56559982 -7.14521027 87.54976349 -7.95336914 87.53344727 C-8.64000137 87.52724869 -9.32663361 87.52105011 -10.03407288 87.5146637 C-13.00660833 86.73647814 -14.16889222 85.4408347 -16 83 C-16.53485107 79.99127197 -16.53485107 79.99127197 -16.58105469 76.43066406 C-16.59448914 75.7796875 -16.60792358 75.12871094 -16.62176514 74.45800781 C-16.65969491 72.31023434 -16.66757167 70.16371237 -16.671875 68.015625 C-16.68473676 66.51592503 -16.69819392 65.01623006 -16.71221924 63.51654053 C-16.73615931 60.37256247 -16.743582 57.22902369 -16.74121094 54.08496094 C-16.74080529 50.07150118 -16.795319 46.06088621 -16.86429977 42.04809952 C-16.90896729 38.94915052 -16.91688223 35.85087816 -16.91477203 32.75164032 C-16.91946817 31.27329484 -16.9370271 29.79492847 -16.9681015 28.31690216 C-17.18752007 16.79879954 -17.18752007 16.79879954 -14.24584961 12.34289551 C-12.26284358 10.33878887 -10.27573799 8.65673386 -8 7 C-7.1646875 6.236875 -6.329375 5.47375 -5.46875 4.6875 C-4.8190625 4.130625 -4.169375 3.57375 -3.5 3 C-2.8296875 2.4225 -2.159375 1.845 -1.46875 1.25 C-0.9840625 0.8375 -0.499375 0.425 0 0 Z " fill="#03A3E2" transform="translate(463,566)"/>
<path d="M0 0 C0.09263389 11.27423768 0.1637315 22.54838499 0.20724869 33.82292557 C0.22813361 39.05803102 0.25646796 44.29287632 0.30175781 49.52783203 C0.345183 54.57879955 0.36913029 59.62951666 0.37950897 64.68065643 C0.38690631 66.60882256 0.40135144 68.53697481 0.42292023 70.46503448 C0.45191007 73.1635156 0.45595787 75.86095882 0.45410156 78.55957031 C0.47567322 79.75827003 0.47567322 79.75827003 0.49768066 80.98118591 C0.47149005 84.49411023 0.28774513 86.59577395 -1.77546692 89.4941864 C-4.13977293 91.094614 -5.23257993 91.5080434 -8.04663086 91.53344727 C-8.83102036 91.5492836 -9.61540985 91.56511993 -10.42356873 91.58143616 C-11.68149986 91.57399635 -11.68149986 91.57399635 -12.96484375 91.56640625 C-13.83516739 91.57260483 -14.70549103 91.57880341 -15.60218811 91.58518982 C-17.4404285 91.59228457 -19.27873318 91.58911994 -21.11694336 91.57641602 C-23.92487318 91.5625623 -26.72946165 91.5966082 -29.53710938 91.63476562 C-31.32552165 91.63571699 -33.11393808 91.63385708 -34.90234375 91.62890625 C-35.73894028 91.64216446 -36.5755368 91.65542267 -37.43748474 91.66908264 C-41.40272234 91.60597898 -43.57475758 91.25355985 -47.03808594 89.18847656 C-50.01776974 84.3459342 -49.62031237 79.93089173 -49.48828125 74.35546875 C-49.48120651 73.2305452 -49.47413177 72.10562164 -49.46684265 70.9466095 C-49.43889144 67.35955851 -49.37614717 63.77407788 -49.3125 60.1875 C-49.28741827 57.75327778 -49.26460489 55.31903105 -49.24414062 52.88476562 C-49.18906226 46.9226428 -49.10542705 40.9614336 -49 35 C-48.24019836 34.73078232 -47.48039673 34.46156464 -46.6975708 34.18418884 C-45.20613556 33.65010155 -45.20613556 33.65010155 -43.68457031 33.10522461 C-42.20455536 32.57764809 -42.20455536 32.57764809 -40.69464111 32.03941345 C-27.25551756 26.85549277 -14.5231376 12.92891316 -4.63671875 2.609375 C-1.98300971 0 -1.98300971 0 0 0 Z " fill="#04A3E2" transform="translate(562,562)"/>
<path d="M0 0 C1.084021 0.00523682 2.16804199 0.01047363 3.28491211 0.01586914 C4.45473633 0.0190918 5.62456055 0.02231445 6.82983398 0.02563477 C8.0615332 0.03401367 9.29323242 0.04239258 10.56225586 0.05102539 C12.41560547 0.05779297 12.41560547 0.05779297 14.30639648 0.06469727 C17.37089703 0.07652931 20.43530307 0.09301366 23.49975586 0.11352539 C23.49975586 3.74352539 23.49975586 7.37352539 23.49975586 11.11352539 C21.18975586 11.11352539 18.87975586 11.11352539 16.49975586 11.11352539 C16.49975586 13.09352539 16.49975586 15.07352539 16.49975586 17.11352539 C17.40854492 17.13479492 17.40854492 17.13479492 18.33569336 17.15649414 C24.55341691 17.5104261 28.95805038 18.98796835 34.37084961 22.05493164 C36.55119877 23.33614587 36.55119877 23.33614587 39.49975586 23.11352539 C40.11850586 22.86602539 40.73725586 22.61852539 41.37475586 22.36352539 C43.49975586 22.11352539 43.49975586 22.11352539 46.31225586 23.61352539 C47.39506836 24.85102539 47.39506836 24.85102539 48.49975586 26.11352539 C48.31413086 27.16540039 48.12850586 28.21727539 47.93725586 29.30102539 C47.36317773 34.30370622 48.98785771 35.79707535 51.86694336 39.70727539 C58.70774732 49.78846018 60.05581686 62.15698531 58.00366211 73.96899414 C57.30971464 76.43505604 56.48178041 78.74791968 55.49975586 81.11352539 C55.17104492 81.93208008 54.84233398 82.75063477 54.50366211 83.59399414 C48.85968579 96.19041188 39.37842197 103.64016715 27.01538086 109.23852539 C15.44325627 113.2636122 0.34400902 112.65688519 -10.70727539 107.65649414 C-23.40811747 100.63994502 -31.49817297 90.57495434 -36.24633789 76.97680664 C-40.05119212 63.20061031 -37.53390906 50.08750887 -30.68774414 37.86352539 C-23.68968915 26.83417189 -12.98116614 19.83590564 -0.50024414 16.11352539 C0.81975586 16.11352539 2.13975586 16.11352539 3.49975586 16.11352539 C3.49975586 14.46352539 3.49975586 12.81352539 3.49975586 11.11352539 C2.04569336 11.14446289 2.04569336 11.14446289 0.56225586 11.17602539 C-2.50024414 11.11352539 -2.50024414 11.11352539 -3.50024414 10.11352539 C-3.59814984 8.61614415 -3.62999278 7.11409647 -3.62524414 5.61352539 C-3.62911133 4.39149414 -3.62911133 4.39149414 -3.63305664 3.14477539 C-3.43453553 0.1085702 -3.05790367 0.13884632 0 0 Z M-14.50024414 33.11352539 C-15.33555664 33.72583008 -16.17086914 34.33813477 -17.03149414 34.96899414 C-19.68851329 37.27706932 -21.33010098 39.50794738 -23.18774414 42.48852539 C-23.76911133 43.40375977 -24.35047852 44.31899414 -24.94946289 45.26196289 C-29.89500095 54.35577343 -29.87357251 65.4419586 -27.81274414 75.45336914 C-24.19565658 86.19913343 -17.0605224 94.05679071 -7.09790039 99.40258789 C2.31907497 103.75852658 11.71891068 104.55532869 21.68725586 101.42602539 C31.92036638 97.64479851 40.1999566 91.96441783 45.31225586 82.11352539 C49.97114991 71.87621872 51.51357288 61.21416447 47.93725586 50.30102539 C43.07711196 38.72844498 34.06857619 30.70765257 22.64038086 25.84008789 C9.12724717 21.25351332 -3.47196138 24.7451253 -14.50024414 33.11352539 Z " fill="#2E4454" transform="translate(610.500244140625,541.886474609375)"/>
<path d="M0 0 C4.875 0.875 4.875 0.875 6 2 C5.7671293 7.96731165 4.1582224 10.56867637 0 14.75 C-1.014226 15.79575124 -2.02590699 16.84397618 -3.03515625 17.89453125 C-3.79143311 18.67497803 -3.79143311 18.67497803 -4.56298828 19.47119141 C-6.6507124 21.69228017 -8.54034486 24.05300226 -10.4375 26.4375 C-14.27681224 31.21088463 -18.35928177 35.68278883 -22.54516602 40.1484375 C-25.79819621 43.63944349 -28.87872243 47.21989635 -31.875 50.9375 C-40.7092367 61.82509982 -40.7092367 61.82509982 -44.8828125 62.390625 C-48.75966804 61.9048035 -49.93992512 60.79141563 -52.6875 58.0625 C-56.11342302 54.78464221 -59.55426078 51.65933154 -63.25 48.6875 C-67.61174726 45.1597979 -71.88103336 41.54221078 -76.125 37.875 C-81.29272756 33.41465002 -86.54023037 29.10204914 -92 25 C-99.9365649 28.4585948 -106.1027305 36.03875803 -112.08984375 42.12109375 C-113.89644496 43.89813911 -115.75697156 45.54715538 -117.6875 47.1875 C-121.4833568 50.44430021 -124.9862273 53.94612146 -128.5 57.5 C-132.53049215 61.57633878 -136.60234381 65.48553209 -140.9765625 69.1953125 C-144.09638096 71.97785329 -146.99733693 74.97684025 -149.93188477 77.95141602 C-153.15010217 81.19641934 -156.48445408 84.21823866 -159.9609375 87.1796875 C-163.32967296 90.18702606 -166.45438923 93.43543968 -169.60546875 96.66796875 C-171.9737588 98.97444372 -174.30560346 101.08240642 -177 103 C-181.29268293 102.70731707 -181.29268293 102.70731707 -183 101 C-183.40625 98.27734375 -183.40625 98.27734375 -183 95 C-181.19613289 92.88646903 -179.60932176 91.30529727 -177.5 89.5625 C-176.95118164 89.08514404 -176.40236328 88.60778809 -175.83691406 88.1159668 C-174.23712974 86.72847057 -172.62081196 85.36281365 -171 84 C-169.58073607 82.7738332 -168.16361637 81.54517348 -166.75 80.3125 C-165.81414062 79.50232422 -165.81414062 79.50232422 -164.859375 78.67578125 C-162.123606 76.21014071 -159.56774377 73.576546 -156.984375 70.953125 C-155.1322053 69.13012333 -153.2282482 67.43396334 -151.25 65.75 C-147.6548326 62.66438388 -144.32662213 59.36802377 -141 56 C-137.17013262 52.12270392 -133.27948683 48.4375638 -129.125 44.90625 C-125.75299713 41.88136507 -122.61085219 38.63087211 -119.4284668 35.40893555 C-116.06193912 32.01681906 -112.59354471 28.82470777 -108.94921875 25.73046875 C-105.77555718 22.9129696 -102.84103444 19.86099358 -99.8828125 16.8203125 C-97.5956469 14.60906941 -96.46418157 14.07364744 -93.31640625 13.57421875 C-88.56481342 14.18425835 -86.34900206 16.60851458 -82.9375 19.8125 C-81.60877191 21.01249319 -80.27933222 22.21169885 -78.94921875 23.41015625 C-78.28712402 24.0148877 -77.6250293 24.61961914 -76.94287109 25.24267578 C-74.10148425 27.81270626 -71.18356414 30.28630258 -68.25 32.75 C-67.72196777 33.19520996 -67.19393555 33.64041992 -66.64990234 34.09912109 C-56.16588256 43.00013226 -56.16588256 43.00013226 -45 51 C-41.50471142 47.27866968 -38.01518072 43.55201831 -34.53515625 39.81640625 C-33.94613525 39.18420166 -33.35711426 38.55199707 -32.75024414 37.90063477 C-29.76444233 34.65827641 -26.86068141 31.35284165 -24 28 C-23.11353572 26.96722944 -22.22678965 25.93470072 -21.33984375 24.90234375 C-18.76796468 21.90688591 -16.20014258 18.90797768 -13.63330078 15.90820312 C-10.84069381 12.64556992 -8.04518671 9.38542303 -5.25 6.125 C-4.23436218 4.94011516 -3.21873596 3.75522037 -2.203125 2.5703125 C-1.47609375 1.72210938 -0.7490625 0.87390625 0 0 Z " fill="#0BA4E2" transform="translate(555,467)"/>
<path d="M0 0 C0.33 0 0.66 0 1 0 C1 20.46 1 40.92 1 62 C-9.395 62.495 -9.395 62.495 -20 63 C-25.33183831 66.05826852 -25.33183831 66.05826852 -28 71 C-28.50175787 75.4975751 -27.94871541 79.59306391 -27 84 C-27.78503906 84.37511719 -28.57007813 84.75023437 -29.37890625 85.13671875 C-30.42949219 85.64847656 -31.48007812 86.16023437 -32.5625 86.6875 C-34.11130859 87.43580078 -34.11130859 87.43580078 -35.69140625 88.19921875 C-39.38762323 90.21097321 -42.61991684 92.49797123 -46 95 C-48.00743709 68.86962653 -48.00743709 68.86962653 -42.72583008 62.36694336 C-40.76070578 60.37941481 -38.72729542 58.48487026 -36.64697266 56.61865234 C-33.4896999 53.51567007 -31.04229888 49.85880389 -28.5 46.25 C-27.95408203 45.48486084 -27.40816406 44.71972168 -26.84570312 43.93139648 C-16.90181852 29.90762921 -7.6965497 15.3930994 0 0 Z " fill="#03A1E1" transform="translate(627,471)"/>
<path d="M0 0 C0.10126342 7.20813016 0.17140779 14.41607752 0.21972656 21.62475586 C0.23986533 24.07795059 0.26717818 26.53109719 0.30175781 28.98413086 C0.35017482 32.50646833 0.37294629 36.02817223 0.390625 39.55078125 C0.41127014 40.65086014 0.43191528 41.75093903 0.45318604 42.88435364 C0.45348816 43.90518539 0.45379028 44.92601715 0.45410156 45.9777832 C0.46298401 46.87713089 0.47186646 47.77647858 0.48101807 48.70307922 C0 51 0 51 -1.7744751 52.78764343 C-4.1179729 54.06426584 -5.42255417 54.38769356 -8.0625 54.41992188 C-8.85011719 54.43583374 -9.63773437 54.45174561 -10.44921875 54.46813965 C-11.29097656 54.46834106 -12.13273437 54.46854248 -13 54.46875 C-13.87269531 54.47636353 -14.74539063 54.48397705 -15.64453125 54.49182129 C-17.4869501 54.50261156 -19.32943006 54.50547974 -21.171875 54.50097656 C-23.99061871 54.50000324 -26.80664859 54.54165474 -29.625 54.5859375 C-31.41666099 54.59114395 -33.20833144 54.5938327 -35 54.59375 C-35.84175781 54.61014526 -36.68351562 54.62654053 -37.55078125 54.64343262 C-43.37545933 54.5746161 -43.37545933 54.5746161 -46.52270508 51.67895508 C-48.514021 48.06786441 -48.730554 46.06510725 -48 42 C-45.95413886 39.73329628 -44.20628654 38.1239381 -41.8125 36.3125 C-40.52271402 35.27595289 -39.2350026 34.2368199 -37.94921875 33.1953125 C-37.29099121 32.66969727 -36.63276367 32.14408203 -35.95458984 31.60253906 C-32.89184174 29.09143757 -30.01043191 26.39842017 -27.125 23.6875 C-23.18054834 20.00967596 -19.20088005 16.39002957 -15.1171875 12.8671875 C-11.66945255 9.82656516 -8.30728939 6.69126894 -4.94702148 3.55444336 C-1.10877036 0 -1.10877036 0 0 0 Z " fill="#03A3E2" transform="translate(428,599)"/>
<path d="M0 0 C4.55555556 0.55555556 4.55555556 0.55555556 6 2 C6 4.04468263 5.9982803 6.08938409 5.98657227 8.1340332 C5.81340722 15.8763577 5.81340722 15.8763577 9.06640625 22.57421875 C11.49854208 24.34754168 11.49854208 24.34754168 14.06640625 25.61328125 C14.70449219 26.07089844 15.34257813 26.52851562 16 27 C16.40234375 29.54296875 16.40234375 29.54296875 16 32 C15.34 32.66 14.68 33.32 14 34 C10.23377622 33.66744161 7.41449345 31.52105848 4.3125 29.5 C3.33925781 28.8709375 2.36601563 28.241875 1.36328125 27.59375 C-1 26 -1 26 -2 25 C-2.25208722 21.19411856 -2.18522344 17.37574544 -2.1875 13.5625 C-2.19974609 12.48677734 -2.21199219 11.41105469 -2.22460938 10.30273438 C-2.22654297 9.27599609 -2.22847656 8.24925781 -2.23046875 7.19140625 C-2.23457764 6.24467041 -2.23868652 5.29793457 -2.24291992 4.32250977 C-2 2 -2 2 0 0 Z " fill="#2D4354" transform="translate(619,583)"/>
<path d="M0 0 C0.66 0 1.32 0 2 0 C2.48828125 2.01822917 2.9765625 4.03645833 3.46484375 6.0546875 C3.94846992 8.0585657 3.94846992 8.0585657 5 10 C7.11327425 10.90725434 7.11327425 10.90725434 9.5625 11.625 C10.38878906 11.88539063 11.21507812 12.14578125 12.06640625 12.4140625 C12.70449219 12.60742188 13.34257812 12.80078125 14 13 C14 13.66 14 14.32 14 15 C13.38511719 15.11214844 12.77023437 15.22429687 12.13671875 15.33984375 C9.4922934 15.98513415 7.36638648 16.64058649 5 18 C3.34440765 20.88195705 2.59385959 23.7440112 2 27 C1.34 27 0.68 27 0 27 C-0.18433594 26.38511719 -0.36867188 25.77023437 -0.55859375 25.13671875 C-2.30930547 20.076166 -2.30930547 20.076166 -6.26953125 16.734375 C-8.5064022 16.01575819 -10.69105195 15.42922752 -13 15 C-13 14.34 -13 13.68 -13 13 C-12.37351562 12.81824219 -11.74703125 12.63648438 -11.1015625 12.44921875 C-10.28429687 12.19785156 -9.46703125 11.94648438 -8.625 11.6875 C-7.40683594 11.32205078 -7.40683594 11.32205078 -6.1640625 10.94921875 C-3.66815371 10.08631815 -3.66815371 10.08631815 -2 7 C-1.29187186 4.67891331 -0.61975848 2.34622853 0 0 Z " fill="#15AAE9" transform="translate(386,475)"/>
<path d="M0 0 C0.66 0 1.32 0 2 0 C2.18433594 0.61488281 2.36867188 1.22976563 2.55859375 1.86328125 C4.30930547 6.923834 4.30930547 6.923834 8.26953125 10.265625 C10.5064022 10.98424181 12.69105195 11.57077248 15 12 C15 12.66 15 13.32 15 14 C14.37351562 14.18175781 13.74703125 14.36351562 13.1015625 14.55078125 C11.87566406 14.92783203 11.87566406 14.92783203 10.625 15.3125 C9.40683594 15.67794922 9.40683594 15.67794922 8.1640625 16.05078125 C5.66815371 16.91368185 5.66815371 16.91368185 4 20 C3.29835358 21.98799818 2.62627128 23.98698517 2 26 C1.34 25.67 0.68 25.34 0 25 C-0.3932763 23.71969904 -0.74102479 22.42518864 -1.0625 21.125 C-2.03274763 18.2755359 -2.51418469 17.26451866 -5.1953125 15.8046875 C-7.45387072 15.07543516 -9.67406228 14.46811325 -12 14 C-12 13.34 -12 12.68 -12 12 C-11.38511719 11.88785156 -10.77023437 11.77570313 -10.13671875 11.66015625 C-7.4922934 11.01486585 -5.36638648 10.35941351 -3 9 C-1.34440765 6.11804295 -0.59385959 3.2559888 0 0 Z " fill="#10A7E7" transform="translate(558,434)"/>
<path d="M0 0 C0.66 0 1.32 0 2 0 C2.2475 0.804375 2.495 1.60875 2.75 2.4375 C3.72238859 5.171081 3.72238859 5.171081 6.125 5.8125 C7.053125 5.9053125 7.053125 5.9053125 8 6 C8 6.66 8 7.32 8 8 C7.195625 8.2475 6.39125 8.495 5.5625 8.75 C2.828919 9.72238859 2.828919 9.72238859 2.1875 12.125 C2.125625 12.74375 2.06375 13.3625 2 14 C1.34 14 0.68 14 0 14 C-0.2475 13.195625 -0.495 12.39125 -0.75 11.5625 C-1.72238859 8.828919 -1.72238859 8.828919 -4.125 8.1875 C-4.74375 8.125625 -5.3625 8.06375 -6 8 C-6 7.34 -6 6.68 -6 6 C-4.35 5.67 -2.7 5.34 -1 5 C-0.67 3.35 -0.34 1.7 0 0 Z " fill="#24AEE6" transform="translate(509,437)"/>
<path d="M0 0 C0.66 0 1.32 0 2 0 C2.2475 0.804375 2.495 1.60875 2.75 2.4375 C3.72238859 5.171081 3.72238859 5.171081 6.125 5.8125 C7.053125 5.9053125 7.053125 5.9053125 8 6 C8 6.66 8 7.32 8 8 C7.21625 8.268125 6.4325 8.53625 5.625 8.8125 C2.71885077 9.84814432 2.71885077 9.84814432 1 13 C0.6596875 12.071875 0.6596875 12.071875 0.3125 11.125 C-1.37929835 8.38589791 -2.99244161 7.94975528 -6 7 C-3 5 -3 5 -1 4 C-0.34786708 1.97536745 -0.34786708 1.97536745 0 0 Z " fill="#21AEEB" transform="translate(460,453)"/>
<path d="M0 0 C0.66 0 1.32 0 2 0 C2.0825 0.61875 2.165 1.2375 2.25 1.875 C2.81258459 4.18437567 2.81258459 4.18437567 5.0625 5.25 C5.701875 5.4975 6.34125 5.745 7 6 C6.360625 6.433125 5.72125 6.86625 5.0625 7.3125 C2.73253997 8.91239177 2.73253997 8.91239177 2 12 C1.34 12 0.68 12 0 12 C0 10.68 0 9.36 0 8 C-1.65 7.67 -3.3 7.34 -5 7 C-5 6.34 -5 5.68 -5 5 C-4.360625 4.731875 -3.72125 4.46375 -3.0625 4.1875 C-0.66868314 3.11332248 -0.66868314 3.11332248 0 0 Z " fill="#16ABE8" transform="translate(429,440)"/>
<path d="M0 0 C0 3.9478088 -1.33724565 5.18508826 -4 8 C-4.99 8 -5.98 8 -7 8 C-7 8.99 -7 9.98 -7 11 C-11.34285714 15 -11.34285714 15 -14 15 C-12.41948722 11.14750011 -9.94555446 8.71095984 -7 5.8125 C-6.113125 4.93207031 -5.22625 4.05164063 -4.3125 3.14453125 C-2 1 -2 1 0 0 Z " fill="#324A5B" transform="translate(266,252)"/>
<path d="M0 0 C1.65 0.33 3.3 0.66 5 1 C5.625 2.875 5.625 2.875 6 5 C5.34 5.66 4.68 6.32 4 7 C1.875 6.625 1.875 6.625 0 6 C-1.125 2.25 -1.125 2.25 0 0 Z " fill="#22ADE7" transform="translate(618,633)"/>
<path d="M0 0 C1.2065625 0.0309375 1.2065625 0.0309375 2.4375 0.0625 C2.81968767 1.71864657 3.15145102 3.38707024 3.4375 5.0625 C2.4375 6.0625 2.4375 6.0625 -0.125 6.125 C-1.3315625 6.0940625 -1.3315625 6.0940625 -2.5625 6.0625 C-2.94468767 4.40635343 -3.27645102 2.73792976 -3.5625 1.0625 C-2.5625 0.0625 -2.5625 0.0625 0 0 Z " fill="#19A2E0" transform="translate(647.5625,617.9375)"/>
<path d="M0 0 C1.2065625 0.0309375 1.2065625 0.0309375 2.4375 0.0625 C2.81968767 1.71864657 3.15145102 3.38707024 3.4375 5.0625 C2.4375 6.0625 2.4375 6.0625 -0.125 6.125 C-1.3315625 6.0940625 -1.3315625 6.0940625 -2.5625 6.0625 C-2.94468767 4.40635343 -3.27645102 2.73792976 -3.5625 1.0625 C-2.5625 0.0625 -2.5625 0.0625 0 0 Z " fill="#19AAE4" transform="translate(651.5625,602.9375)"/>
<path d="M0 0 C2.0625 0.4375 2.0625 0.4375 4 1 C4.33 2.65 4.66 4.3 5 6 C3.1875 6.625 3.1875 6.625 1 7 C0.01 6.34 -0.98 5.68 -2 5 C-1.125 1.125 -1.125 1.125 0 0 Z " fill="#24AEE3" transform="translate(592,587)"/>
<path d="M0 0 C2.0625 0.4375 2.0625 0.4375 4 1 C4.33 2.65 4.66 4.3 5 6 C2.625 6.625 2.625 6.625 0 7 C-0.66 6.34 -1.32 5.68 -2 5 C-1.46428571 1.46428571 -1.46428571 1.46428571 0 0 Z " fill="#1EA8DE" transform="translate(604,576)"/>
<path d="M0 0 C2 0.25 2 0.25 4 1 C4.33 1.99 4.66 2.98 5 4 C4.01 5.485 4.01 5.485 3 7 C1.35 6.67 -0.3 6.34 -2 6 C-1.125 1.125 -1.125 1.125 0 0 Z " fill="#1BA5DD" transform="translate(635,576)"/>
<path d="M0 0 C2.0625 0.4375 2.0625 0.4375 4 1 C4.33 2.32 4.66 3.64 5 5 C2.625 6.0625 2.625 6.0625 0 7 C-0.66 6.67 -1.32 6.34 -2 6 C-1.125 1.125 -1.125 1.125 0 0 Z " fill="#19AADF" transform="translate(646,587)"/>
<path d="M0 0 C1.65 0 3.3 0 5 0 C5.33 1.65 5.66 3.3 6 5 C3.625 5.625 3.625 5.625 1 6 C0.34 5.34 -0.32 4.68 -1 4 C-0.625 1.875 -0.625 1.875 0 0 Z " fill="#17A3E2" transform="translate(587,603)"/>
<path d="M0 0 C1.67542976 0.28604898 3.34385343 0.61781233 5 1 C4.67 2.65 4.34 4.3 4 6 C2.0625 6.5625 2.0625 6.5625 0 7 C-1 6 -1 6 -1.125 3.5 C-1 1 -1 1 0 0 Z " fill="#17A8E6" transform="translate(619,572)"/>
<path d="M0 0 C1.32 0 2.64 0 4 0 C4.33 1.98 4.66 3.96 5 6 C3.125 6.625 3.125 6.625 1 7 C0.34 6.34 -0.32 5.68 -1 5 C-0.625 2.375 -0.625 2.375 0 0 Z " fill="#1AA6E2" transform="translate(634,629)"/>
<path d="M0 0 C1.32 0 2.64 0 4 0 C4.6875 1.8125 4.6875 1.8125 5 4 C3.5625 5.75 3.5625 5.75 2 7 C0.68 6.34 -0.64 5.68 -2 5 C-1.125 1.125 -1.125 1.125 0 0 Z " fill="#14A5E1" transform="translate(604,629)"/>
<path d="M0 0 C1.65 0 3.3 0 5 0 C5.625 1.875 5.625 1.875 6 4 C5.34 4.66 4.68 5.32 4 6 C1.375 5.625 1.375 5.625 -1 5 C-0.67 3.35 -0.34 1.7 0 0 Z " fill="#12A4E3" transform="translate(592,618)"/>
<path d="M0 0 C0.66 0 1.32 0 2 0 C1.45276317 3.37462715 0.9451 5.08235 -1 8 C-3.625 8.1875 -3.625 8.1875 -6 8 C-6 7.34 -6 6.68 -6 6 C-4.35 5.67 -2.7 5.34 -1 5 C-0.67 3.35 -0.34 1.7 0 0 Z " fill="#30B3E6" transform="translate(509,437)"/>
<path d="M0 0 C-0.33 1.65 -0.66 3.3 -1 5 C-2.65 4.67 -4.3 4.34 -6 4 C-2.25 0 -2.25 0 0 0 Z " fill="#0BA5E3" transform="translate(597,589)"/>
<path d="M0 0 C0.99 0.33 1.98 0.66 3 1 C3.6875 3.0625 3.6875 3.0625 4 5 C2.35 4.67 0.7 4.34 -1 4 C-0.67 2.68 -0.34 1.36 0 0 Z " fill="#0198D6" transform="translate(603,577)"/>
<path d="M0 0 C0.66 0 1.32 0 2 0 C1.67 1.65 1.34 3.3 1 5 C-0.98 5.66 -2.96 6.32 -5 7 C-5 6.34 -5 5.68 -5 5 C-4.360625 4.731875 -3.72125 4.46375 -3.0625 4.1875 C-0.66868314 3.11332248 -0.66868314 3.11332248 0 0 Z " fill="#30B6E9" transform="translate(429,440)"/>
</svg>
