<?xml version="1.0" encoding="UTF-8"?>
<svg version="1.1" xmlns="http://www.w3.org/2000/svg" width="501" height="487">
<path d="M0 0 C165.33 0 330.66 0 501 0 C501 160.71 501 321.42 501 487 C335.67 487 170.34 487 0 487 C0 326.29 0 165.58 0 0 Z " fill="#54C9ED" transform="translate(0,0)"/>
<path d="M0 0 C165.33 0 330.66 0 501 0 C501 160.71 501 321.42 501 487 C335.67 487 170.34 487 0 487 C0 326.29 0 165.58 0 0 Z M432.83666992 41.37353516 C432.02449509 41.67450104 431.21232025 41.97546692 430.37553406 42.28555298 C429.50266251 42.61671112 428.62979095 42.94786926 427.73046875 43.2890625 C426.81727371 43.62996918 425.90407867 43.97087585 424.96321106 44.32211304 C422.03565224 45.41698966 419.11165302 46.52106417 416.1875 47.625 C414.26127742 48.3456129 412.33484711 49.06567079 410.40820312 49.78515625 C408.515448 50.49431944 406.62286799 51.20395018 404.73046875 51.9140625 C403.80458954 52.26108215 402.87871033 52.60810181 401.92477417 52.96563721 C397.74543666 54.54276149 393.59025276 56.14974686 389.47900391 57.89746094 C388.79743729 58.18438812 388.11587067 58.47131531 387.41365051 58.76693726 C385.63247203 59.52460262 383.85941253 60.30127874 382.0871582 61.07958984 C376.14958924 62.84982591 371.30278816 60.43709461 365.8125 58.1875 C350.90784567 52.38332904 336.04427762 50.39393786 320.14013672 50.49829102 C318.45064853 50.49449321 316.76116348 50.48898129 315.07168579 50.48191833 C310.54688381 50.4681388 306.02246955 50.47900724 301.49768972 50.49562955 C296.72511203 50.509647 291.9525531 50.5030014 287.17996216 50.49949646 C279.17313508 50.49680788 271.16645907 50.51015443 263.15966797 50.53344727 C253.94653835 50.56006658 244.73366071 50.56179316 235.52050579 50.5500589 C226.59788837 50.53922379 217.67536073 50.54551176 208.7527504 50.55961418 C204.98206546 50.56532267 201.21144734 50.56533237 197.44076157 50.56054878 C192.99010288 50.55572314 188.53971487 50.56610784 184.08910751 50.58750343 C182.47078361 50.59299567 180.85243329 50.59360779 179.23410797 50.58855057 C143.45240334 50.4908809 113.10662921 63.55251393 87.53515625 88.39453125 C74.78883301 101.90249771 65.62171925 118.70203509 59.625 136.1875 C59.38620117 136.87497314 59.14740234 137.56244629 58.90136719 138.27075195 C54.69676795 151.26028628 54.71870387 164.43809819 54.77294922 177.92700195 C54.77351437 179.9091898 54.77319474 181.89137807 54.77206421 183.87356567 C54.77149377 189.21770405 54.78319776 194.56175142 54.79721212 199.90586877 C54.80977129 205.50455776 54.81089405 211.10324917 54.81326294 216.70195007 C54.81946253 227.28736973 54.83585266 237.87274775 54.85596192 248.45814914 C54.87836841 260.51625647 54.88932627 272.57436586 54.89935279 284.63248885 C54.92022031 309.42168226 54.95536654 334.21083879 55 359 C57.31 357.35 59.62 355.7 62 354 C62.40089844 354.98097656 62.80179688 355.96195312 63.21484375 356.97265625 C69.68476316 372.47528052 77.65578563 385.59433867 89 398 C89.71671875 398.79921875 90.4334375 399.5984375 91.171875 400.421875 C111.90259393 422.39955447 142.53409491 435.45578945 172.5428772 436.45849609 C181.78281671 436.70113593 191.02705736 436.65532788 200.26916718 436.60576439 C204.94381864 436.58534415 209.61845143 436.59155056 214.2931366 436.59387207 C222.13066905 436.59381886 229.96795755 436.57427202 237.80541992 436.54199219 C246.8175364 436.50505069 255.82933493 436.49632948 264.84151727 436.5032897 C273.58261186 436.50963069 282.32359953 436.49877839 291.06467247 436.47932434 C294.75358309 436.47123101 298.44243847 436.46842564 302.13135719 436.47001648 C306.48441638 436.47090628 310.83718131 436.4563906 315.19016266 436.43078995 C316.77097583 436.42373175 318.35182056 436.4214933 319.9326458 436.42490768 C328.26567215 436.43945259 336.32865218 435.99531105 344.56254578 434.64953613 C345.28393291 434.53187755 346.00532005 434.41421897 346.7485674 434.29299498 C354.54340492 432.89879306 361.7663127 430.16029125 369 427 C370.04671875 426.54753906 371.0934375 426.09507812 372.171875 425.62890625 C400.87393549 412.22701822 423.33099076 386.07640862 435 357 C436.53164731 352.70951395 437.81729192 348.39783685 439 344 C439.28617187 343.03320312 439.57234375 342.06640625 439.8671875 341.0703125 C443.02059341 330.22860264 443.15336351 319.61465937 443.16113281 308.40869141 C443.16576929 306.84215175 443.17079505 305.2756132 443.17617798 303.70907593 C443.18922865 299.47293145 443.19573314 295.23680276 443.20018864 291.00064135 C443.20313274 288.344576 443.2072401 285.68851484 443.21169281 283.03245163 C443.22535172 274.69503318 443.23502484 266.35762446 443.2388947 258.0201956 C443.24336424 248.4473278 443.26086746 238.87460358 443.2898953 229.30177939 C443.31163711 221.86951243 443.32160568 214.43728549 443.32293582 207.00498712 C443.32397544 202.5817761 443.32970018 198.15870031 443.34775543 193.73552322 C444.07791918 165.45071598 444.07791918 165.45071598 438.3125 138 C434.30909405 125.63158267 437.18449279 110.27469264 438.14282227 97.57617188 C439.04527924 85.29075584 439.59517186 72.99397359 440.125 60.6875 C440.16929138 59.66086243 440.21358276 58.63422485 440.25921631 57.57647705 C440.5109694 51.71784814 440.7576114 45.85902348 441 40 C437.500759 40 435.95808607 40.20309545 432.83666992 41.37353516 Z " fill="#183A5B" transform="translate(0,0)"/>
<path d="M0 0 C0.70185106 -0.00438225 1.40370212 -0.00876451 2.1268214 -0.01327956 C4.45522727 -0.02652679 6.78359543 -0.03281451 9.11203003 -0.03897095 C10.79178024 -0.04688352 12.4715288 -0.05515316 14.15127563 -0.06375122 C19.65103561 -0.08985424 25.1508027 -0.10527466 30.65060425 -0.11953735 C32.55451333 -0.12490326 34.45842238 -0.13028078 36.36233139 -0.13566971 C44.29415543 -0.15728793 52.22597755 -0.17601661 60.15782356 -0.1872921 C71.46494362 -0.20347914 82.77171729 -0.23654105 94.07870686 -0.29369295 C102.0604621 -0.33263777 110.04212571 -0.35195399 118.02397335 -0.35721266 C122.77436112 -0.36083487 127.52437855 -0.37251588 132.27466202 -0.4053154 C156.97611281 -0.5674749 181.00713109 -0.38650133 203.58029175 11.15390015 C203.91029175 11.81390015 204.24029175 12.47390015 204.58029175 13.15390015 C200.97899554 14.49507868 197.37381316 15.82548405 193.76779175 17.15390015 C192.74363159 17.53546265 191.71947144 17.91702515 190.66427612 18.31015015 C189.68136597 18.67108765 188.69845581 19.03202515 187.6857605 19.40390015 C186.77979126 19.7390564 185.87382202 20.07421265 184.94039917 20.41952515 C182.58029175 21.15390015 182.58029175 21.15390015 179.58029175 21.15390015 C183.5478772 25.4248892 187.87121298 28.6054731 192.70529175 31.84140015 C193.42072144 32.32673218 194.13615112 32.81206421 194.8732605 33.31210327 C197.76682461 35.27269578 200.67208358 37.2150947 203.58029175 39.15390015 C203.25029175 40.47390015 202.92029175 41.79390015 202.58029175 43.15390015 C201.92029175 43.15390015 201.26029175 43.15390015 200.58029175 43.15390015 C200.32892456 43.71206421 200.07755737 44.27022827 199.818573 44.8453064 C198.3834985 47.52079229 196.67264333 49.72763594 194.76779175 52.09140015 C193.76812378 53.3424353 193.76812378 53.3424353 192.7482605 54.6187439 C190.47695905 57.27473423 188.0658867 59.6978078 185.58029175 62.15390015 C178.88641157 69.10950917 172.40062256 76.17061767 166.47091675 83.79452515 C164.43097062 86.34024304 162.27974853 88.74497129 160.08029175 91.15390015 C157.15554666 94.35814306 154.37920152 97.61284399 151.70529175 101.02890015 C148.15432568 105.54247749 144.35737893 109.76582467 140.43624878 113.95614624 C138.33981801 116.20226751 136.54187276 118.2203982 134.9982605 120.8921814 C130.97097572 124.6592216 125.9702574 124.45027585 120.64279175 125.02890015 C90.97210135 128.94215238 62.83345812 141.6614402 42.58029175 164.15390015 C39.15799205 162.65713126 36.75558962 160.67971038 34.01779175 158.15390015 C33.13865112 157.35081421 32.2595105 156.54772827 31.35372925 155.7203064 C29.52118058 154.02455361 27.69296293 152.32410706 25.86935425 150.6187439 C11.64138662 137.05781099 11.64138662 137.05781099 -6.837677 132.7828064 C-16.82084838 134.2176041 -23.43072269 142.71142496 -29.665802 149.8843689 C-33.46329631 154.23684275 -37.3914738 158.4548872 -41.35720825 162.65390015 C-42.02171997 163.36159546 -42.68623169 164.06929077 -43.37088013 164.7984314 C-47.38017034 169.05271218 -51.4578224 173.22296653 -55.62356567 177.3243103 C-57.42991117 179.16429306 -59.12064036 181.06845445 -60.79470825 183.02890015 C-63.53592274 186.22072523 -66.42656713 189.19692991 -69.41970825 192.15390015 C-72.30960653 195.00913698 -75.1042257 197.8689021 -77.73220825 200.96640015 C-80.94209767 204.72524927 -84.40761234 208.18132149 -87.91970825 211.65390015 C-91.34816485 215.04395342 -94.7423161 218.40584073 -97.85720825 222.09140015 C-101.29925622 226.14653554 -105.04157014 229.88950121 -108.79470825 233.65390015 C-109.74301514 234.60897461 -109.74301514 234.60897461 -110.71047974 235.58334351 C-111.30288452 236.1738147 -111.89528931 236.76428589 -112.50564575 237.37265015 C-113.04237915 237.90825562 -113.57911255 238.44386108 -114.1321106 238.99569702 C-115.41970825 240.15390015 -115.41970825 240.15390015 -116.41970825 240.15390015 C-116.49009386 223.10647798 -116.54284008 206.0591018 -116.57514477 189.01156712 C-116.59054959 181.09436215 -116.61151537 173.17724797 -116.64602661 165.26010132 C-116.67612623 158.35166272 -116.69532952 151.44328995 -116.70197374 144.5347876 C-116.70585156 140.88389833 -116.71482791 137.23319722 -116.73689842 133.58236885 C-116.94587527 97.61033281 -116.94587527 97.61033281 -110.29470825 80.59140015 C-109.8468396 79.41662109 -109.8468396 79.41662109 -109.3899231 78.21810913 C-104.31381514 65.37205075 -97.1963713 53.80815778 -88.41970825 43.15390015 C-87.61146606 42.1690564 -86.80322388 41.18421265 -85.9704895 40.16952515 C-64.81087575 15.75215322 -32.40889578 0.14479947 0 0 Z " fill="#FDFEFD" transform="translate(171.41970825195313,50.846099853515625)"/>
<path d="M0 0 C4.14502376 1.37162604 7.83555352 3.22657028 11.66015625 5.31640625 C12.38525391 5.69925781 13.11035156 6.08210937 13.85742188 6.4765625 C18.59061107 9.01964169 22.91020046 11.86189365 27.22265625 15.06640625 C25.48349444 19.03169518 23.00520964 21.37080563 19.87890625 24.28515625 C18.18070308 26.1115257 17.21949297 27.79361854 16.22265625 30.06640625 C17.0940625 30.78183594 17.96546875 31.49726563 18.86328125 32.234375 C41.04904632 50.67913403 56.85884389 72.39865538 63.22265625 101.06640625 C63.44953125 102.07832031 63.67640625 103.09023438 63.91015625 104.1328125 C69.40760915 133.41438455 62.35389227 163.33893268 46.24609375 188.10546875 C41.70907587 194.52236655 36.60430726 200.34963412 31.22265625 206.06640625 C30.68382812 206.6696875 30.145 207.27296875 29.58984375 207.89453125 C15.21109192 223.35710859 -5.55687382 232.32164458 -25.77734375 237.06640625 C-26.81375 237.31132812 -27.85015625 237.55625 -28.91796875 237.80859375 C-57.78250142 243.32459083 -89.70865279 237.13827661 -114.2265625 220.87109375 C-137.85822499 203.63388111 -155.52694145 180.66521533 -162.77734375 152.06640625 C-163.07640625 150.926875 -163.37546875 149.78734375 -163.68359375 148.61328125 C-165.15790499 142.08808892 -165.88912619 136.36555677 -165.43359375 129.65234375 C-164.05408912 118.36192999 -164.05408912 118.36192999 -167.23632812 107.97070312 C-169.78269285 105.65316532 -172.35120977 103.95642525 -175.44238281 102.44604492 C-177.47079656 101.44992305 -179.1209266 100.6078895 -180.77734375 99.06640625 C-182.56888516 92.96891945 -179.9831538 86.67244064 -177.77734375 81.00390625 C-177.34808594 79.84858398 -177.34808594 79.84858398 -176.91015625 78.66992188 C-176.2122397 76.79717912 -175.49665052 74.93103778 -174.77734375 73.06640625 C-170.8725592 74.68568894 -168.21561819 77.25966671 -165.15234375 80.12890625 C-161.73524622 83.48174272 -161.73524622 83.48174272 -157.77734375 86.06640625 C-157.77734375 86.72640625 -157.77734375 87.38640625 -157.77734375 88.06640625 C-156.94396484 88.42025391 -156.94396484 88.42025391 -156.09375 88.78125 C-153.21358784 90.37918145 -151.11365299 92.37141125 -148.71484375 94.62890625 C-143.25276863 99.68150854 -137.58653548 104.41543344 -131.77734375 109.06640625 C-130.46056641 110.12988281 -130.46056641 110.12988281 -129.1171875 111.21484375 C-123.44187862 115.70582273 -118.88735725 116.59301214 -111.7578125 116.43359375 C-108.12529154 115.98607479 -105.51403268 114.90841961 -102.3984375 113.0390625 C-100.77734375 112.06640625 -100.77734375 112.06640625 -97.77734375 111.06640625 C-97.08931837 109.74396786 -96.42730461 108.40796247 -95.77734375 107.06640625 C-94.30108528 105.2786437 -92.77605524 103.53048114 -91.21484375 101.81640625 C-90.40917969 100.924375 -89.60351562 100.03234375 -88.7734375 99.11328125 C-88.11472656 98.4378125 -87.45601563 97.76234375 -86.77734375 97.06640625 C-86.44734375 97.06640625 -86.11734375 97.06640625 -85.77734375 97.06640625 C-85.76316406 98.09378906 -85.74898438 99.12117188 -85.734375 100.1796875 C-85.46321623 109.83971861 -84.78619987 118.68879998 -77.8671875 126.1171875 C-70.84780164 132.06646735 -62.3566618 134.84766559 -53.7734375 137.7890625 C-52.88889893 138.09328125 -52.00436035 138.3975 -51.09301758 138.7109375 C-49.33454571 139.31086983 -47.57274233 139.90114726 -45.80737305 140.48046875 C-39.64575454 142.55789379 -34.50806699 144.47032138 -30.77734375 150.06640625 C-30.33277964 154.66023544 -30.12145572 156.94896738 -32.46484375 160.94140625 C-38.56738761 166.54914926 -46.59389656 165.68545069 -54.3984375 165.51953125 C-65.10810698 164.91248989 -74.68242486 160.47864776 -83.77734375 155.06640625 C-83.89980469 155.9171875 -84.02226562 156.76796875 -84.1484375 157.64453125 C-84.79404134 161.15725772 -85.74745899 164.41787589 -86.83984375 167.81640625 C-88.25835871 171.86820728 -88.25835871 171.86820728 -88.77734375 176.06640625 C-77.77251843 181.4220879 -68.05379168 185.53185026 -55.77734375 187.06640625 C-55.77734375 193.00640625 -55.77734375 198.94640625 -55.77734375 205.06640625 C-49.83734375 205.06640625 -43.89734375 205.06640625 -37.77734375 205.06640625 C-37.77734375 199.12640625 -37.77734375 193.18640625 -37.77734375 187.06640625 C-35.85921875 186.47859375 -35.85921875 186.47859375 -33.90234375 185.87890625 C-22.80613914 182.11038393 -14.68527562 177.51264638 -9.33984375 166.69140625 C-6.20225857 157.8788844 -5.89482171 145.97309911 -9.77734375 137.37890625 C-18.35068704 123.40219534 -35.47465403 118.69493297 -50.33984375 114.44140625 C-54.99398093 113.06805429 -58.42538605 111.69807933 -61.58984375 107.87890625 C-63.15982309 104.16053413 -63.51009082 101.04417604 -62.77734375 97.06640625 C-60.60952301 93.50498646 -58.6379328 91.55623088 -54.77734375 90.06640625 C-40.71299071 88.38900635 -26.32666891 91.53195063 -13.77734375 98.06640625 C-13.65617188 97.34195313 -13.535 96.6175 -13.41015625 95.87109375 C-12.52355513 90.75608729 -11.45715539 85.98585463 -9.77734375 81.06640625 C-9.77734375 79.74640625 -9.77734375 78.42640625 -9.77734375 77.06640625 C-18.89937635 73.141985 -26.83782466 70.30884614 -36.77734375 69.06640625 C-36.77734375 62.79640625 -36.77734375 56.52640625 -36.77734375 50.06640625 C-39.41734375 50.06640625 -42.05734375 50.06640625 -44.77734375 50.06640625 C-42.36921164 45.70064293 -39.41181158 42.11426869 -36.15234375 38.37890625 C-35.61963867 37.76241211 -35.08693359 37.14591797 -34.53808594 36.51074219 C-31.41218878 32.90480323 -28.23868954 29.34664875 -25.02734375 25.81640625 C-22.17128286 22.67320099 -19.46526415 19.46701562 -16.83984375 16.12890625 C-13.81962705 12.34308572 -10.79442918 8.56446199 -7.65234375 4.87890625 C-6.86601562 3.93660156 -6.0796875 2.99429688 -5.26953125 2.0234375 C-2.77734375 0.06640625 -2.77734375 0.06640625 0 0 Z " fill="#173857" transform="translate(359.77734375,182.93359375)"/>
<path d="M0 0 C7.20921633 0.54512033 12.0938935 6.48962245 16.90551758 11.35644531 C18.29895427 13.44893155 18.31326514 14.76965824 18.125 17.25 C17.45889186 18.85155565 16.74243761 20.432369 16 22 C15.1338779 24.55699104 14.29951432 27.11010632 13.5 29.6875 C13.27948975 30.38810547 13.05897949 31.08871094 12.83178711 31.81054688 C6.75748357 51.46895536 6.48454322 75.19566218 12 95 C12.20496094 95.89203125 12.40992188 96.7840625 12.62109375 97.703125 C17.30519813 117.13779409 26.50161368 133.8259513 38.93359375 149.29296875 C40.62188063 151.50465648 41.89316174 153.46576377 43 156 C43.66 156 44.32 156 45 156 C45.53625 156.680625 46.0725 157.36125 46.625 158.0625 C60.40475311 175.10587885 83.44332517 186.62843684 104 193 C104 193.33 104 193.66 104 194 C90.49810674 194.14023949 76.99639229 194.24624138 63.49391365 194.31087303 C57.221263 194.34192389 50.94911773 194.38390588 44.67675781 194.45263672 C38.6012172 194.5187792 32.52615647 194.55390212 26.45028305 194.56926346 C24.15509378 194.58018226 21.85992482 194.6014918 19.56494522 194.63438034 C-18.07014539 195.15128848 -49.74727997 183.29936418 -77 157.375 C-85.45856265 148.67514714 -92.26458324 138.85701828 -98 128.1875 C-98.3616626 127.51904053 -98.7233252 126.85058105 -99.09594727 126.16186523 C-101.77793072 120.9652439 -103.47057847 115.63467279 -105 110 C-104.3702124 109.37544922 -103.7404248 108.75089844 -103.09155273 108.10742188 C-100.72064355 105.75371686 -98.352126 103.39765427 -95.98510742 101.04003906 C-94.96682708 100.02673848 -93.94764526 99.01434288 -92.92749023 98.00292969 C-87.61885616 92.73859938 -82.40727086 87.45141591 -77.54467773 81.76513672 C-75.10350166 78.97555192 -72.46664361 76.39761517 -69.8125 73.8125 C-66.2867706 70.37636982 -63.06739994 66.85422797 -60 63 C-58.35766039 61.30935629 -56.68696774 59.64611524 -55 58 C-52.37067934 55.40018185 -49.74817634 52.79351537 -47.125 50.1875 C-46.44308594 49.51396484 -45.76117188 48.84042969 -45.05859375 48.14648438 C-41.09730867 44.20406255 -37.34867963 40.15475242 -33.70117188 35.92163086 C-31.000411 32.87087184 -28.10117642 30.0331793 -25.1875 27.1875 C-20.76410066 22.88254638 -20.76410066 22.88254638 -17 18 C-16.34 18 -15.68 18 -15 18 C-14.7834375 17.45472656 -14.566875 16.90945313 -14.34375 16.34765625 C-12.54862264 13.21140176 -10.0867754 10.91398652 -7.5 8.4375 C-4.71628244 5.75088887 -2.16106778 3.24160167 0 0 Z " fill="#FCFDFD" transform="translate(167,242)"/>
<path d="M0 0 C23.46528545 10.38627389 40.02932436 39.90035576 49.12744141 62.65771484 C54.41700934 76.85696352 56.18692876 90.3681379 56.18530273 105.47070312 C56.18748136 107.73066274 56.20566227 109.99012687 56.22460938 112.25 C56.25790377 120.70022256 55.79737043 128.70333167 54 137 C53.78089966 138.03326416 53.78089966 138.03326416 53.55737305 139.08740234 C46.2961712 171.11836305 27.35703316 199.88225954 -0.1640625 218.09375 C-25.798843 234.18302676 -50.10379068 237.56930168 -79.82275391 237.5559082 C-82.69507099 237.55566342 -85.5659626 237.57668619 -88.43798828 237.61743164 C-118.71158892 238.040225 -118.71158892 238.040225 -132 231 C-132.8461084 230.61207275 -133.6922168 230.22414551 -134.56396484 229.82446289 C-136.63260967 228.86912757 -138.62665201 227.8434894 -140.625 226.75 C-141.32391357 226.37214355 -142.02282715 225.99428711 -142.74291992 225.60498047 C-152.62530579 220.13507484 -161.50646105 213.57052427 -169.875 206 C-170.39360596 205.53094238 -170.91221191 205.06188477 -171.4465332 204.57861328 C-172.67432806 203.4303645 -173.84350901 202.22003445 -175 201 C-175 200.34 -175 199.68 -175 199 C-175.66 199 -176.32 199 -177 199 C-178.80161126 196.97697861 -180.47243545 194.95295391 -182.125 192.8125 C-182.86097412 191.86552246 -182.86097412 191.86552246 -183.61181641 190.89941406 C-201.81288226 167.10212874 -212.48426571 139.19115501 -212.25 109.125 C-212.24202393 107.2843396 -212.24202393 107.2843396 -212.23388672 105.40649414 C-212.00940663 84.01410994 -212.00940663 84.01410994 -208 78 C-207.94457031 78.73992187 -207.88914063 79.47984375 -207.83203125 80.2421875 C-206.70027226 83.99346377 -204.89917328 84.95552534 -201.6875 87.125 C-200.72199219 87.78757812 -199.75648438 88.45015625 -198.76171875 89.1328125 C-197.15001427 90.22247974 -195.51851369 91.28558587 -193.84521484 92.27807617 C-192 94 -192 94 -191.59350586 96.47338867 C-191.63354736 97.4451001 -191.67358887 98.41681152 -191.71484375 99.41796875 C-191.74352539 100.49989502 -191.77220703 101.58182129 -191.80175781 102.6965332 C-191.84655273 103.84855225 -191.89134766 105.00057129 -191.9375 106.1875 C-192.14069897 116.63006665 -191.64864482 125.88699252 -189 136 C-188.73316406 137.07507813 -188.46632812 138.15015625 -188.19140625 139.2578125 C-180.36122472 167.58566924 -161.1324157 192.09607837 -135.85302734 206.95214844 C-109.43702484 221.8898932 -77.5608399 226.83197203 -48 219 C-17.25322405 209.93339981 7.8648704 191.37167141 23.39379883 163.01660156 C28.01745464 154.35982002 31.44236949 146.01008629 33.625 136.4375 C33.8415625 135.51775391 34.058125 134.59800781 34.28125 133.65039062 C41.2639334 103.67226528 35.68110066 74.26177411 20 48 C12.3485762 35.905814 2.41853581 25.36415816 -9.015625 16.8046875 C-9.99789062 15.91136719 -9.99789062 15.91136719 -11 15 C-11 11.30165104 -10.18635778 10.72918572 -7.75 8.0625 C-7.11449219 7.36253906 -6.47898437 6.66257813 -5.82421875 5.94140625 C-3.92272554 3.91776145 -2.00339585 1.92326002 0 0 Z " fill="#8292A2" transform="translate(387,199)"/>
<path d="M0 0 C4.23185063 1.259063 7.88206661 3.12299678 11.74609375 5.234375 C12.47119141 5.61722656 13.19628906 6.00007812 13.94335938 6.39453125 C18.67654857 8.93761044 22.99613796 11.7798624 27.30859375 14.984375 C25.56943194 18.94966393 23.09114714 21.28877438 19.96484375 24.203125 C18.26664058 26.02949445 17.30543047 27.71158729 16.30859375 29.984375 C17.18 30.69980469 18.05140625 31.41523438 18.94921875 32.15234375 C41.13498382 50.59710278 56.94478139 72.31662413 63.30859375 100.984375 C63.53546875 101.99628906 63.76234375 103.00820313 63.99609375 104.05078125 C69.49354665 133.3323533 62.43982977 163.25690143 46.33203125 188.0234375 C41.79501337 194.4403353 36.69024476 200.26760287 31.30859375 205.984375 C30.76976562 206.58765625 30.2309375 207.1909375 29.67578125 207.8125 C15.29702942 223.27507734 -5.47093632 232.23961333 -25.69140625 236.984375 C-26.7278125 237.22929687 -27.76421875 237.47421875 -28.83203125 237.7265625 C-57.69656392 243.24255958 -89.62271529 237.05624536 -114.140625 220.7890625 C-137.77228749 203.55184986 -155.44100395 180.58318408 -162.69140625 151.984375 C-162.99046875 150.84484375 -163.28953125 149.7053125 -163.59765625 148.53125 C-165.07196749 142.00605767 -165.80318869 136.28352552 -165.34765625 129.5703125 C-163.96815162 118.27989874 -163.96815162 118.27989874 -167.15039062 107.88867188 C-169.69675535 105.57113407 -172.26527227 103.874394 -175.35644531 102.36401367 C-177.38485906 101.3678918 -179.0349891 100.52585825 -180.69140625 98.984375 C-182.48294766 92.8868882 -179.8972163 86.59040939 -177.69140625 80.921875 C-177.26214844 79.76655273 -177.26214844 79.76655273 -176.82421875 78.58789062 C-176.1263022 76.71514787 -175.41071302 74.84900653 -174.69140625 72.984375 C-170.80903617 74.60356252 -168.13075743 77.1430359 -165.06640625 79.984375 C-163.62394531 81.3146875 -163.62394531 81.3146875 -162.15234375 82.671875 C-160.64514632 84.08816211 -159.1538551 85.52192615 -157.69140625 86.984375 C-158.35140625 86.984375 -159.01140625 86.984375 -159.69140625 86.984375 C-159.82417969 87.73203125 -159.95695312 88.4796875 -160.09375 89.25 C-160.27035156 90.23484375 -160.44695312 91.2196875 -160.62890625 92.234375 C-160.88994141 93.69617188 -160.88994141 93.69617188 -161.15625 95.1875 C-161.46883172 96.82113875 -161.81424358 98.45027944 -162.23828125 100.05859375 C-163.08759147 103.66816217 -163.22840763 107.31602792 -162.69140625 110.984375 C-160.83015702 112.96677027 -160.83015702 112.96677027 -158.69140625 113.984375 C-158.69140625 114.644375 -158.69140625 115.304375 -158.69140625 115.984375 C-157.04140625 116.644375 -155.39140625 117.304375 -153.69140625 117.984375 C-153.69140625 118.644375 -153.69140625 119.304375 -153.69140625 119.984375 C-153.03140625 119.984375 -152.37140625 119.984375 -151.69140625 119.984375 C-151.65402344 120.96535156 -151.61664063 121.94632812 -151.578125 122.95703125 C-150.52224571 146.23000699 -143.80693234 171.50926245 -126.90625 188.6015625 C-125.69140625 189.984375 -125.69140625 189.984375 -125.69140625 191.984375 C-125.03140625 191.984375 -124.37140625 191.984375 -123.69140625 191.984375 C-122.56058394 193.07985911 -121.43647237 194.18268632 -120.3359375 195.30859375 C-102.22233338 213.76639937 -78.16338788 223.80231811 -52.31762695 224.27661133 C-40.81607998 224.3526834 -30.66106389 223.44968526 -19.69140625 219.984375 C-18.6034375 219.65695312 -17.51546875 219.32953125 -16.39453125 218.9921875 C9.21237566 210.26545554 27.87924245 191.42639885 40.30859375 167.984375 C40.79457031 167.09105469 41.28054688 166.19773437 41.78125 165.27734375 C51.79542205 145.34087278 53.30268729 117.11608335 46.7578125 95.921875 C38.56343504 72.66194767 25.2970535 55.29083604 5.30859375 40.984375 C6.7528401 37.74576197 8.56631622 35.36468337 10.93359375 32.734375 C11.56523437 32.02796875 12.196875 31.3215625 12.84765625 30.59375 C13.32976562 30.06265625 13.811875 29.5315625 14.30859375 28.984375 C13.20644531 28.57445312 13.20644531 28.57445312 12.08203125 28.15625 C9.46383039 27.04996795 7.30767627 25.78377622 4.93359375 24.234375 C-1.56364696 20.23758753 -8.5777943 17.65909309 -15.69140625 14.984375 C-14.28999238 13.34369535 -12.8858431 11.70528132 -11.46875 10.078125 C-10.25697683 8.65062957 -9.08340497 7.19002881 -7.9453125 5.703125 C-7.36652344 4.9709375 -6.78773438 4.23875 -6.19140625 3.484375 C-5.66546875 2.7934375 -5.13953125 2.1025 -4.59765625 1.390625 C-2.69140625 -0.015625 -2.69140625 -0.015625 0 0 Z " fill="#425974" transform="translate(359.69140625,183.015625)"/>
<path d="M0 0 C2.95060123 1.3607777 5.32164976 2.93243832 7.8203125 5.00390625 C8.52027344 5.57947266 9.22023438 6.15503906 9.94140625 6.74804688 C11.02228516 7.64620117 11.02228516 7.64620117 12.125 8.5625 C13.5637355 9.75295813 15.00377821 10.94183873 16.4453125 12.12890625 C17.07969238 12.65556885 17.71407227 13.18223145 18.36767578 13.72485352 C19.9849104 15.07503592 19.9849104 15.07503592 22 16 C22 16.66 22 17.32 22 18 C22.66 18 23.32 18 24 18 C24.33 17.34 24.66 16.68 25 16 C32.02745568 33.58089366 31.42198546 52.12294853 31.30418181 70.77340865 C31.28513503 74.31004638 31.28364295 77.84669597 31.28010559 81.38337708 C31.27086583 88.04810196 31.24636429 94.71267516 31.21605712 101.37733394 C31.18225814 108.97857571 31.16596374 116.57982561 31.15097082 124.18112409 C31.11980515 139.7875032 31.06720599 155.39373187 31 171 C30.67 171 30.34 171 30 171 C29.84144531 170.01902344 29.68289063 169.03804687 29.51953125 168.02734375 C23.71985615 133.78999977 5.41082903 101.41235434 -23.12890625 81 C-32.65254431 74.38682214 -42.48701036 68.86977722 -53 64 C-52.47403544 59.83124387 -50.19493533 57.73180473 -47.375 54.75 C-46.45259106 53.76221708 -45.53071754 52.77393391 -44.609375 51.78515625 C-43.74828125 50.86605469 -42.8871875 49.94695312 -42 49 C-36.07426575 42.39151811 -30.35538125 35.59501003 -24.58496094 28.85107422 C-23.03988485 27.04658148 -21.49297021 25.24368504 -19.9453125 23.44140625 C-13.26193479 15.6569191 -6.61679222 7.84115929 0 0 Z " fill="#DBDDDD" transform="translate(412,119)"/>
<path d="M0 0 C0 5.94 0 11.88 0 18 C2.97 18 5.94 18 9 18 C12.984375 18.98828125 12.984375 18.98828125 16.75 20.3125 C17.38292969 20.52583984 18.01585937 20.73917969 18.66796875 20.95898438 C22.40156222 22.25914426 25.68880913 23.8451983 29 26 C28.3900874 30.98844309 27.36525565 35.60155346 25.9375 40.4375 C25.39416016 42.29181641 25.39416016 42.29181641 24.83984375 44.18359375 C24.42412109 45.57771484 24.42412109 45.57771484 24 47 C23.44054687 46.82984375 22.88109375 46.6596875 22.3046875 46.484375 C20.56873462 45.95968185 18.83013279 45.44372055 17.08984375 44.93359375 C14.98652878 44.29807886 12.89520077 43.62179266 10.81640625 42.91015625 C4.15269167 40.74541198 -2.02485238 39.59308269 -9 39.5 C-10.05876343 39.47256714 -10.05876343 39.47256714 -11.13891602 39.44458008 C-16.1942642 39.50422487 -19.1156389 40.82619276 -23 44 C-24.97970531 47.95941061 -24.31385251 52.68752586 -23.3125 56.875 C-20.92142026 60.74627195 -15.8629744 61.40825047 -11.68359375 62.734375 C20.83715992 73.19444927 20.83715992 73.19444927 28.9375 86.3125 C32.88788732 94.85423152 32.57501027 106.75114769 29.5 115.5625 C25.07292419 124.54048591 18.38555007 130.60319481 9 134 C5.04 134.99 5.04 134.99 1 136 C0.67 141.94 0.34 147.88 0 154 C-5.94 154 -11.88 154 -18 154 C-18 148.06 -18 142.12 -18 136 C-20.64 136 -23.28 136 -26 136 C-35.34237649 133.75624114 -43.79169286 129.96594049 -52 125 C-50.29977612 117.87352969 -48.42080258 110.9165788 -46 104 C-40.86429507 105.6507623 -35.95732044 107.66406106 -31 109.78125 C-29.515 110.38453125 -29.515 110.38453125 -28 111 C-27.0925 111.37511719 -26.185 111.75023437 -25.25 112.13671875 C-20.80000639 113.3187483 -16.58441356 113.32935446 -12 113.3125 C-10.68515625 113.33666992 -10.68515625 113.33666992 -9.34375 113.36132812 C-4.15899192 113.36523231 -0.44591363 112.966258 4 110 C6.11212504 106.83181244 6.33156464 104.86780748 6.55859375 101.1328125 C5.65921838 97.6988338 3.69752494 96.23355065 1 94 C-1.46826272 92.85452346 -3.75392319 91.92109542 -6.3125 91.0625 C-7.00674072 90.81435547 -7.70098145 90.56621094 -8.41625977 90.31054688 C-10.60661884 89.52776524 -12.80249616 88.76246872 -15 88 C-32.72635553 81.81219627 -32.72635553 81.81219627 -40 76 C-40.763125 75.4225 -41.52625 74.845 -42.3125 74.25 C-48.35814644 66.18913807 -49.2400077 56.77483545 -48 47 C-46.00397648 42.76248729 -42.91573448 39.34224457 -39.875 35.8125 C-39.39434082 35.24950195 -38.91368164 34.68650391 -38.41845703 34.10644531 C-28.28049969 22.28049969 -28.28049969 22.28049969 -24 18 C-22.00041636 17.95919217 -19.99954746 17.95745644 -18 18 C-18.05800781 17.40832031 -18.11601562 16.81664062 -18.17578125 16.20703125 C-18.54815379 9.68519223 -18.54815379 9.68519223 -15.75 6.1875 C-14.8425 5.465625 -13.935 4.74375 -13 4 C-12.13375 2.8553125 -12.13375 2.8553125 -11.25 1.6875 C-9 0 -9 0 0 0 Z " fill="#F9FAFA" transform="translate(322,234)"/>
<path d="M0 0 C7.20921633 0.54512033 12.0938935 6.48962245 16.90551758 11.35644531 C18.2989169 13.44887543 18.31391245 14.76975283 18.125 17.25 C17.45085474 18.8481892 16.73584127 20.4292619 16 22 C15.40410863 23.92054178 14.81010647 25.84185866 14.24682617 27.7722168 C13.62331679 29.880692 12.9539058 31.96915335 12.26953125 34.05859375 C11.49727617 36.41955259 10.79198717 38.76145874 10.13671875 41.16015625 C8.64193845 46.19706998 7.01218226 49.34284079 2.953125 52.7265625 C-4.44847085 59.16647847 -11.30066305 66.15126074 -18.22583008 73.09545898 C-20.58495098 75.46000259 -22.94945097 77.81907467 -25.31445312 80.17773438 C-26.81542545 81.67936643 -28.31608812 83.18130807 -29.81640625 84.68359375 C-30.52358292 85.38874619 -31.23075958 86.09389862 -31.95936584 86.82041931 C-32.60771896 87.47192459 -33.25607208 88.12342987 -33.92407227 88.79467773 C-34.49569595 89.36709702 -35.06731964 89.9395163 -35.65626526 90.52928162 C-37.10289206 91.97816177 -37.10289206 91.97816177 -38 94 C-38.66 94 -39.32 94 -40 94 C-40 94.66 -40 95.32 -40 96 C-40.66 96 -41.32 96 -42 96 C-42 96.66 -42 97.32 -42 98 C-42.66 98 -43.32 98 -44 98 C-44 98.66 -44 99.32 -44 100 C-44.66 100 -45.32 100 -46 100 C-46.66 101.32 -47.32 102.64 -48 104 C-48.66 104 -49.32 104 -50 104 C-50.26982697 104.59514404 -50.53965393 105.19028809 -50.81765747 105.8034668 C-51.99548568 107.99161338 -53.16150734 109.40365892 -54.91748047 111.14453125 C-55.5050412 111.73194092 -56.09260193 112.31935059 -56.69796753 112.92456055 C-57.64798141 113.85909058 -57.64798141 113.85909058 -58.6171875 114.8125 C-59.27075226 115.46323486 -59.92431702 116.11396973 -60.59768677 116.78442383 C-62.68546948 118.86103161 -64.78009004 120.93058492 -66.875 123 C-68.27780298 124.39276678 -69.68015194 125.78599101 -71.08203125 127.1796875 C-74.21714545 130.29495536 -77.35403532 133.40836457 -80.50335693 136.50927734 C-81.77156095 137.77246461 -83.01054187 139.06488627 -84.24267578 140.36328125 C-86 142 -86 142 -89 143 C-93.86399691 135.32348788 -98.43459838 127.60059822 -102.1875 119.3125 C-102.50275635 118.6421875 -102.8180127 117.971875 -103.14282227 117.28125 C-105.19833465 112.57471974 -105.19833465 112.57471974 -104.33398438 110.07006836 C-102.70397307 107.54062732 -100.82753268 105.62109506 -98.67578125 103.515625 C-97.37930664 102.23558594 -97.37930664 102.23558594 -96.05664062 100.9296875 C-95.15107422 100.04539062 -94.24550781 99.16109375 -93.3125 98.25 C-87.87374457 92.91804195 -82.53838863 87.59708179 -77.58422852 81.80908203 C-75.12879933 79.00514764 -72.48111122 76.41170651 -69.8125 73.8125 C-66.2867706 70.37636982 -63.06739994 66.85422797 -60 63 C-58.35766039 61.30935629 -56.68696774 59.64611524 -55 58 C-52.37067934 55.40018185 -49.74817634 52.79351537 -47.125 50.1875 C-46.44308594 49.51396484 -45.76117188 48.84042969 -45.05859375 48.14648438 C-41.09730867 44.20406255 -37.34867963 40.15475242 -33.70117188 35.92163086 C-31.000411 32.87087184 -28.10117642 30.0331793 -25.1875 27.1875 C-20.76410066 22.88254638 -20.76410066 22.88254638 -17 18 C-16.34 18 -15.68 18 -15 18 C-14.7834375 17.45472656 -14.566875 16.90945313 -14.34375 16.34765625 C-12.54862264 13.21140176 -10.0867754 10.91398652 -7.5 8.4375 C-4.71628244 5.75088887 -2.16106778 3.24160167 0 0 Z " fill="#DDDEDE" transform="translate(167,242)"/>
<path d="M0 0 C4.6954672 1.89624637 7.98730325 5.57199593 11.578125 9.01171875 C14.34230216 11.61535027 16.55478389 13.27739195 20 15 C20 52.29 20 89.58 20 128 C19.67 128 19.34 128 19 128 C18.76216797 126.52853516 18.76216797 126.52853516 18.51953125 125.02734375 C13.06268934 92.81385411 -2.88846973 64.62647507 -27.52734375 43.18359375 C-30.12771832 40.88721242 -32.56929582 38.47418726 -35 36 C-34.34 36 -33.68 36 -33 36 C-32.73115494 35.40551056 -32.46230988 34.81102112 -32.18531799 34.19851685 C-30.99566578 31.99196094 -29.81174391 30.57534655 -28.03491211 28.82373047 C-27.4376683 28.22986542 -26.8404245 27.63600037 -26.2250824 27.0241394 C-25.58232864 26.39484528 -24.93957489 25.76555115 -24.27734375 25.1171875 C-23.61666397 24.46170929 -22.95598419 23.80623108 -22.27528381 23.13088989 C-20.16738574 21.04078373 -18.05291634 18.95749438 -15.9375 16.875 C-13.8194003 14.7845016 -11.70276818 12.69256959 -9.58900452 10.59768677 C-8.27405934 9.29501617 -6.95645058 7.99502781 -5.63597107 6.69796753 C-5.04187943 6.1104068 -4.44778778 5.52284607 -3.83569336 4.91748047 C-3.04865273 4.14281937 -3.04865273 4.14281937 -2.24571228 3.35250854 C-0.8845757 1.99998436 -0.8845757 1.99998436 0 0 Z " fill="#FCFCFC" transform="translate(423,162)"/>
<path d="M0 0 C-3.93333927 5.52209984 -8.22313231 10.55458019 -12.8515625 15.5078125 C-15.07877774 17.98252624 -15.07877774 17.98252624 -16.91796875 20.91796875 C-19.23568538 24.34888512 -21.83532134 27.203998 -24.6875 30.1875 C-28.46545674 34.20419744 -32.10756788 38.2594257 -35.5625 42.5625 C-39.23843232 47.14070661 -43.1119338 51.47203611 -47.10107422 55.7746582 C-50.49909401 59.44017652 -53.78347212 63.17493981 -57 67 C-60.71680702 64.92043657 -63.70577885 62.59346373 -66.8125 59.6875 C-69.88182494 56.86938469 -72.94559424 54.20503545 -76.3125 51.75 C-81.30432629 48.09670778 -84.88774603 44.35949752 -88 39 C-80.60137591 31.06760744 -73.18969107 24.82787869 -64 19 C-63.02160156 18.37222656 -62.04320312 17.74445313 -61.03515625 17.09765625 C-42.70440858 5.85315734 -21.4927683 -0.61505537 0 0 Z " fill="#8693A3" transform="translate(302,175)"/>
<path d="M0 0 C0.33 0 0.66 0 1 0 C1.01458252 0.5576001 1.02916504 1.1152002 1.04418945 1.68969727 C1.38600439 13.44788967 2.17373549 24.54402491 5 36 C5.20367187 36.90105469 5.40734375 37.80210937 5.6171875 38.73046875 C10.37869073 58.15857761 19.48721514 74.80803761 31.93359375 90.29296875 C33.62188063 92.50465648 34.89316174 94.46576377 36 97 C36.66 97 37.32 97 38 97 C38.53625 97.680625 39.0725 98.36125 39.625 99.0625 C53.40475311 116.10587885 76.44332517 127.62843684 97 134 C97 134.33 97 134.66 97 135 C61.69 135 26.38 135 -10 135 C-10 134.67 -10 134.34 -10 134 C5.51 133.67 21.02 133.34 37 133 C36.67 132.01 36.34 131.02 36 130 C35.34 130 34.68 130 34 130 C34 129.34 34 128.68 34 128 C33.34 128 32.68 128 32 128 C10.92679611 103.80483998 -0.2476038 71.68939141 -0.09765625 39.84375 C-0.0962413 38.70087524 -0.09482635 37.55800049 -0.09336853 36.38049316 C-0.08780025 32.75363475 -0.07525362 29.12683955 -0.0625 25.5 C-0.0574809 23.0312509 -0.05291871 20.56250082 -0.04882812 18.09375 C-0.03784121 12.06247867 -0.02113485 6.03124385 0 0 Z " fill="#DDDFDF" transform="translate(174,301)"/>
<path d="M0 0 C0 5.94 0 11.88 0 18 C2.97 18 5.94 18 9 18 C12.984375 18.98828125 12.984375 18.98828125 16.75 20.3125 C17.38292969 20.52583984 18.01585937 20.73917969 18.66796875 20.95898438 C22.40156222 22.25914426 25.68880913 23.8451983 29 26 C28.3900874 30.98844309 27.36525565 35.60155346 25.9375 40.4375 C25.39416016 42.29181641 25.39416016 42.29181641 24.83984375 44.18359375 C24.42412109 45.57771484 24.42412109 45.57771484 24 47 C23.44054687 46.82984375 22.88109375 46.6596875 22.3046875 46.484375 C20.56873462 45.95968185 18.83013279 45.44372055 17.08984375 44.93359375 C14.98652878 44.29807886 12.89520077 43.62179266 10.81640625 42.91015625 C4.15269167 40.74541198 -2.02485238 39.59308269 -9 39.5 C-10.05876343 39.47256714 -10.05876343 39.47256714 -11.13891602 39.44458008 C-16.18271574 39.50408862 -19.19703201 40.71377117 -23 44 C-23.48078991 45.98726495 -23.95649108 47.97774173 -24.328125 49.98828125 C-25.37663964 53.12772916 -27.47927051 54.52466045 -30.0546875 56.48046875 C-32.80743259 58.63070538 -35.12326806 61.14633831 -37.51953125 63.6796875 C-39 65 -39 65 -41 65 C-41.12375 65.78375 -41.2475 66.5675 -41.375 67.375 C-42 70 -42 70 -44 72 C-48.23891366 63.95741829 -49.14295086 56.00974774 -48 47 C-46.00397648 42.76248729 -42.91573448 39.34224457 -39.875 35.8125 C-39.39434082 35.24950195 -38.91368164 34.68650391 -38.41845703 34.10644531 C-28.28049969 22.28049969 -28.28049969 22.28049969 -24 18 C-22.00041636 17.95919217 -19.99954746 17.95745644 -18 18 C-18.05800781 17.40832031 -18.11601562 16.81664062 -18.17578125 16.20703125 C-18.54815379 9.68519223 -18.54815379 9.68519223 -15.75 6.1875 C-14.8425 5.465625 -13.935 4.74375 -13 4 C-12.13375 2.8553125 -12.13375 2.8553125 -11.25 1.6875 C-9 0 -9 0 0 0 Z " fill="#D3D6D6" transform="translate(322,234)"/>
<path d="M0 0 C-1.5979317 3.86242919 -4.22150237 6.58216189 -7.0625 9.5625 C-10.68986992 13.43675897 -14.17546573 17.35785875 -17.5 21.5 C-21.19935221 26.09596361 -25.09228683 30.45080998 -29.10083008 34.77441406 C-32.49895227 38.43999509 -35.78339804 42.17485173 -39 46 C-42.8608211 43.85124858 -45.95396612 41.37861544 -49.1875 38.375 C-52.34915935 35.33478018 -52.34915935 35.33478018 -56 33 C-52.67464068 22.39228956 -39.07552436 16.18927967 -30 11 C-29.20335937 10.53851563 -28.40671875 10.07703125 -27.5859375 9.6015625 C-20.12566209 5.57660291 -8.56884242 0 0 0 Z " fill="#3F5974" transform="translate(284,196)"/>
<path d="M0 0 C4.23185063 1.259063 7.88206661 3.12299678 11.74609375 5.234375 C12.47119141 5.61722656 13.19628906 6.00007812 13.94335938 6.39453125 C18.67654857 8.93761044 22.99613796 11.7798624 27.30859375 14.984375 C25.93663514 18.08146967 24.37066874 20.14308025 21.93359375 22.484375 C21.34835937 23.0515625 20.763125 23.61875 20.16015625 24.203125 C19.54914063 24.7909375 18.938125 25.37875 18.30859375 25.984375 C16.97291919 27.31536299 15.63899347 28.64811449 14.30859375 29.984375 C13.39980469 29.40429688 12.49101562 28.82421875 11.5546875 28.2265625 C2.78175055 22.73685749 -5.96451249 18.50261317 -15.69140625 14.984375 C-14.28999238 13.34369535 -12.8858431 11.70528132 -11.46875 10.078125 C-10.25697683 8.65062957 -9.08340497 7.19002881 -7.9453125 5.703125 C-7.07712891 4.60484375 -7.07712891 4.60484375 -6.19140625 3.484375 C-5.66546875 2.7934375 -5.13953125 2.1025 -4.59765625 1.390625 C-2.69140625 -0.015625 -2.69140625 -0.015625 0 0 Z " fill="#5B6D81" transform="translate(359.69140625,183.015625)"/>
<path d="M0 0 C4.96715495 1.01800349 9.93565146 2.72206688 14.2109375 5.453125 C16.37784959 10.03989611 14.23620764 14.70926788 12.7734375 19.265625 C12.53044922 20.05388672 12.28746094 20.84214844 12.03710938 21.65429688 C11.43866319 23.59044629 10.82617873 25.52224681 10.2109375 27.453125 C9.65148437 27.28296875 9.09203125 27.1128125 8.515625 26.9375 C3.33901736 25.37286618 -1.84637592 23.83852428 -7.0390625 22.328125 C-8.17859375 21.99554688 -9.318125 21.66296875 -10.4921875 21.3203125 C-13.58417241 20.50701789 -16.62853934 19.9224148 -19.7890625 19.453125 C-19.7890625 18.463125 -19.7890625 17.473125 -19.7890625 16.453125 C-19.1290625 16.453125 -18.4690625 16.453125 -17.7890625 16.453125 C-17.52867187 15.875625 -17.26828125 15.298125 -17 14.703125 C-15.27680974 11.50132633 -12.94782991 9.04180675 -10.515625 6.359375 C-9.22428793 4.93364539 -7.99072904 3.45520818 -6.7890625 1.953125 C-4.50011466 0.23641412 -2.85876887 -0.1747719 0 0 Z " fill="#F5F8F8" transform="translate(335.7890625,253.546875)"/>
<path d="M0 0 C9.69118018 4.88787272 17.54808683 13.28359445 25.34814453 20.68896484 C31.28861055 26.65025336 31.28861055 26.65025336 38.5625 30.5625 C39.89583333 32.22916667 41.22916667 33.89583333 42.5625 35.5625 C44.82981585 37.6441305 47.17969623 39.61475872 49.5625 41.5625 C48.2425 41.8925 46.9225 42.2225 45.5625 42.5625 C45.5625 41.9025 45.5625 41.2425 45.5625 40.5625 C44.2425 40.2325 42.9225 39.9025 41.5625 39.5625 C41.5625 38.9025 41.5625 38.2425 41.5625 37.5625 C40.5725 37.2325 39.5825 36.9025 38.5625 36.5625 C37.54145449 35.58399805 36.5418879 34.58269573 35.5625 33.5625 C34.5725 32.9025 33.5825 32.2425 32.5625 31.5625 C32.5625 30.9025 32.5625 30.2425 32.5625 29.5625 C30.9125 28.9025 29.2625 28.2425 27.5625 27.5625 C27.5625 26.5725 27.5625 25.5825 27.5625 24.5625 C26.9025 24.5625 26.2425 24.5625 25.5625 24.5625 C25.5625 23.9025 25.5625 23.2425 25.5625 22.5625 C24.5725 22.5625 23.5825 22.5625 22.5625 22.5625 C21.1881709 21.27146357 19.85353643 19.9368291 18.5625 18.5625 C17.9025 18.2325 17.2425 17.9025 16.5625 17.5625 C16.5625 16.9025 16.5625 16.2425 16.5625 15.5625 C15.9025 15.5625 15.2425 15.5625 14.5625 15.5625 C14.5625 14.9025 14.5625 14.2425 14.5625 13.5625 C13.5725 13.2325 12.5825 12.9025 11.5625 12.5625 C11.5625 11.9025 11.5625 11.2425 11.5625 10.5625 C10.9025 10.5625 10.2425 10.5625 9.5625 10.5625 C9.5625 9.9025 9.5625 9.2425 9.5625 8.5625 C8.3559375 8.1603125 8.3559375 8.1603125 7.125 7.75 C6.279375 7.358125 5.43375 6.96625 4.5625 6.5625 C4.0675 5.0775 4.0675 5.0775 3.5625 3.5625 C0.95840255 3.39468705 -1.6457682 3.22820349 -4.25 3.0625 C-4.98798828 3.01480469 -5.72597656 2.96710938 -6.48632812 2.91796875 C-9.47574588 2.72859387 -12.44124574 2.5625 -15.4375 2.5625 C-15.4375 3.2225 -15.4375 3.8825 -15.4375 4.5625 C-16.675 4.8409375 -16.675 4.8409375 -17.9375 5.125 C-25.7466336 8.33232273 -30.65830121 14.78808511 -35.578125 21.42578125 C-37.4375 23.5625 -37.4375 23.5625 -39.546875 24.54296875 C-41.675111 25.42644956 -41.675111 25.42644956 -42.34008789 27.89453125 C-43.51045224 30.73985753 -44.68914037 32.1507975 -46.88671875 34.26953125 C-47.57056641 34.93919922 -48.25441406 35.60886719 -48.95898438 36.29882812 C-50.03116211 37.3265332 -50.03116211 37.3265332 -51.125 38.375 C-55.90377953 43.00319704 -60.49368088 47.67495698 -64.83178711 52.72094727 C-67.08072397 55.3001978 -69.45128626 57.70848897 -71.875 60.125 C-72.34526611 60.59478271 -72.81553223 61.06456543 -73.30004883 61.54858398 C-75.97996351 64.20204164 -78.73066283 66.70925401 -81.625 69.125 C-85.46951246 72.3900951 -88.3639702 76.17236278 -91.4375 80.15234375 C-93.85010164 83.05971721 -96.52597804 85.36449943 -99.41796875 87.77734375 C-103.83308735 91.68006947 -108.01596581 96.10909074 -110.9765625 101.21875 C-112.93288083 104.35722861 -115.03349197 105.25883735 -118.4375 106.5625 C-119.0975 106.2325 -119.7575 105.9025 -120.4375 105.5625 C-119.89859131 105.02882813 -119.35968262 104.49515625 -118.80444336 103.9453125 C-116.32523764 101.48710574 -113.85010401 99.02483634 -111.375 96.5625 C-110.52744141 95.72332031 -109.67988281 94.88414062 -108.80664062 94.01953125 C-104.38018649 89.61016767 -100.12182155 85.13897578 -96.05297852 80.3984375 C-93.48492664 77.47993212 -90.71672255 74.77799623 -87.9375 72.0625 C-83.83706998 68.01323088 -79.90600375 63.91619549 -76.17578125 59.51953125 C-73.22024937 56.19206727 -70.00468276 53.12285951 -66.83984375 49.99609375 C-64.80035627 47.93007635 -62.882422 45.83244451 -61 43.625 C-57.33072698 39.33116987 -53.31863108 35.41113388 -49.28125 31.46875 C-46.47618902 28.66517949 -43.89100937 25.69029347 -41.29394531 22.69482422 C-38.10745842 19.03480627 -34.84886331 15.44533063 -31.5625 11.875 C-30.90636719 11.14216797 -30.25023437 10.40933594 -29.57421875 9.65429688 C-21.26719448 0.67526187 -12.19502431 -4.69541043 0 0 Z " fill="#72C4DF" transform="translate(176.4375,184.4375)"/>
<path d="M0 0 C3.88237008 1.61918752 6.56064882 4.1586609 9.625 7 C10.58664063 7.886875 11.54828125 8.77375 12.5390625 9.6875 C14.04625993 11.10378711 15.53755115 12.53755115 17 14 C16.34 14 15.68 14 15 14 C14.83564453 14.98226563 14.83564453 14.98226563 14.66796875 15.984375 C13.43477268 23.08277187 11.82425175 30.0313583 10 37 C7.60952 35.72846809 5.3072654 34.41278207 3 33 C2.1853125 32.50242187 1.370625 32.00484375 0.53125 31.4921875 C-0.2834375 30.93789063 -1.098125 30.38359375 -1.9375 29.8125 C-2.70964844 29.30332031 -3.48179687 28.79414063 -4.27734375 28.26953125 C-6.99169523 24.69348089 -6.58611729 21.33068336 -6 17 C-5.22310593 13.88160164 -4.16451399 10.93009114 -3 7.9375 C-2.57074219 6.78217773 -2.57074219 6.78217773 -2.1328125 5.60351562 C-1.43489595 3.73077287 -0.71930677 1.86463153 0 0 Z " fill="#566A7F" transform="translate(185,256)"/>
<path d="M0 0 C10.96925462 2.76658192 20.57214907 7.83563593 30 14 C28.59155282 17.21524305 26.89655214 19.32183868 24.375 21.75 C23.74335938 22.36359375 23.11171875 22.9771875 22.4609375 23.609375 C21.97882813 24.06828125 21.49671875 24.5271875 21 25 C20.23091309 24.62246582 20.23091309 24.62246582 19.44628906 24.23730469 C9.80168634 19.52514097 0.35132415 14.95456957 -10 12 C-3.84965831 3.55353075 -3.84965831 3.55353075 0 0 Z " fill="#2F4861" transform="translate(344,198)"/>
<path d="M0 0 C1.82144531 0.00966797 1.82144531 0.00966797 3.6796875 0.01953125 C6.62274427 0.16301361 9.26636918 0.50816758 12.125 1.1875 C11.795 2.1775 11.465 3.1675 11.125 4.1875 C9.949375 3.94 9.949375 3.94 8.75 3.6875 C-0.20884056 2.45179785 -6.42922221 2.61665539 -13.875 8.1875 C-17.98409466 11.78295782 -21.54519516 15.80419267 -25.12109375 19.91796875 C-28.91858805 24.27044261 -32.84676555 28.48848705 -36.8125 32.6875 C-37.47701172 33.39519531 -38.14152344 34.10289062 -38.82617188 34.83203125 C-42.83546208 39.08631204 -46.91311414 43.25656638 -51.07885742 47.35791016 C-52.88520292 49.19789291 -54.57593211 51.10205431 -56.25 53.0625 C-58.99121449 56.25432509 -61.88185888 59.23052977 -64.875 62.1875 C-67.76489828 65.04273683 -70.55951745 67.90250196 -73.1875 71 C-76.397389 74.75884863 -79.86289835 78.21492679 -83.375 81.6875 C-87.41964462 85.6867247 -91.29767954 89.72457737 -94.9765625 94.06640625 C-99.37990379 98.9861888 -104.17320817 103.55519278 -108.875 108.1875 C-109.205 107.1975 -109.535 106.2075 -109.875 105.1875 C-108.73046875 103.36328125 -108.73046875 103.36328125 -107.0625 101.5 C-106.51980469 100.87738281 -105.97710937 100.25476563 -105.41796875 99.61328125 C-103.875 98.1875 -103.875 98.1875 -101.875 98.1875 C-101.5965625 97.1046875 -101.5965625 97.1046875 -101.3125 96 C-99.65995844 92.76676652 -97.71636045 91.59205088 -94.734375 89.6328125 C-92.046935 87.54383603 -90.36679163 84.95123389 -88.42578125 82.18359375 C-86.35141106 79.51356059 -83.93600563 77.50282012 -81.29296875 75.4140625 C-79.73288449 74.22317522 -79.73288449 74.22317522 -78.875 72.1875 C-78.215 72.1875 -77.555 72.1875 -76.875 72.1875 C-76.61460938 71.61 -76.35421875 71.0325 -76.0859375 70.4375 C-73.98092874 66.52625791 -70.85671146 63.45000043 -67.875 60.1875 C-67.1325 59.3625 -66.39 58.5375 -65.625 57.6875 C-63.875 56.1875 -63.875 56.1875 -60.875 56.1875 C-60.5965625 55.1665625 -60.5965625 55.1665625 -60.3125 54.125 C-58.5904179 50.60596266 -56.36919485 48.50847048 -53.55078125 45.8359375 C-51.74695966 44.15503968 -51.74695966 44.15503968 -50.125 41.75 C-49.50625 40.9765625 -49.50625 40.9765625 -48.875 40.1875 C-47.885 40.1875 -46.895 40.1875 -45.875 40.1875 C-45.606875 39.383125 -45.33875 38.57875 -45.0625 37.75 C-44.670625 36.904375 -44.27875 36.05875 -43.875 35.1875 C-42.885 34.8575 -41.895 34.5275 -40.875 34.1875 C-40.875 33.5275 -40.875 32.8675 -40.875 32.1875 C-39.885 32.1875 -38.895 32.1875 -37.875 32.1875 C-37.7925 31.61 -37.71 31.0325 -37.625 30.4375 C-36.66921474 27.57014421 -35.02415257 26.26949155 -32.875 24.1875 C-32.38 22.7025 -32.38 22.7025 -31.875 21.1875 C-30.885 21.1875 -29.895 21.1875 -28.875 21.1875 C-28.50375 20.3521875 -28.50375 20.3521875 -28.125 19.5 C-26.64575182 16.76339087 -24.94032561 14.51099131 -22.875 12.1875 C-22.215 12.1875 -21.555 12.1875 -20.875 12.1875 C-20.63652344 11.59195313 -20.39804688 10.99640625 -20.15234375 10.3828125 C-18.60289657 7.71984823 -17.03485735 6.69171266 -14.4375 5.0625 C-13.65503906 4.56492188 -12.87257813 4.06734375 -12.06640625 3.5546875 C-11.34324219 3.10351562 -10.62007813 2.65234375 -9.875 2.1875 C-6.20702576 -0.25781616 -4.35988996 -0.05069639 0 0 Z " fill="#DEFAFB" transform="translate(166.875,180.8125)"/>
<path d="M0 0 C1.65 0.33 3.3 0.66 5 1 C5.495 3.475 5.495 3.475 6 6 C5.34 6.33 4.68 6.66 4 7 C3.505 6.01 3.505 6.01 3 5 C-0.71719372 6.55025821 -3.06783556 8.83223772 -5.875 11.6875 C-6.74898438 12.57566406 -7.62296875 13.46382812 -8.5234375 14.37890625 C-10.5982866 16.57484276 -12.57116015 18.80184067 -14.5 21.125 C-15.7375 22.548125 -15.7375 22.548125 -17 24 C-17.66 24 -18.32 24 -19 24 C-19.20753906 24.53753906 -19.41507812 25.07507813 -19.62890625 25.62890625 C-21.88849123 29.53650763 -25.32384471 32.40114557 -28.56835938 35.49023438 C-31.64437391 38.47522012 -33.84267178 41.26428757 -36 45 C-37.34690238 46.5036425 -38.74611231 47.96167473 -40.1875 49.375 C-40.90292969 50.08398438 -41.61835937 50.79296875 -42.35546875 51.5234375 C-44.46017037 53.49445792 -46.59549043 55.37303524 -48.78515625 57.24609375 C-53.24255653 61.12263857 -57.24517948 65.35148235 -61.25 69.6875 C-62.62969185 71.17105341 -64.00988412 72.65414162 -65.390625 74.13671875 C-65.98907227 74.78342529 -66.58751953 75.43013184 -67.20410156 76.09643555 C-67.79674805 76.72461182 -68.38939453 77.35278809 -69 78 C-69.69319336 78.73968018 -70.38638672 79.47936035 -71.10058594 80.24145508 C-73 82 -73 82 -75 82 C-75.04125 82.5775 -75.0825 83.155 -75.125 83.75 C-76.44065958 87.13312465 -78.96552364 88.19222685 -82 90 C-82.66 89.67 -83.32 89.34 -84 89 C-78.37536994 82.59764331 -72.573725 76.49554376 -66.48046875 70.54296875 C-64.13269588 68.1360394 -62.09679445 65.62408265 -60 63 C-58.35766039 61.30935629 -56.68696774 59.64611524 -55 58 C-52.37067934 55.40018185 -49.74817634 52.79351537 -47.125 50.1875 C-46.44308594 49.51396484 -45.76117188 48.84042969 -45.05859375 48.14648438 C-41.09730867 44.20406255 -37.34867963 40.15475242 -33.70117188 35.92163086 C-31.000411 32.87087184 -28.10117642 30.0331793 -25.1875 27.1875 C-20.76410066 22.88254638 -20.76410066 22.88254638 -17 18 C-16.34 18 -15.68 18 -15 18 C-14.7834375 17.45472656 -14.566875 16.90945313 -14.34375 16.34765625 C-12.54862264 13.21140176 -10.0867754 10.91398652 -7.5 8.4375 C-4.71628244 5.75088887 -2.16106778 3.24160167 0 0 Z " fill="#C5E2EA" transform="translate(167,242)"/>
<path d="M0 0 C5.4320523 1.88361884 8.83089189 5.18420614 13 9 C12.79141357 9.69512695 12.58282715 10.39025391 12.36791992 11.10644531 C10.07287084 19.373784 9.46873685 27.19714869 9.3125 35.75 C9.27833984 37.03132813 9.24417969 38.31265625 9.20898438 39.6328125 C9.12743155 42.75512062 9.05798423 45.87718059 9 49 C8.67 49 8.34 49 8 49 C8 43.72 8 38.44 8 33 C7.34 33 6.68 33 6 33 C6 32.34 6 31.68 6 31 C5.278125 30.773125 4.55625 30.54625 3.8125 30.3125 C0.23734967 28.64409651 -1.63123399 27.18091435 -4 24 C-5.19932162 15.73800665 -2.32245965 7.86940571 0 0 Z " fill="#2B4964" transform="translate(200,270)"/>
<path d="M0 0 C3.79928659 2.06340565 6.73251098 5.34682325 9 9 C9 9.66 9 10.32 9 11 C9.66 11 10.32 11 11 11 C11.99 11.99 11.99 11.99 13 13 C13.99 13.33 14.98 13.66 16 14 C17.6875 16.5625 17.6875 16.5625 19 19 C15.02340707 19 14.28285109 17.70376861 11.4375 15 C7.88492614 11.71308782 4.30630865 8.50610562 0.5625 5.4375 C-0.24058594 4.77621094 -1.04367188 4.11492187 -1.87109375 3.43359375 C-3.98696627 1.72072118 -3.98696627 1.72072118 -7 2 C-8.66904647 3.52679827 -8.66904647 3.52679827 -10.25 5.5625 C-12.57004174 8.33582721 -14.9112002 10.97533713 -17.5 13.5 C-19.86466766 15.81624562 -22.07154198 18.20035596 -24.21875 20.71875 C-28.57894048 25.73412254 -33.29746336 30.34923609 -38.0390625 35 C-41.99482052 38.90993843 -45.73212265 42.92450933 -49.36132812 47.13867188 C-51.70912546 49.80547863 -54.20885711 52.26628407 -56.75 54.75 C-60.44478077 58.34962465 -60.44478077 58.34962465 -63.703125 62.328125 C-64.34507813 63.15570313 -64.34507813 63.15570313 -65 64 C-65.66 64 -66.32 64 -67 64 C-67.33 64.99 -67.66 65.98 -68 67 C-68.66 67 -69.32 67 -70 67 C-70.2475 67.598125 -70.495 68.19625 -70.75 68.8125 C-72.16370012 71.28647521 -73.65055383 72.43370255 -76 74 C-74.77712331 65.59765372 -65.47228274 57.88723391 -59 53 C-58.34 53 -57.68 53 -57 53 C-56.773125 52.484375 -56.54625 51.96875 -56.3125 51.4375 C-52.98249665 45.25320807 -48.6928964 39.9948984 -43.22265625 35.55859375 C-37.81754441 31.11676917 -33.88757111 26.06510532 -29.8828125 20.37890625 C-29.26148438 19.59386719 -28.64015625 18.80882812 -28 18 C-27.34 18 -26.68 18 -26 18 C-26 17.34 -26 16.68 -26 16 C-25.01 15.34 -24.02 14.68 -23 14 C-19.86509451 11.77256715 -17.59610458 9.58574176 -15.4375 6.4375 C-11.23528178 0.41216557 -7.40589805 -1.38860588 0 0 Z " fill="#69C4DF" transform="translate(174,241)"/>
<path d="M0 0 C2.95060123 1.3607777 5.32164976 2.93243832 7.8203125 5.00390625 C8.52027344 5.57947266 9.22023438 6.15503906 9.94140625 6.74804688 C11.02228516 7.64620117 11.02228516 7.64620117 12.125 8.5625 C13.5637355 9.75295813 15.00377821 10.94183873 16.4453125 12.12890625 C17.07969238 12.65556885 17.71407227 13.18223145 18.36767578 13.72485352 C19.9849104 15.07503592 19.9849104 15.07503592 22 16 C22 16.66 22 17.32 22 18 C20.35 17.67 18.7 17.34 17 17 C17 16.34 17 15.68 17 15 C16.42636719 14.9071875 15.85273438 14.814375 15.26171875 14.71875 C12.46577857 13.83023015 10.96881099 12.47425846 8.8125 10.5 C8.11769531 9.8709375 7.42289062 9.241875 6.70703125 8.59375 C5.79357681 7.74091381 4.88366526 6.88366526 4 6 C1.58446775 5.60889873 1.58446775 5.60889873 -1 6 C-2.7211603 7.55052892 -2.7211603 7.55052892 -4 9.6875 C-6.4296079 13.2129362 -8.79703818 16.15292283 -12 19 C-12.66 19 -13.32 19 -14 19 C-14.20625 19.66 -14.4125 20.32 -14.625 21 C-18.5325502 29.52556407 -25.72218097 36.18982192 -32 43 C-35.3519325 46.67082672 -38.56439406 50.37744559 -41.51171875 54.3828125 C-41.95386719 54.97852051 -42.39601563 55.57422852 -42.8515625 56.18798828 C-43.72916421 57.37833183 -44.59548846 58.57708894 -45.44921875 59.78466797 C-46.66796875 61.4375 -46.66796875 61.4375 -49 64 C-50.32 64 -51.64 64 -53 64 C-52.47403544 59.83124387 -50.19493533 57.73180473 -47.375 54.75 C-46.45259106 53.76221708 -45.53071754 52.77393391 -44.609375 51.78515625 C-43.74828125 50.86605469 -42.8871875 49.94695312 -42 49 C-36.07426575 42.39151811 -30.35538125 35.59501003 -24.58496094 28.85107422 C-23.03988485 27.04658148 -21.49297021 25.24368504 -19.9453125 23.44140625 C-13.26193479 15.6569191 -6.61679222 7.84115929 0 0 Z " fill="#C7E1EA" transform="translate(412,119)"/>
<path d="M0 0 C0.66 0 1.32 0 2 0 C1 2 0 4 -1 6 C1.31 6.33 3.62 6.66 6 7 C6 13.27 6 19.54 6 26 C5.67 26 5.34 26 5 26 C5 20.06 5 14.12 5 8 C-1.07234093 7.88134992 -1.07234093 7.88134992 -6.0859375 10.84765625 C-7.29474762 12.29363797 -8.46541505 13.77262687 -9.58984375 15.28515625 C-10.05519531 15.85105469 -10.52054687 16.41695312 -11 17 C-11.66 17 -12.32 17 -13 17 C-13 19.97 -13 22.94 -13 26 C-14.03253906 26.20625 -15.06507813 26.4125 -16.12890625 26.625 C-20.63305342 27.920636 -22.95702223 30.51339397 -25.9375 34 C-26.45111084 34.5787085 -26.96472168 35.15741699 -27.49389648 35.75366211 C-32.42301323 41.35510637 -37.14809061 47.12904606 -41.57421875 53.13671875 C-43.49885385 55.65192682 -45.76025865 57.76025865 -48 60 C-49.10667262 61.33125411 -50.21066134 62.66474221 -51.3125 64 C-56.18163674 69.59950725 -61.41786953 73.43134021 -69 74 C-69.33 73.34 -69.66 72.68 -70 72 C-69.113125 71.7525 -68.22625 71.505 -67.3125 71.25 C-63.81017987 69.92836976 -61.80246148 68.45215379 -59 66 C-57.989375 65.21625 -56.97875 64.4325 -55.9375 63.625 C-52.95218382 61.19407893 -52.95218382 61.19407893 -51.2578125 58.27734375 C-48.54237347 54.33572897 -45.38113062 51.23809301 -41.9375 47.9375 C-38.00826472 44.17046226 -34.64458701 40.81450456 -32 36 C-30.33333333 34.33333333 -28.66666667 32.66666667 -27 31 C-25.63823419 29.01924973 -24.30406884 27.01920337 -23 25 C-19.69752695 20.20608751 -19.69752695 20.20608751 -16.25 19.1875 C-15.5075 19.125625 -14.765 19.06375 -14 19 C-13.92394531 18.2678125 -13.84789062 17.535625 -13.76953125 16.78125 C-12.80452661 13.29351749 -11.32150722 11.94863519 -8.6875 9.5 C-6.10100521 7.04077718 -3.79037767 4.73662836 -1.5625 1.9375 C-1.046875 1.298125 -0.53125 0.65875 0 0 Z " fill="#69C3DF" transform="translate(317,226)"/>
<path d="M0 0 C0.495 1.485 0.495 1.485 1 3 C0.566875 3.391875 0.13375 3.78375 -0.3125 4.1875 C-2.10853815 5.96975464 -2.10853815 5.96975464 -3.3125 8.375 C-5 11 -5 11 -7.796875 13.265625 C-11.0483637 15.90939089 -13.48737737 18.99594669 -15.9375 22.375 C-19.17136723 26.71618127 -22.5023639 30.67488804 -26.42578125 34.40625 C-28.68083225 36.6892793 -30.50859868 39.21783412 -32.3828125 41.81640625 C-34.90554227 45.22270079 -37.64514501 48.45171632 -40.36328125 51.703125 C-42.09956932 53.8213643 -42.09956932 53.8213643 -42.44140625 56.01953125 C-43.29719075 59.05367631 -45.27897847 60.3927048 -47.625 62.4375 C-48.97271484 63.613125 -48.97271484 63.613125 -50.34765625 64.8125 C-52.53819219 66.61912758 -54.73658288 68.31274293 -57.0625 69.9375 C-60.03747662 71.6790963 -60.03747662 71.6790963 -61 74 C-61.66 73.67 -62.32 73.34 -63 73 C-61.54300902 71.20724155 -60.08436345 69.41582771 -58.625 67.625 C-57.81289063 66.62726563 -57.00078125 65.62953125 -56.1640625 64.6015625 C-54 62 -54 62 -52 60 C-52.66 59.34 -53.32 58.68 -54 58 C-53.09894531 57.76152344 -52.19789063 57.52304688 -51.26953125 57.27734375 C-47.63531505 55.85752452 -46.19063113 54.50874662 -43.6875 51.5625 C-42.91792969 50.66660156 -42.14835937 49.77070313 -41.35546875 48.84765625 C-38.30026243 45.15404861 -35.26481711 41.44539893 -32.25 37.71875 C-30.06498431 35.07852271 -27.80828609 32.5327028 -25.5 30 C-21.67057268 25.79358242 -18.06196092 21.44858025 -14.484375 17.02734375 C-9.75690531 11.2666692 -4.86784684 5.64208982 0 0 Z " fill="#74C5E1" transform="translate(353,116)"/>
<path d="M0 0 C-2.40105265 1.47161292 -4.80653887 2.89850681 -7.30078125 4.20703125 C-8.10902344 4.63371094 -8.91726563 5.06039062 -9.75 5.5 C-10.52859375 5.9021875 -11.3071875 6.304375 -12.109375 6.71875 C-14.3159269 7.93456102 -14.3159269 7.93456102 -15 11 C-12.525 11.99 -12.525 11.99 -10 13 C-10 13.66 -10 14.32 -10 15 C-9.34 15.04125 -8.68 15.0825 -8 15.125 C-3.57289542 16.41623884 -0.21526756 18.70012014 3 22 C3.9375 25 3.9375 25 3 28 C1.44883811 29.60978138 -0.20649297 30.92225074 -1.984375 32.27734375 C-5.01970197 34.87148947 -7.19369457 38.01688537 -9.51953125 41.2421875 C-10.00808594 41.82226562 -10.49664062 42.40234375 -11 43 C-11.66 43 -12.32 43 -13 43 C-13.268125 43.598125 -13.53625 44.19625 -13.8125 44.8125 C-14.98493467 46.97224808 -16.19369282 48.35790256 -18 50 C-18.66 49.67 -19.32 49.34 -20 49 C-19.04882866 47.8274869 -18.08882991 46.66212985 -17.125 45.5 C-16.59132813 44.8503125 -16.05765625 44.200625 -15.5078125 43.53125 C-15.01023437 43.0259375 -14.51265625 42.520625 -14 42 C-13.34 42 -12.68 42 -12 42 C-11.7525 41.44828125 -11.505 40.8965625 -11.25 40.328125 C-9.75765526 37.54863293 -7.96327477 35.2185293 -6 32.75 C-4.948125 31.41195312 -4.948125 31.41195312 -3.875 30.046875 C-3.25625 29.37140625 -2.6375 28.6959375 -2 28 C-1.34 28 -0.68 28 0 28 C0 26.68 0 25.36 0 24 C-2.02793582 22.27176349 -2.02793582 22.27176349 -4.75 20.8125 C-9.22984008 18.12110063 -13.49995087 15.30547194 -17.6875 12.1875 C-18.70199219 11.43855469 -19.71648437 10.68960938 -20.76171875 9.91796875 C-21.50035156 9.28503906 -22.23898437 8.65210937 -23 8 C-23 7.34 -23 6.68 -23 6 C-19.92335374 4.79463757 -16.83781732 3.61391806 -13.75 2.4375 C-12.87730469 2.09525391 -12.00460937 1.75300781 -11.10546875 1.40039062 C-9.83896484 0.92182617 -9.83896484 0.92182617 -8.546875 0.43359375 C-7.38430176 -0.01415405 -7.38430176 -0.01415405 -6.19824219 -0.47094727 C-3.74031592 -1.06249838 -2.36496292 -0.81266156 0 0 Z " fill="#73C6DF" transform="translate(374,66)"/>
<path d="M0 0 C0.66 0.33 1.32 0.66 2 1 C1.23816406 1.88300781 0.47632813 2.76601562 -0.30859375 3.67578125 C-5.1464156 9.29524271 -9.96688126 14.91711951 -14.625 20.6875 C-18.47750923 25.43334471 -22.5344686 29.95526227 -26.66796875 34.45703125 C-30.82689361 38.99214026 -34.85721663 43.62774009 -38.8046875 48.34765625 C-39.3004126 48.93885254 -39.7961377 49.53004883 -40.30688477 50.13916016 C-41.29751556 51.3223913 -42.28507518 52.50820165 -43.26928711 53.69677734 C-46.77829449 57.88914724 -46.77829449 57.88914724 -49 59 C-49 57.35 -49 55.7 -49 54 C-48.34 54 -47.68 54 -47 54 C-46.67 53.01 -46.34 52.02 -46 51 C-44.61166787 49.88256195 -43.22240423 48.76625871 -41.828125 47.65625 C-37.03619995 43.31484782 -32.55817437 38.31470664 -31 32 C-30.071875 31.401875 -29.14375 30.80375 -28.1875 30.1875 C-25.17551836 28.12045378 -24.49140879 27.46889584 -22.9375 24.4375 C-20.84467265 20.72441921 -19.56755656 20.05134502 -16 18 C-14.61061923 16.03852126 -13.2739589 14.03833424 -12 12 C-10.375 10.125 -10.375 10.125 -9 9 C-8.34 9 -7.68 9 -7 9 C-6.773125 8.443125 -6.54625 7.88625 -6.3125 7.3125 C-4.64103234 4.36753316 -2.44723648 2.31843456 0 0 Z " fill="#6FC3DD" transform="translate(409,120)"/>
<path d="M0 0 C0.99 0.33 1.98 0.66 3 1 C2.21496094 1.7734375 1.42992187 2.546875 0.62109375 3.34375 C-0.44024244 4.39569384 -1.50143243 5.4477852 -2.5625 6.5 C-3.07619141 7.0053125 -3.58988281 7.510625 -4.11914062 8.03125 C-6.92071759 10.81542587 -9.59300212 13.653985 -12.16015625 16.65625 C-16.62758838 21.8198812 -21.46484993 26.6149246 -26.29980469 31.43017578 C-27.89638134 33.02130843 -29.48743611 34.61782715 -31.078125 36.21484375 C-32.09082465 37.226884 -33.1038337 38.23861476 -34.1171875 39.25 C-35.03097168 40.16265625 -35.94475586 41.0753125 -36.88623047 42.015625 C-39 44 -39 44 -40 44 C-40 42.02 -40 40.04 -40 38 C-39.01 38 -38.02 38 -37 38 C-36.731875 37.360625 -36.46375 36.72125 -36.1875 36.0625 C-35 34 -35 34 -32 33 C-31.88205078 31.83404297 -31.88205078 31.83404297 -31.76171875 30.64453125 C-31 28 -31 28 -29.14453125 26.69921875 C-28.37496094 26.36535156 -27.60539062 26.03148437 -26.8125 25.6875 C-22.24048459 23.41605285 -19.94500604 20.81837113 -17.19140625 16.57421875 C-16.79824219 16.05472656 -16.40507813 15.53523438 -16 15 C-15.34 15 -14.68 15 -14 15 C-13.67 14.01 -13.34 13.02 -13 12 C-12.34 12 -11.68 12 -11 12 C-10.76539062 11.42765625 -10.53078125 10.8553125 -10.2890625 10.265625 C-8.70593415 7.48315699 -6.8008475 5.82929786 -4.375 3.75 C-3.55773437 3.04359375 -2.74046875 2.3371875 -1.8984375 1.609375 C-1.27195313 1.07828125 -0.64546875 0.5471875 0 0 Z " fill="#6AC5E1" transform="translate(95,315)"/>
<path d="M0 0 C1 3 1 3 0.03125 5.48828125 C-2.7936189 10.69843485 -5.24184292 14.57718943 -9.953125 18.15234375 C-12.84407579 20.76192338 -15.08148974 23.78454947 -17.4375 26.875 C-21.6047237 32.33122567 -25.94109676 37.33247323 -31 42 C-31.99 41.67 -32.98 41.34 -34 41 C-32.35583222 36.91419384 -29.43203713 34.06556038 -26.4375 30.9375 C-21.74752142 25.95452982 -17.31946034 20.84086368 -13.03125 15.50390625 C-10.6001787 12.50714335 -8.06439628 9.61609672 -5.5078125 6.7265625 C-3.59903677 4.54086594 -1.78629424 2.28645663 0 0 Z " fill="#5BBBD8" transform="translate(289,190)"/>
<path d="M0 0 C0.66 0.33 1.32 0.66 2 1 C1.63390625 1.41507813 1.2678125 1.83015625 0.890625 2.2578125 C-2.12242433 5.6869496 -5.11607973 9.12999252 -8.06640625 12.61328125 C-8.60104492 13.24282715 -9.13568359 13.87237305 -9.68652344 14.52099609 C-10.76412616 15.79114344 -11.83903355 17.06358281 -12.91113281 18.33837891 C-16.77709263 22.88854632 -16.77709263 22.88854632 -19 24 C-20.65 22.68 -22.3 21.36 -24 20 C-20.7030554 12.54955166 -13.22730542 8.32293807 -6.625 4 C-6.00592773 3.58983643 -5.38685547 3.17967285 -4.74902344 2.75708008 C-3.20638693 1.77179007 -1.60661592 0.87710266 0 0 Z " fill="#103A58" transform="translate(263,218)"/>
<path d="M0 0 C1.75570313 0.02707031 1.75570313 0.02707031 3.546875 0.0546875 C4.88492187 0.08949219 4.88492187 0.08949219 6.25 0.125 C6.25 0.785 6.25 1.445 6.25 2.125 C4.703125 2.4034375 4.703125 2.4034375 3.125 2.6875 C-1.06719578 3.83314055 -2.89785201 6.23299855 -5.390625 9.6640625 C-5.83921875 10.14617187 -6.2878125 10.62828125 -6.75 11.125 C-7.74 11.125 -8.73 11.125 -9.75 11.125 C-9.75 11.785 -9.75 12.445 -9.75 13.125 C-11.4 13.125 -13.05 13.125 -14.75 13.125 C-15.09717213 9.39289965 -15.0422789 7.58429542 -13 4.375 C-8.85010102 0.22510102 -5.8243143 -0.11648629 0 0 Z " fill="#19324A" transform="translate(311.75,272.875)"/>
<path d="M0 0 C0.66 0.33 1.32 0.66 2 1 C1.23816406 1.88300781 0.47632813 2.76601562 -0.30859375 3.67578125 C-5.12742135 9.27330629 -9.92945669 14.87160258 -14.5625 20.625 C-20.03073307 27.36514809 -25.861282 33.861282 -32 40 C-32.66 39.34 -33.32 38.68 -34 38 C-32.71520959 36.49410612 -31.42195918 34.99542625 -30.125 33.5 C-29.04605469 32.24703125 -29.04605469 32.24703125 -27.9453125 30.96875 C-27.30335938 30.3190625 -26.66140625 29.669375 -26 29 C-25.34 29 -24.68 29 -24 29 C-23.731875 28.401875 -23.46375 27.80375 -23.1875 27.1875 C-22.00691239 25.01273336 -20.73183488 23.73183488 -19 22 C-18.67 21.01 -18.34 20.02 -18 19 C-17.02351983 17.97702078 -16.01868662 16.98095748 -15 16 C-13.66104368 14.33784732 -12.32869858 12.67036393 -11 11 C-3.08333333 1.54166667 -3.08333333 1.54166667 0 0 Z " fill="#5EC1DF" transform="translate(351,187)"/>
<path d="M0 0 C0.66 0 1.32 0 2 0 C1 2 0 4 -1 6 C1.31 6.33 3.62 6.66 6 7 C6 13.27 6 19.54 6 26 C5.67 26 5.34 26 5 26 C5 20.06 5 14.12 5 8 C-1.07234093 7.88134992 -1.07234093 7.88134992 -6.0859375 10.84765625 C-7.29474762 12.29363797 -8.46541505 13.77262687 -9.58984375 15.28515625 C-10.28787109 16.13400391 -10.28787109 16.13400391 -11 17 C-11.66 17 -12.32 17 -13 17 C-13 19.97 -13 22.94 -13 26 C-14.98 26 -16.96 26 -19 26 C-19 24.02 -19 22.04 -19 20 C-17.35 19.67 -15.7 19.34 -14 19 C-13.92394531 18.2678125 -13.84789062 17.535625 -13.76953125 16.78125 C-12.80452661 13.29351749 -11.32150722 11.94863519 -8.6875 9.5 C-6.10100521 7.04077718 -3.79037767 4.73662836 -1.5625 1.9375 C-1.046875 1.298125 -0.53125 0.65875 0 0 Z " fill="#74B5CA" transform="translate(317,226)"/>
<path d="M0 0 C0.66 0.33 1.32 0.66 2 1 C1.67 2.32 1.34 3.64 1 5 C0.34 5 -0.32 5 -1 5 C-1.25265625 5.55816406 -1.5053125 6.11632812 -1.765625 6.69140625 C-5.41029359 13.50785921 -10.84681416 19.38511062 -17 24 C-17 23.34 -17 22.68 -17 22 C-18.32 21.67 -19.64 21.34 -21 21 C-21 20.01 -21 19.02 -21 18 C-18.73469504 16.28771335 -16.53492555 14.7909964 -14.125 13.3125 C-13.47402344 12.89677734 -12.82304687 12.48105469 -12.15234375 12.05273438 C-7.29002463 9 -7.29002463 9 -5 9 C-4.731875 8.443125 -4.46375 7.88625 -4.1875 7.3125 C-2.89877353 4.80287477 -1.47073522 2.40665764 0 0 Z " fill="#C5E6F0" transform="translate(373,89)"/>
<path d="M0 0 C2.31 0.33 4.62 0.66 7 1 C7 1.66 7 2.32 7 3 C8.36125 3.37125 8.36125 3.37125 9.75 3.75 C13.14607416 5.05618237 14.55916188 6.39082822 17 9 C17.99 9.33 18.98 9.66 20 10 C20.6875 12.0625 20.6875 12.0625 21 14 C21.66 14 22.32 14 23 14 C23.33 12.35 23.66 10.7 24 9 C24.33 9 24.66 9 25 9 C26.125 16.75 26.125 16.75 25 19 C24.34 19 23.68 19 23 19 C23 18.34 23 17.68 23 17 C22.12710327 16.599021 22.12710327 16.599021 21.23657227 16.18994141 C18.95508607 14.97610408 17.18350065 13.62937611 15.21484375 11.9609375 C14.51939453 11.38085938 13.82394531 10.80078125 13.10742188 10.203125 C11.65467067 8.97920499 10.20416386 7.75261624 8.75585938 6.5234375 C8.06169922 5.9459375 7.36753906 5.3684375 6.65234375 4.7734375 C6.02320068 4.24153809 5.39405762 3.70963867 4.74584961 3.16162109 C2.93322209 1.72302616 2.93322209 1.72302616 0 2 C0 1.34 0 0.68 0 0 Z " fill="#6DC3DD" transform="translate(411,118)"/>
<path d="M0 0 C1.051875 0.185625 1.051875 0.185625 2.125 0.375 C-11.875 14.375 -11.875 14.375 -14.09765625 16.53125 C-15.94523182 18.24110089 -15.94523182 18.24110089 -16.75 20.3125 C-18.47063022 23.46698874 -21.05753067 25.170024 -23.875 27.375 C-24.535 27.045 -25.195 26.715 -25.875 26.375 C-25.40191406 25.85292969 -24.92882812 25.33085937 -24.44140625 24.79296875 C-20.59430193 20.51090916 -16.86501305 16.16790667 -13.25 11.6875 C-4.13760253 0.53968729 -4.13760253 0.53968729 0 0 Z " fill="#BFDAE5" transform="translate(300.875,251.625)"/>
<path d="M0 0 C0.89203125 0.01804688 1.7840625 0.03609375 2.703125 0.0546875 C3.71632813 0.08949219 3.71632813 0.08949219 4.75 0.125 C4.75 0.455 4.75 0.785 4.75 1.125 C3.491875 1.125 2.23375 1.125 0.9375 1.125 C-10.97181091 2.43783742 -20.47138071 14.74236326 -27.57421875 23.5234375 C-29.45569285 25.32158291 -30.70893355 25.73747353 -33.25 26.125 C-29.35274499 21.4699454 -25.3283863 16.93393982 -21.25 12.4375 C-20.75209961 11.87909424 -20.25419922 11.32068848 -19.74121094 10.74536133 C-16.54499414 7.24720984 -13.34430634 4.58937189 -9.25 2.125 C-8.57453125 1.71507812 -7.8990625 1.30515625 -7.203125 0.8828125 C-4.70703715 -0.08566959 -2.66784009 -0.07020632 0 0 Z " fill="#7EC5DE" transform="translate(167.25,182.875)"/>
<path d="M0 0 C0.33 0 0.66 0 1 0 C1.02497996 4.37418249 1.04299062 8.74832563 1.05493164 13.12255859 C1.05991708 14.60628992 1.06670785 16.09001646 1.07543945 17.57373047 C1.12246397 25.77812616 1.0216355 33.84300472 0 42 C-0.33 42 -0.66 42 -1 42 C-1.76072881 38.01738253 -2.08852476 34.38017625 -1.9140625 30.33203125 C-1.87023437 29.27306641 -1.82640625 28.21410156 -1.78125 27.12304688 C-1.7296875 26.03056641 -1.678125 24.93808594 -1.625 23.8125 C-1.58117187 22.73935547 -1.53734375 21.66621094 -1.4921875 20.56054688 C-1.19267697 13.68428423 -0.68898802 6.84799384 0 0 Z " fill="#59BEE1" transform="translate(438,53)"/>
<path d="M0 0 C4.93141139 0.4226924 6.65950776 2.50413603 10 6 C12.07786488 7.57318422 14.18858867 9.08228911 16.328125 10.5703125 C18 12 18 12 19 15 C19.99 15.33 20.98 15.66 22 16 C21.67 17.32 21.34 18.64 21 20 C20.08476562 19.14535156 19.16953125 18.29070312 18.2265625 17.41015625 C17.02615326 16.29415079 15.82562632 15.17827192 14.625 14.0625 C14.02171875 13.49853516 13.4184375 12.93457031 12.796875 12.35351562 C11.92675781 11.54624023 11.92675781 11.54624023 11.0390625 10.72265625 C10.50490723 10.22515869 9.97075195 9.72766113 9.42041016 9.21508789 C7.9954525 7.89706492 7.9954525 7.89706492 6 7 C6 6.34 6 5.68 6 5 C5.38125 4.731875 4.7625 4.46375 4.125 4.1875 C2 3 2 3 0 0 Z " fill="#64BEDD" transform="translate(196,264)"/>
<path d="M0 0 C0.66 0.33 1.32 0.66 2 1 C1.195625 1.763125 0.39125 2.52625 -0.4375 3.3125 C-4.64018933 7.72019856 -4.20101477 12.04105104 -4.31640625 17.82421875 C-4.33718735 18.68561966 -4.35796844 19.54702057 -4.37937927 20.43452454 C-4.44474909 23.18543544 -4.50370132 25.93644156 -4.5625 28.6875 C-4.60569717 30.55274421 -4.64931185 32.4179788 -4.69335938 34.28320312 C-4.80041763 38.85537124 -4.90172054 43.4276351 -5 48 C-5.33 48 -5.66 48 -6 48 C-6 33.15 -6 18.3 -6 3 C-4.02 2.01 -2.04 1.02 0 0 Z " fill="#66C6E7" transform="translate(61,288)"/>
<path d="M0 0 C0.33 1.32 0.66 2.64 1 4 C0.01 4.495 0.01 4.495 -1 5 C-1.268125 5.598125 -1.53625 6.19625 -1.8125 6.8125 C-4.08055042 10.99048761 -7.88537583 12.94268792 -12 15 C-13.68889872 16.3050581 -15.3603279 17.63360658 -17 19 C-15.60652624 15.84795019 -13.97514921 13.73828227 -11.5234375 11.328125 C-10.51796875 10.33232422 -10.51796875 10.33232422 -9.4921875 9.31640625 C-8.79351562 8.63449219 -8.09484375 7.95257813 -7.375 7.25 C-6.66859375 6.55261719 -5.9621875 5.85523438 -5.234375 5.13671875 C-3.49401297 3.41987512 -1.74915019 1.70788168 0 0 Z " fill="#C7E3E9" transform="translate(79,335)"/>
<path d="M0 0 C0.99 0.33 1.98 0.66 3 1 C2.41992188 1.6290625 1.83984375 2.258125 1.2421875 2.90625 C-3.02529309 7.58216933 -7.11071937 12.26504574 -10.80859375 17.40625 C-12 19 -12 19 -14 21 C-16.625 21.125 -16.625 21.125 -19 21 C-16.04191217 16.93262923 -12.64138562 13.84809895 -8.8046875 10.6484375 C-6.78227744 8.93367669 -6.78227744 8.93367669 -5 6 C-4.34 6 -3.68 6 -3 6 C-2.690625 5.195625 -2.38125 4.39125 -2.0625 3.5625 C-1 1 -1 1 0 0 Z " fill="#7D9FB6" transform="translate(298,176)"/>
<path d="M0 0 C0 4.06772485 -1.54175504 5.09653495 -4.25 8.0625 C-5.03890625 8.94035156 -5.8278125 9.81820312 -6.640625 10.72265625 C-8.74033941 12.74936735 -10.32636212 13.91460114 -13 15 C-13 11 -13 11 -11.609375 9.1484375 C-10.99578125 8.56320313 -10.3821875 7.97796875 -9.75 7.375 C-9.14671875 6.78460938 -8.5434375 6.19421875 -7.921875 5.5859375 C-6.02168699 4.01789618 -4.20680582 3.06692678 -2 2 C-1.34 1.34 -0.68 0.68 0 0 Z " fill="#5CC6E7" transform="translate(269,217)"/>
<path d="M0 0 C1 3 1 3 -0.00390625 5.55859375 C-3.03004656 11.14823136 -5.23757714 15.11878857 -11 18 C-11.26993156 15.0099889 -11.31481734 13.4669201 -9.609375 10.9375 C-8.68898438 9.9784375 -8.68898438 9.9784375 -7.75 9 C-7.11449219 8.319375 -6.47898437 7.63875 -5.82421875 6.9375 C-4.92123047 5.9784375 -4.92123047 5.9784375 -4 5 C-2.65407903 3.34348188 -1.3140151 1.68193932 0 0 Z " fill="#68C5E0" transform="translate(289,190)"/>
<path d="M0 0 C0.66 0 1.32 0 2 0 C1.55280717 4.41869109 -1.45250663 7.0088691 -4.375 10.0625 C-4.87 10.59166016 -5.365 11.12082031 -5.875 11.66601562 C-8.20848781 14.1523656 -10.56820808 16.60956508 -13 19 C-12.56320873 14.09724086 -10.40768321 11.85936586 -7.0625 8.375 C-4.45254829 5.63361188 -2.10080884 3.15121327 0 0 Z " fill="#E0FAFB" transform="translate(354,111)"/>
<path d="M0 0 C1.32 0.33 2.64 0.66 4 1 C3.41992188 1.64066406 2.83984375 2.28132812 2.2421875 2.94140625 C-2.24094975 7.90540806 -6.67445028 12.89806956 -11 18 C-11.33 17.01 -11.66 16.02 -12 15 C-10.70703125 12.84375 -10.70703125 12.84375 -8.8125 10.5 C-8.20019531 9.7265625 -7.58789062 8.953125 -6.95703125 8.15625 C-5 6 -5 6 -2.82421875 4.40625 C-0.70397895 3.04241033 -0.70397895 3.04241033 0 0 Z " fill="#DCF8F8" transform="translate(321,149)"/>
<path d="M0 0 C0.99 0.33 1.98 0.66 3 1 C1.04563141 3.31595666 -0.91323411 5.62782368 -2.875 7.9375 C-3.43058594 8.59685547 -3.98617188 9.25621094 -4.55859375 9.93554688 C-5.09355469 10.56396484 -5.62851562 11.19238281 -6.1796875 11.83984375 C-6.67194824 12.42113037 -7.16420898 13.00241699 -7.67138672 13.60131836 C-9 15 -9 15 -11 16 C-10.4739075 12.21213403 -9.61896089 9.82847776 -7 7 C-6.34 7 -5.68 7 -5 7 C-5 6.34 -5 5.68 -5 5 C-3.35 4.34 -1.7 3.68 0 3 C0 2.01 0 1.02 0 0 Z " fill="#DFFAFB" transform="translate(338,130)"/>
<path d="M0 0 C4.41031645 0.50888267 6.89327599 3.03449072 10 6 C10 6.99 10 7.98 10 9 C11.98 9.66 13.96 10.32 16 11 C16 11.99 16 12.98 16 14 C12.36953654 12.43805642 9.78806795 10.21034833 6.875 7.5625 C6.00617188 6.78003906 5.13734375 5.99757812 4.2421875 5.19140625 C2 3 2 3 0 0 Z " fill="#DCF9FB" transform="translate(198,201)"/>
<path d="M0 0 C1.65 0 3.3 0 5 0 C0.45200375 5.59753384 -4.52331848 10.3143947 -10 15 C-10 12 -10 12 -8.06640625 9.84375 C-7.24011719 9.0703125 -6.41382812 8.296875 -5.5625 7.5 C-2.0051262 4.26041979 -2.0051262 4.26041979 0 0 Z " fill="#D2E2E6" transform="translate(127,285)"/>
<path d="M0 0 C0.66 0.33 1.32 0.66 2 1 C2 1.66 2 2.32 2 3 C-3.28 3 -8.56 3 -14 3 C-14 3.66 -14 4.32 -14 5 C-15.32 4.67 -16.64 4.34 -18 4 C-12.51508816 -0.87547719 -7.11948517 -0.65013263 0 0 Z " fill="#66C0DE" transform="translate(175,184)"/>
<path d="M0 0 C0.66 0.33 1.32 0.66 2 1 C0.02 3.31 -1.96 5.62 -4 8 C-4 4.09161134 -2.49432124 2.88405893 0 0 Z M-6 8 C-6 11 -6 11 -6 11 Z M-9 12 C-8.67 12.99 -8.34 13.98 -8 15 C-12.75 17.875 -12.75 17.875 -15 19 C-14.67 17.02 -14.34 15.04 -14 13 C-12.35 12.67 -10.7 12.34 -9 12 Z " fill="#5FC7E7" transform="translate(106,300)"/>
<path d="M0 0 C0 0.66 0 1.32 0 2 C-4.23798336 5.45277325 -8.49897163 7.58742287 -14 8 C-14.33 7.34 -14.66 6.68 -15 6 C-13.6696875 5.62875 -13.6696875 5.62875 -12.3125 5.25 C-8.93200274 4.17254876 -8.93200274 4.17254876 -6.375 1.875 C-4 0 -4 0 0 0 Z " fill="#5DBEDC" transform="translate(262,292)"/>
<path d="M0 0 C1 2 1 2 0.5 4.25 C-1.58735846 8.07682385 -4.5949423 10.35061019 -8 13 C-8.63671875 11.15625 -8.63671875 11.15625 -9 9 C-6.8125 6.5 -6.8125 6.5 -4 4 C-3.236875 3.236875 -2.47375 2.47375 -1.6875 1.6875 C-1.130625 1.130625 -0.57375 0.57375 0 0 Z " fill="#B8D7E1" transform="translate(313,234)"/>
<path d="M0 0 C0 2.31 0 4.62 0 7 C-1.98 7 -3.96 7 -6 7 C-6 5.02 -6 3.04 -6 1 C-3 0 -3 0 0 0 Z " fill="#4B8296" transform="translate(304,245)"/>
<path d="M0 0 C0 3 0 3 -2.3125 5.5 C-3.199375 6.325 -4.08625 7.15 -5 8 C-5.598125 8.598125 -6.19625 9.19625 -6.8125 9.8125 C-7.204375 10.204375 -7.59625 10.59625 -8 11 C-8.99 10.67 -9.98 10.34 -11 10 C-11 9.01 -11 8.02 -11 7 C-8.59375 5.17578125 -8.59375 5.17578125 -5.5 3.3125 C-3.96859375 2.37857422 -3.96859375 2.37857422 -2.40625 1.42578125 C-1.6121875 0.95527344 -0.818125 0.48476562 0 0 Z " fill="#DCE1E2" transform="translate(363,100)"/>
<path d="M0 0 C0.33 0 0.66 0 1 0 C1.83796731 4.65537393 2.0161692 8.37078475 1 13 C4.63 13.66 8.26 14.32 12 15 C12 15.33 12 15.66 12 16 C8.04 16 4.08 16 0 16 C0 10.72 0 5.44 0 0 Z " fill="#0F283D" transform="translate(323,236)"/>
<path d="M0 0 C0.33 0.99 0.66 1.98 1 3 C-2.96 6.96 -6.92 10.92 -11 15 C-11.66 14.67 -12.32 14.34 -13 14 C-8.71 9.38 -4.42 4.76 0 0 Z " fill="#497994" transform="translate(357,183)"/>
<path d="M0 0 C0.33 0.66 0.66 1.32 1 2 C-2.61836815 7.65370024 -6.45396035 11.2430054 -12 15 C-10.38462556 11.10082032 -7.72075127 8.28706228 -4.875 5.25 C-4.40707031 4.74339844 -3.93914062 4.23679687 -3.45703125 3.71484375 C-2.30873459 2.47280859 -1.15491328 1.23588506 0 0 Z " fill="#64C8E7" transform="translate(375,94)"/>
<path d="M0 0 C0.99 0.33 1.98 0.66 3 1 C-0.16548033 4.88901869 -3.40365256 8.50640535 -7 12 C-7.66 11.67 -8.32 11.34 -9 11 C-6.03 7.37 -3.06 3.74 0 0 Z " fill="#6CB8D3" transform="translate(299,178)"/>
<path d="M0 0 C0.66 0.33 1.32 0.66 2 1 C2 1.66 2 2.32 2 3 C1.34 3.66 0.68 4.32 0 5 C-0.268125 5.639375 -0.53625 6.27875 -0.8125 6.9375 C-2.38528151 9.66917315 -4.25305301 10.52602844 -7 12 C-7.99 12.66 -8.98 13.32 -10 14 C-10 13.01 -10 12.02 -10 11 C-9.0925 10.4225 -8.185 9.845 -7.25 9.25 C-3.28152128 6.50259165 -2.12914898 4.25829796 0 0 Z " fill="#61C5E3" transform="translate(388,141)"/>
<path d="M0 0 C-2.5 1.5 -2.5 1.5 -5 3 C-5.86625 3.5775 -6.7325 4.155 -7.625 4.75 C-8.40875 5.1625 -9.1925 5.575 -10 6 C-10.99 5.67 -11.98 5.34 -13 5 C-9.25316241 0.83684713 -5.67827303 -2.10306409 0 0 Z " fill="#68C5E1" transform="translate(374,66)"/>
<path d="M0 0 C0.66 0.33 1.32 0.66 2 1 C0.35 2.98 -1.3 4.96 -3 7 C-3.99 6.01 -4.98 5.02 -6 4 C-4.02 2.68 -2.04 1.36 0 0 Z M-8 5 C-7.34 5.33 -6.68 5.66 -6 6 C-6.99 6.66 -7.98 7.32 -9 8 C-8.67 7.01 -8.34 6.02 -8 5 Z " fill="#1A4665" transform="translate(263,218)"/>
<path d="M0 0 C0.66 0.33 1.32 0.66 2 1 C1.67 2.32 1.34 3.64 1 5 C0.34 5 -0.32 5 -1 5 C-1.433125 5.928125 -1.433125 5.928125 -1.875 6.875 C-3 9 -3 9 -5 11 C-5.99 10.67 -6.98 10.34 -8 10 C-7.01 9.67 -6.02 9.34 -5 9 C-3.93283296 7.20067421 -3.93283296 7.20067421 -3 5 C-2.01120795 3.32665961 -1.01351664 1.65848177 0 0 Z " fill="#D0F4F7" transform="translate(373,89)"/>
<path d="M0 0 C2.86697492 1.28519565 4.97607712 2.57129254 7 5 C7 5.66 7 6.32 7 7 C4.61435923 6.42415568 2.33317216 5.77772405 0 5 C0 3.35 0 1.7 0 0 Z " fill="#CCE4EB" transform="translate(178,250)"/>
<path d="M0 0 C0.33 0.66 0.66 1.32 1 2 C-0.98 4.64 -2.96 7.28 -5 10 C-5.99 9.67 -6.98 9.34 -8 9 C-7.67 8.67 -7.34 8.34 -7 8 C-7.66 7.34 -8.32 6.68 -9 6 C-8.071875 5.7525 -7.14375 5.505 -6.1875 5.25 C-2.83541675 3.93545755 -1.8122197 3.02036616 0 0 Z " fill="#8BC9DD" transform="translate(308,168)"/>
<path d="M0 0 C0.66 0 1.32 0 2 0 C1.44449305 3.59905908 0.25112752 4.99909799 -2.5625 7.25 C-3.20316406 7.77078125 -3.84382813 8.2915625 -4.50390625 8.828125 C-4.99761719 9.21484375 -5.49132813 9.6015625 -6 10 C-5.12808515 5.4934738 -3.09672921 3.32331916 0 0 Z " fill="#E7FCFB" transform="translate(63,279)"/>
<path d="M0 0 C0.99 0.33 1.98 0.66 3 1 C0.03 4.3 -2.94 7.6 -6 11 C-6.66 10.67 -7.32 10.34 -8 10 C-6.625 8 -6.625 8 -5 6 C-4.34 6 -3.68 6 -3 6 C-2.690625 5.195625 -2.38125 4.39125 -2.0625 3.5625 C-1 1 -1 1 0 0 Z " fill="#7597AF" transform="translate(298,176)"/>
<path d="M0 0 C4.43458973 1.3937282 6.87378374 3.60582235 10 7 C9.01 7.495 9.01 7.495 8 8 C6.66102417 7.04956626 5.32894573 6.08940853 4 5.125 C3.2575 4.59132813 2.515 4.05765625 1.75 3.5078125 C1.1725 3.01023437 0.595 2.51265625 0 2 C0 1.34 0 0.68 0 0 Z " fill="#DEF9F8" transform="translate(353,76)"/>
<path d="M0 0 C1.875 1.5625 1.875 1.5625 3 3 C-1.69023454 2.43393721 -6.34500026 1.81462495 -11 1 C-11 0.67 -11 0.34 -11 0 C-7.01949697 -1.05366257 -3.99369172 -1.04183262 0 0 Z " fill="#324D60" transform="translate(349,51)"/>
<path d="M0 0 C3.7758544 0.52442422 6.22372155 1.32654667 9 4 C9 4.99 9 5.98 9 7 C5.18315774 5.44499019 2.80804268 2.96404505 0 0 Z " fill="#E0F7F9" transform="translate(180,186)"/>
<path d="M0 0 C2.475 0.99 2.475 0.99 5 2 C2.6870518 4.3129482 1.52095125 4.49580975 -1.625 5.125 C-2.44226563 5.29257813 -3.25953125 5.46015625 -4.1015625 5.6328125 C-5.04128906 5.81457031 -5.04128906 5.81457031 -6 6 C-6 5.34 -6 4.68 -6 4 C-4.02 3.67 -2.04 3.34 0 3 C0 2.01 0 1.02 0 0 Z " fill="#C7EFF2" transform="translate(371,61)"/>
<path d="M0 0 C0.99 0.33 1.98 0.66 3 1 C3 1.66 3 2.32 3 3 C2.34 3 1.68 3 1 3 C1.33 4.32 1.66 5.64 2 7 C1.34 7 0.68 7 0 7 C0 6.34 0 5.68 0 5 C-1.32 5.33 -2.64 5.66 -4 6 C-2.68 4.02 -1.36 2.04 0 0 Z " fill="#0C3350" transform="translate(262,293)"/>
<path d="M0 0 C2.475 0.495 2.475 0.495 5 1 C5 1.66 5 2.32 5 3 C5.66 3 6.32 3 7 3 C7.33 4.65 7.66 6.3 8 8 C6.85073734 7.04578192 5.70569459 6.08647955 4.5625 5.125 C3.92441406 4.59132812 3.28632813 4.05765625 2.62890625 3.5078125 C1 2 1 2 0 0 Z " fill="#E0F8FA" transform="translate(189,193)"/>
<path d="M0 0 C0 3.77910478 -0.99703962 4.46106101 -3.5 7.1875 C-4.47453125 8.26064453 -4.47453125 8.26064453 -5.46875 9.35546875 C-5.9740625 9.89816406 -6.479375 10.44085938 -7 11 C-7 7.33815476 -6.080358 5.97194 -4 3 C-1.8125 1.1875 -1.8125 1.1875 0 0 Z " fill="#5EC6E6" transform="translate(358,113)"/>
<path d="M0 0 C-1.625 1.5625 -1.625 1.5625 -4 3 C-7.25 2.6875 -7.25 2.6875 -10 2 C-6.19832777 -0.53444815 -4.31588991 -1.33941411 0 0 Z " fill="#59B7D8" transform="translate(417,50)"/>
<path d="M0 0 C2.64 0 5.28 0 8 0 C8.33 1.32 8.66 2.64 9 4 C4.545 3.01 4.545 3.01 0 2 C0 1.34 0 0.68 0 0 Z " fill="#2E495C" transform="translate(317,298)"/>
<path d="M0 0 C0.556875 0.28875 1.11375 0.5775 1.6875 0.875 C4.08494645 2.0413253 6.51596939 3.0339881 9 4 C8.01 4.99 7.02 5.98 6 7 C1.125 3.375 1.125 3.375 0 0 Z " fill="#6695B0" transform="translate(221,221)"/>
<path d="M0 0 C0.33 0 0.66 0 1 0 C2.125 7.75 2.125 7.75 1 10 C0.34 10 -0.32 10 -1 10 C-1 9.34 -1 8.68 -1 8 C-1.66 8 -2.32 8 -3 8 C-3 7.34 -3 6.68 -3 6 C-2.34 5.67 -1.68 5.34 -1 5 C-0.34444881 2.47266765 -0.34444881 2.47266765 0 0 Z " fill="#70BAD5" transform="translate(435,127)"/>
<path d="M0 0 C0.66 0.33 1.32 0.66 2 1 C1.875 2.875 1.875 2.875 1 5 C-2.0625 6.25 -2.0625 6.25 -5 7 C-3.70700306 4.11562221 -2.34058637 2.12780579 0 0 Z " fill="#63C2E1" transform="translate(297,248)"/>
<path d="M0 0 C2.475 0.99 2.475 0.99 5 2 C5 3.65 5 5.3 5 7 C3.02 5.35 1.04 3.7 -1 2 C-0.67 1.34 -0.34 0.68 0 0 Z " fill="#CEE4ED" transform="translate(419,125)"/>
<path d="M0 0 C0.66 0.33 1.32 0.66 2 1 C1.01 2.98 0.02 4.96 -1 7 C-1.99 6.67 -2.98 6.34 -4 6 C-2.84826645 3.53199953 -1.95216435 1.95216435 0 0 Z " fill="#5BBCDB" transform="translate(259,225)"/>
<path d="M0 0 C-1.32 0.33 -2.64 0.66 -4 1 C-4 2.32 -4 3.64 -4 5 C-5.32 4.34 -6.64 3.68 -8 3 C-8 2.34 -8 1.68 -8 1 C-2.25 -1.125 -2.25 -1.125 0 0 Z " fill="#82CCDA" transform="translate(359,71)"/>
<path d="M0 0 C-0.99 0.33 -1.98 0.66 -3 1 C-3 1.66 -3 2.32 -3 3 C-5.31 3 -7.62 3 -10 3 C-6.84439813 -0.15560187 -4.30999015 -1.43666338 0 0 Z " fill="#52B4D6" transform="translate(397,57)"/>
<path d="M0 0 C0.99 0.33 1.98 0.66 3 1 C-0.465 3.97 -0.465 3.97 -4 7 C-4 6.01 -4 5.02 -4 4 C-2.68 3.34 -1.36 2.68 0 2 C0 1.34 0 0.68 0 0 Z " fill="#D5E5E8" transform="translate(75,341)"/>
<path d="M0 0 C0.66 0.66 1.32 1.32 2 2 C0.68 2.99 -0.64 3.98 -2 5 C-1.125 1.125 -1.125 1.125 0 0 Z M-5 6 C-4.34 6.33 -3.68 6.66 -3 7 C-4.32 7.99 -5.64 8.98 -7 10 C-6.34 8.68 -5.68 7.36 -5 6 Z " fill="#C7D5DC" transform="translate(286,268)"/>
<path d="M0 0 C3.77545388 1.09068668 6.47043472 1.9083091 9 5 C5 5 5 5 2.25 2.5 C1.5075 1.675 0.765 0.85 0 0 Z " fill="#D3F1F5" transform="translate(206,209)"/>
<path d="M0 0 C3.73639216 1.24546405 4.18756513 2.63404953 6 6 C3 6 3 6 1.3125 4.6875 C0 3 0 3 0 0 Z " fill="#60BFDC" transform="translate(187,254)"/>
<path d="M0 0 C0 0.99 0 1.98 0 3 C-1.98 3.33 -3.96 3.66 -6 4 C-5.67 3.01 -5.34 2.02 -5 1 C-3 0 -3 0 0 0 Z " fill="#DCFAFC" transform="translate(365,65)"/>
<path d="M0 0 C0.66 0.66 1.32 1.32 2 2 C-0.64 2.99 -3.28 3.98 -6 5 C-6.33 4.34 -6.66 3.68 -7 3 C-4.69 2.01 -2.38 1.02 0 0 Z " fill="#254056" transform="translate(129,58)"/>
</svg>
